<mxfile host="app.diagrams.net" agent="Mozilla/5.0 (Windows NT 10.0; Win64; x64) AppleWebKit/537.36 (KHTML, like Gecko) Chrome/128.0.0.0 Safari/537.36" version="24.7.13">
  <diagram id="C5RBs43oDa-KdzZeNtuy" name="Page-1">
    <mxGraphModel dx="1035" dy="1670" grid="1" gridSize="10" guides="1" tooltips="1" connect="1" arrows="1" fold="1" page="1" pageScale="1" pageWidth="827" pageHeight="1169" math="0" shadow="0">
      <root>
        <mxCell id="WIyWlLk6GJQsqaUBKTNV-0" />
        <mxCell id="WIyWlLk6GJQsqaUBKTNV-1" parent="WIyWlLk6GJQsqaUBKTNV-0" />
        <mxCell id="zkfFHV4jXpPFQw0GAbJ--17" value="Hotel" style="swimlane;fontStyle=0;align=center;verticalAlign=top;childLayout=stackLayout;horizontal=1;startSize=26;horizontalStack=0;resizeParent=1;resizeLast=0;collapsible=1;marginBottom=0;rounded=0;shadow=0;strokeWidth=1;" parent="WIyWlLk6GJQsqaUBKTNV-1" vertex="1">
          <mxGeometry x="508" y="120" width="192" height="216" as="geometry">
            <mxRectangle x="550" y="140" width="160" height="26" as="alternateBounds" />
          </mxGeometry>
        </mxCell>
        <mxCell id="zkfFHV4jXpPFQw0GAbJ--18" value="- ubicacion: string" style="text;align=left;verticalAlign=top;spacingLeft=4;spacingRight=4;overflow=hidden;rotatable=0;points=[[0,0.5],[1,0.5]];portConstraint=eastwest;" parent="zkfFHV4jXpPFQw0GAbJ--17" vertex="1">
          <mxGeometry y="26" width="192" height="26" as="geometry" />
        </mxCell>
        <mxCell id="zkfFHV4jXpPFQw0GAbJ--19" value="- tipoHabitacion:Habitacion" style="text;align=left;verticalAlign=top;spacingLeft=4;spacingRight=4;overflow=hidden;rotatable=0;points=[[0,0.5],[1,0.5]];portConstraint=eastwest;rounded=0;shadow=0;html=0;" parent="zkfFHV4jXpPFQw0GAbJ--17" vertex="1">
          <mxGeometry y="52" width="192" height="26" as="geometry" />
        </mxCell>
        <mxCell id="zkfFHV4jXpPFQw0GAbJ--20" value="- tempor" style="text;align=left;verticalAlign=top;spacingLeft=4;spacingRight=4;overflow=hidden;rotatable=0;points=[[0,0.5],[1,0.5]];portConstraint=eastwest;rounded=0;shadow=0;html=0;" parent="zkfFHV4jXpPFQw0GAbJ--17" vertex="1">
          <mxGeometry y="78" width="192" height="26" as="geometry" />
        </mxCell>
        <mxCell id="zkfFHV4jXpPFQw0GAbJ--21" value="Postal Code" style="text;align=left;verticalAlign=top;spacingLeft=4;spacingRight=4;overflow=hidden;rotatable=0;points=[[0,0.5],[1,0.5]];portConstraint=eastwest;rounded=0;shadow=0;html=0;" parent="zkfFHV4jXpPFQw0GAbJ--17" vertex="1">
          <mxGeometry y="104" width="192" height="26" as="geometry" />
        </mxCell>
        <mxCell id="zkfFHV4jXpPFQw0GAbJ--22" value="Country" style="text;align=left;verticalAlign=top;spacingLeft=4;spacingRight=4;overflow=hidden;rotatable=0;points=[[0,0.5],[1,0.5]];portConstraint=eastwest;rounded=0;shadow=0;html=0;" parent="zkfFHV4jXpPFQw0GAbJ--17" vertex="1">
          <mxGeometry y="130" width="192" height="26" as="geometry" />
        </mxCell>
        <mxCell id="zkfFHV4jXpPFQw0GAbJ--23" value="" style="line;html=1;strokeWidth=1;align=left;verticalAlign=middle;spacingTop=-1;spacingLeft=3;spacingRight=3;rotatable=0;labelPosition=right;points=[];portConstraint=eastwest;" parent="zkfFHV4jXpPFQw0GAbJ--17" vertex="1">
          <mxGeometry y="156" width="192" height="8" as="geometry" />
        </mxCell>
        <mxCell id="zkfFHV4jXpPFQw0GAbJ--24" value="+ validarDisponibilidaHabitacion()" style="text;align=left;verticalAlign=top;spacingLeft=4;spacingRight=4;overflow=hidden;rotatable=0;points=[[0,0.5],[1,0.5]];portConstraint=eastwest;" parent="zkfFHV4jXpPFQw0GAbJ--17" vertex="1">
          <mxGeometry y="164" width="192" height="26" as="geometry" />
        </mxCell>
        <mxCell id="zkfFHV4jXpPFQw0GAbJ--25" value="+ reservar()" style="text;align=left;verticalAlign=top;spacingLeft=4;spacingRight=4;overflow=hidden;rotatable=0;points=[[0,0.5],[1,0.5]];portConstraint=eastwest;" parent="zkfFHV4jXpPFQw0GAbJ--17" vertex="1">
          <mxGeometry y="190" width="192" height="26" as="geometry" />
        </mxCell>
        <mxCell id="wt-7m9LUay8EXN7549MW-0" value="" style="shape=image;verticalLabelPosition=bottom;labelBackgroundColor=default;verticalAlign=top;aspect=fixed;imageAspect=0;image=data:image/png,iVBORw0KGgoAAAANSUhEUgAAAlMAAADpCAYAAAAAj7LSAAAAAXNSR0IArs4c6QAAAARnQU1BAACxjwv8YQUAAAAJcEhZcwAADsMAAA7DAcdvqGQAAP+lSURBVHhe7J0HWBTX2sf/bF+KdKQISBEULAgoYgdjQ4wtlqjJvbYkXr3XGEVNVDSW5OZLYmKLXqNGxYYFBERRKUGjJBqxghglCYpBsCAiCLLL+80WYBcWdijmJrnzex4Sd3bmzDn/t5wzM3vmGBADODg4ODg4ODg4mgRP/X8ODg4ODg4ODo4mwA2mODg4ODg4ODiaATeY4uDg4ODg4OBoBtxgioODg4ODg4OjGXCDKQ4ODg4ODg6OZsANpjg4ODg4ODg4mgE3mOLg4ODg4ODgaAbcYIqDg4ODg4ODoxlwgykODg4ODg4OjmbADaY4ODg4ODg4OJoBN5ji4ODg4ODg4GgG3GCKg4ODg4ODg6MZcIMpDg4ODg4ODo5mwA2mODg4ODg4ODiaATeY4uDg4ODg4OBoBtxgioODg4ODg4OjGXCDKQ4ODg4ODg6OZsANpjg4ODg4ODg4mgE3mOLg4ODg4ODgaAbcYIqDg4ODg4ODoxlwgykODg4ODg4OjmbADaY4ODg4ODg4OJoBN5ji4ODg4ODg4GgG3GCKg4ODg4ODg6MZcIMpDg4ODg4ODo5mwA2mODg4ODg4ODiaQYsPporObsGSxRuRUlCp3qKB7CYOr/4AKw/eUG/4syHD5YhwLNl8BoU6mve7IsvEgZVLsC7pPppflWcofCJT/5sFsmvYu2wJvkp90ALn/gujy0bPCtEYqX93ynKQ8vUyvD1uGF4JfgUho6cgbE0Urj3RsHSTfK+RPvbfRnYZEeFLsPlMoXrDHx1NfWXIPLASS9Yl4X5tA1U+xunNS/D+8l24+Ey9rUX5A+XIPzv/tTzbgP9w1EsLD6Yq8fTH/fj0010494jU2zSQZeP4xk+xIf6WesOfjRfIiP4cn+49jyc6mve7IruF+PWfYueZguYFWtk5fBzcBW/sbUTAvriBmC8/RUTaY/y3ZfhDU8tGZec+RnCXN7D3wR80Q5VewMdD/DDwX1txsaQVnFzbwrLyJg6Gj0X37lMReUeu2q+xvtcUH/tv8yID0Z9/ir3nn6g3/IGpo68Mt+LX49OdZ1D7mlZ2YzMWvLcRZyWd4G2s3tii/IFy5J+d/1qerd9/OOqHe8z3v07ZDXx3LhdlXOJreSQjsLOgHBeXd4aA+Vh24zucyy37gw5AK5G/fyX+fc4S06Ou4nz8PmzfuhURR87heuoK+OfvQdjqUyhV7FqrXXrhfOzlUkdfCUbsLED5xeXorGUgGbJSrqPVm+uxI6wrsxcHhy7q8x+OhuAvZ1D/uwUgPP1hF9adqkC/mdPQ17rWWI25oo1dux8/uY1H2EhPyDIPYPX6dLQKtMP9mJ3YceAYzt0qgYWbO6wlBuqDGCqL8FPKYeyLjELciVRczC5Gq7buaG3Y8FhQVnAZcXsicCA2CT/mVMDKzRWWYvWXTOdR9FMKDu+LRFTcCaRezEZxq7Zwb22oNcJ8dvsU9nyzF7Gnf0KZjStKE9citjQIs//eE+bKHeV4cCUOe3ZFIjbpIn4ps4Cru1V1onppbZTdxJEvDqKg23SMMkvDru2ROJZ2C8/MXeFuLYVGyXiRdx7REYwOR1OQ/msZzF3dYaWoYHEatq7aijjmuMfychQUijGgu4vqIPkDXInbg12RsUi6+AvKLJhylQcxVGTg0OfRKOozE1N7W6n10qPD9f1YufEKTFyLkLBpJ05klcG2vTssROzsUIPiFvRqrE9vhUC7+4jZuQMHjp3DrRILuLlbQ1NS+YMrjP13IZKx/8VfymBR1W4NGvYRFmXI8nEpLhL7D8XgZFoWHvBt4eZoqhpkKB6HrV6LJJkX2ufvx+qtcUi79Rjy8gIUijuiu4vi1kDj239t74dYf4aHTn5tYaRur+xyBJZvSIOgqy+chTeY865HeqtA2N2Pwc4dB3Ds3C2UWLgxviHR8o0a5Mg6/An+c94dM9dMQ1epejODyL4zrJ5cRi6vPYIGdoRpZU27urkaK8uT5V9CXOR+HIo5ibSsB+DbusHRlFGhAR9rUFuldhtw2SwAre9G45tvDuJkeh7Ezh3QxqQCd87sw7adUUi6VohW7p6wlda0qrLoJ6Qc3ofIqDicSL2I7OJWaOveGg2ni2e4fWoPvtkbi9M/lcHGtRSJa2NRGjQbU3qaq/dp2Mfro+TnZOzfsQdHmIHME9O2aHVtG/4vphCeAe5opa62Pj9rnL6OyhhZmySDVzdXGCvP8QJ552Nw4qYc5kYyFJWbNy1P6UB/jmQRR1rIcJ0Z2G+8YgLXogRs2nkCWWW2aO9uAZFeG8iQfykOkfsPIeZkGrIe8GHr5giFVNU0lNt0nfvJfZzfswcXeJ3h19aoJn6efY9tKzcjXdoNvo5M0mCRw+u1oy505dlG9xNNiSNVjtXyH7157veM1T8o1KLI6c6XQSQSdqdVmTL1Ng2ex9M0OwHZ/C1G9fHIm2Qt7kpDBzuShbMf9e3nS20MeSTxeJviCuTKfajsCq0LcSCRoT116fsKvdK3C9lLeSR0mkh7c9X71EFOv8W9S35mfDJ08KG+QQHkZiYgqccUisxR1KuMrqwLIQeRIdl36UuvvNKXuthLiSd0ool7c5mjFVTQze1jyUUsJDMXf+rVrR1ZWnhTFzchifp8Rj8ripE/opTwvmQjZMrp2IuC+nQiW6mYnEdsoCvPlYW8vDY+P0JvWgvIrrMPOZg7k19QEPk7GxNP3I6mRd9Xt0FGOYdnko8pn4wcfal/cE/ytBSRyHEYrblQTFR4klZNCCQHPp/su4+iSYsPK4+SP0qh8L42JGTq07FXEPXpZEtSsTON2HCFlM0qiaRxrUTU4+Ms5gzKA/TrcGgimYvdydvTljwC+5Kf3wyKeszGDrV5TkfetCZx16E02NGCnP36Uj/fNmTIk5DH23GkklROj1LCqa+NkAztO1KvoD7UyVZKYucRtKGqQnp9hEUZ5Vdp7aDWJDRzpe5BAynI34mM+a3Ib3EqMeqqbSQi32VX6MHJVTQh0IH4fHvqPmoSLT58h9mhKe0vochxrUjU42PK0gixkt2jyFDUhz5TOKbyvGLqOnQwOVowvtG3H/m2MSSexIPejiuop1yip3HTqA1fTK7DwynizM/0tL4dNdpVwXwsv7qWBrVm4sS1OwUNZPzQyZj4rfxocWp9PsZCW+U5DKnroGBqY92OAoN6kYe5gITOEyg8rC852HlRr35+5GjEI0Of9+ms+rCyK+soxEHElNuF+r7yCvXtYk9SnpCcJu6letNFxU3aPtaFxEIzcvHvRd3aWZKFdxdyE4qoz2c/q/Zh4eN1kVH27jfIQyqgVkzs9+ruQVatXKhntzYk6vg+nVeIx0KLxuurihGR7zK6ojiHLIcOz/QhU74ROfr2p+CenmQpEpHjsDWkSAMKWOWpOrDIkWxsXYfndGiiOYndvcnT1oMC+/qR34woeqzXBuV0de0gas3Y0bV7EA0M8icnYz618ltMCqkU6M1tus49bQMt6yUhkyGb6Z6GFI/2vkYW4gBarejrWOTwBu2oi9p5tsn9RGPjqJb/sMpzv1Os/oH57w+meHxyHB9BP5cpN9HjhHfIXWBEw7YWKD8/3D2GzIWeNDvxsfKzgqdn5pG3UEKDNuWpt9Ti6VGa5igkq8Ff0tUS1abyW5splAlol9nJVPZwN40xF5Ln7ESqLvXpGZrnLSTJoE2UxxhSfn8njbIQUtsJu+l2uWIHGd2Ln0WdJAYkVCeKYqauLkIHGr0lg54pC2GKufAR9Tc3pIDV15SfX1oblQ7MI77DaNquqiBz0Lc0p72QjEO3kaJked4uGm0lIPuR/6FMtQPLC5Jovp8RiTstojRFfQq3UohYRAM2/KbuZIsp4R0XEjLlbsmobhVd+Kg/mRsyieMaE121gpyVDorBFBMoHcPOVe/DNFyvHeqiCnQe35HGR/zMDEcUPGbq7E4Co2GklLQ4gd5xEZLD6C1U04QL9FF/czIMWE2KJuj1ERZllKf+i9xEnjT3tLoARrtzi/zIyuMfdFRxTK1BR+HWEBKLBtCG39QNa1L72Q6mGN9wHE8RNU5H77gLyGjYVqVv6EReQCmrQsjF0IBgYEAic1fyHzKZ3vtkD527p/YxBVrtKqfUf7mRyHMu1chwjhb5WZHHP46qbF3bx9jYp6oNbcbR7l8VG5jDEmeRm8CAxD7zKOWhoiQ5Fewfz3SeLjQrWdHOh7R7jDkJPWdTTSg9pTPzvEkoGUSbdAoqp/s7R5GFsC1N2H2baQ2D7B7Fz+pEEgNh9WCKjY/XRn4/gsZYCcl5/E66qTSDjPIS3iVfRl9h1WBKrxZN0FerM5RT3q7RZCWwp5H/yVQPGBjdkuaTn5GYOi1KU25hk6dqwyZHsrJ1HVQDGp6wI4WdqzqIhQ3KU+lfbiLynHuaiRIVxecWkZ+VB/1DGZAscpvOc8vp1/UDyMhoIG28o/YhJlZ2jjIjw35rKJtpp/4czsKOtamVZ5vVTzQqjrQHU+zy3O8Rq39s/vs30/gOCJ0xFi7qRyvmfYLga/QC+XkPlJ9Nh32O1LRYLA+qutVeCQNbB9gJ5CgqLFJv06b8bAwS7tthzLy30clQtU3kPg1bUtJwfEkAxKbD8HlqGmKXB6G6VANbONgJIC8qRBEBxUmxSC72whsLx8NNpNiDD/shSzCrX9UjtDKkHoxBrm0/DPF6imvff4/vmb8MWQ8M8AHSY+OUeyl5CW1UwYP98JmYqKogYBKAfv6t8CIvF/kyoOhUNBKLOmDKkqnooL6LzbMOxuL5ITDMOoLD6S9UGzUpS8XBmFzY9hsCr6fXlG36/vsMyHoMgA/SERuXrd6xikbowGuD/iG+MFJ/ZBqu1w71wXcIxYyxLlBJao4+QUy5L/KR90DONOEgYnJt0W+IF55eU9Xn+wwZeqgqhLhsuV4fIRZl8MzMYUo5OPrFJ9hx6hryy40R+PGPeHBzI4ZVN7IBmtF+/fDhEDoDY2ucDkG+RniRnwdGIt3wrNF/cTyyfmbsvGkZZgxqi4prR7B20WT09grAP6LuoO6hPJiZm4JyjuKLT3bg1LV8lBsH4uMfH+DmxmE1ttaAjX1U8GA7dApec1Y9BjH29YEHX4DOY6aij6UidfFg4dMFLgaFePRIcYwphn2eirTY5agJJQPYOthBIC9CoU5Bi5EUm4xirzewcLwbVKFujyFLZqFf9eOIRvi4BkUnDuNkUWdMWzoRHkoz8GE7OBzvDTFVfq9AvxbUaH21KcKp6EQUdZiCJVM7qB+H8WAdvBjzQwyRdeSwcosSPXmqNvpzZGNsXRdem/4IYXxWBQsb8MxgbkrIOfoFPtlxCtfyy2Ec+DF+fHATGxUB2Yjcpn1uHhxfex1BgrM4FH2Xyc6MWxXE4mCyHH0mjENbPpsc3vg4qU1z+onGxZE27PLc7xGrf2xafDDF5yvCSA65XJcYiu3MSfmM91VhYAlrK43PPBHEAgOQYkcGgZktTJ4k4rO3xmBwH194OpjDwmshUssBqtQ91aA0NxcP4Qg3V6F6iwIB7Lz84Nma6TkFZrA1eYLEz97CmMF94OvpAHMLLyxUFcq4qBz379xDKc8RLi4az7N55mjnZqMSrfIJcnIeoeLuXrzVOxCBgVV/wViaUorK/FzlIUpeQhtV8GBlY82ksBoEQqa+MhlkTBvy797Dc74rPDw12sBg7N4ODriP3Ht1p6pXPslBzqMK3N37FnpXt4n5C16KlNJK5OfeU++ppjE68Cy0ddBrh/oxsLSGtqRiMBdCjH/J8SQnB48q7mLvW7016hOI4KUpKK3MV7a7YR+RsCpD0HEO1q0eCkHKR5g6qAvaWDuj24jZ+DLpDnQMU+vSjPbrxwCW1lYavsGDSCyAATExqCdPiVr7YPjby7BhfxIu5+bj55QvMbb1DWyZtRgxdSa3CdBxzjqsHipAykdTMahLG1g7d8OI2V8i6Y4uFSpZaavCAFa2tjVt4PGZfxvAxMysurOGQKD8npRtEsDM1gRPEj/DW2MGo4+vJxzMLeC1MBXlIOgMJfl93LlXCp6jC7RDvR3cbNTpsTE+Xo0Mub/cQZnIGW6aBTPdpns7e3XiZaMFGqlvLeT5uHvvOfiuHtBOA8ZMPRyA++zzlDYscmSjbF0XnoVGjLOxgaAj5qxbjaGCFHw0dRC6tLGGc7cRmP1lEhRSNSa3aZ2bgWc7EhMHSfFDVBR+lVci78hBpBoMwOuj7ZRt1Z/DGxsndWl6P9HYONKGXZ77HWL1D446W7QUPLRiRt9CYkaWul4y8vwRHj0DWjEC12AAg2q1a1OJOxHMVfHQRYi6Zwl/5kp76eZ4XL29BaH1/niR6QykEsZUz1FaqukZlSjMvoxrOYV4cScCk3sPxaKoe7D0D8WMpZsRf/U2tlQXagBDQ+bqikrw7Jl2O8rKX6hmY/HEkIh5EHZbhUyZ8nGp1p/sl43K/VW0fBurMKi3YANIGR0MKuu2Qf7sKUqYa1SppK75eWIJxDwhuq3KhKxWm4hk+GVjsHpPNY3UgcerqW+lXjs0ANNu3S3nQSwRgyfshlWZsjr1Idkv2Bgs1uMjReCzKEPRcfQKi0JmXg4uxH2NFdN7wzhjF+aFvoqV5/UnyCa3X2FzJtto1ry8rLzOIKl+39DBi1SEdbaA8/Q41Yy9agzh1O9f+GrBKxA9uoL023U7P555L4RFZSIv5wLivl6B6b2NkbFrHkJfXYm6MrCzjwoD8HmNSFGVdxAxuTeGLorCPUt/hM5Yis3xV3F7S2j9PxI3MIShlBkwlDyDdpiUofyFWtBG+XgVqhwCWSlKnqs3KSE8ZzaoSmanReP0rYWBlIlzA1TWaZ8cz56WABKNmQZMndm7DIsc2Shb68CAh+p0wcoGPJj3CkNUZh5yLsTh6xXT0ds4A7vmheLVlecha0xu0zy3EkuEThwG0/NRiLqdg+iDZyEZ8jpeVQ642eXwZtmxWf1EI+OoNqzy3O8Qq39wmqGwbiSdOsHD4A6+/+5nJly1KTpzGunlhujQub16ix4qCxC/Kw4F3nMRGbcFqxfOxOThveFyLxM3GRtW1jN8lXT1g7fBTziTmltTB3kOds3ohcAZe5ARtwtxBd6YGxmHLasXYubk4ejtcg+ZqkIZt+WhdUA3uNFlJJ7QeDFh2SWkplW9W8cEvn5MO67HIyZLo4ORZ2PHO8Mxdtkx9QY9NLGN+uHBzt8XznQRCfF5NW1gOon04ynIFXrBt7NIlTTU3ygx8YWqWTHQbtYOvDN8LJYdq33Lv6k6VKIgXp8dmoaJrx/a4zriY7JQUyM5sne8g+Fjl+HYg0o9PrIPpT76ypDhQcJKTBq3HKcq7OEXOg3vr9mDxNgF8JVn4cLlurfdDbSSTVPbz4OE6aDoyUM8rK54KS5dyqoTb41C4IUu7Qxw78hX2J7FXOpqUYIbWb9AJnWGq2OtlFH5AAkrJ2Hc8lOosPdD6LT3sWZPImIX+EKedQFKGWr5GBv7NIXKgnjsiiuA99xIxG1ZjYUzJ2N4bxfcy7zJXEEzeuoqltcaAd3cQJcTcULjDYVll1KRVv2Snab4OB+OPbqhbeVlpCQ/Um9jeJGJ5LO51QNhvVrk5zdaXy14dvD3dQZdTEB8noYAZek4npILoZevekNjYZMjW9LW+m1Q+SABKyeNw/JTFbD3C8W099dgT2IsFvjKkXXhMooandu0MRk0EcOt0xG3bTMO/WDKDK5CVI/n2eRwNnHSEC+tn9BHZaPzHBuaFKt/cOqNwaYi8J6Iv/c1xIV/T8DUL2JxIfse8u5k4rv9yzF5zh4UtJ2At161VO+tB54JHJ2sQNnx2Lr/O1y9/iMSI5Zh3JuboHjtZ3m51iVfNfz2U/DeGDOcDh+HWRtjkJISi03vTsKqs60xYfbrcHd2ghVlI37rfnx39Tp+TIzAsnFvYpOqUDxnMp3IfybCholxbN6reHttFE4cY/YZPwnrblRFoQCdp4dhtMUFrBj5GsJ3HEVy4kGsmf4a5my7gApnL/V+emhiG9kg6jkL8wcJcTxshLINyacTEBE+FpPWZsNtShgmOjHmF5vARFqJrISvsfv4NaZZnTE9bDQsLqzAyNfCseNoMhIPrsH01+Zg24UKOHtZqEuvoqk68GDiqN8OTUHQeTrCRlvgwoqReC18B44mJ+Lgmul4bc42XKhwhpcFT4+PjIejj74yBDC3BW7Ff4JZf1+Nfae+w9nkw/hi5W5kSLpjQO/aOimkNoG0MgsJX+/G8WtFTWy/CF17+EKaHYEPPtiJhG8Zmy6biJkHHkHUnGjmWWPch8sxgH8Kc3sHYPSc1dj4zS7s/M+nWDChH0auvYvO/1yEca1rnYS5arVlPDX+k1n4++p9OPXdWSQf/gIrd2dA0n0AlDLU8jE29mkKPBNHOFkRsuO3Yv93V3H9x0RGm3F4UyUoynUKKoL/zDAMEx/DvFffxtqoEzjGxN/4SetQHepN9HFF/M0dUIFD/xyFOZticOrYbnw4YTw+v6IoWHVnVa8WVpaN1lcbEXrOmo9BwuMIG6FoXzJOJ0QgfOwkrM12w5Swier9Go/+HMkuFtmh3wY8VUDik1l/x+p9p/Dd2WQc/mIldmdI0H1Ab1g0OrfVwrA/Jo9ugx/Wr8P31q9i4gD1W0/Z5HA2cdIQL7GfaBheo/McG5oWq39w6CUgu3eSlg/3IFO+gUIR1Z+BhBx6zaRd16tmBCgmAbxJ1iJfWqacf6nmeTS9YSkiv+VXlR/leadoxSgfsjcWklBiTi4BY2npgST6d38pmQ7fptxHJyUZtHdeKHV2MCGR0JBsOgymuXsyVLM85Hl0asUo8rE3JqFQQuYuATR26QFK+nd/kpoOp2331TMJnqTTttkDqYONEYmk1tRh2AJaNNqBJNXTfpnTZO6nBSN9ydFMTAKhMdl6D6RZW9Ppierrl9dGrRlVVTyn2CmtSdRlKV2q2vj0Cu2cE0Kd7BkdREZk49mfpnxyinKrvpc/pIQFPclOyie+3TT1xhLK3L+ARvo6kplYQEJjW/IeOIu2pqtbVXvKrmKTPh0Us/lE/rQyo+oIBrZ20KLWtF01z6PfIEuRHy2/qt5Ykkn7F4wkX0czEguEZGzrTQNnbaWqJihpyEcU6C2jnLKjF9MoPyeVTlJLcu/5Oq08fkelSy0byR8m0IKediTl88luWnwT289QfpsOhYWQd2tD5pxW5DnwXYrY9x55STVn89X1jeg3LEnkt5yqJNLF81sxtOrvr1BnJ3OSCvmM7a3JLWAUvff1D6SclKPcqVb55dkUvXgU+TmpdJJaulPP11fS8TtqW+vyMX3a6mrDk+0UKhZR8Pp76llrTK65/X/US2RG4w8orCanvFMraJSPPRkLhSQxd6GAsUvpQNK/qb/UlIZvu686SAdP0rfR7IEdyMZIRFLrDjRswSIa7SCpeTUCgz4f14W84AyteSOQ2jLHiIwdyH/S/1H4KEsS+oTT5aqG6dOi0frWjZGnV3bSnJBOZG8iIpGRDXn2n0KfnMqt1pZNntIJixzJKha1UM2oE/mvJM10oUCfDcqzo2nxKD9yUn4vJUv3nvT6yuNUJRVTQsO5rYFzK6g4/z51FArI473vVDM/1bDK4frsWJtaebbF+gm9cVTbfxqX55S8xFj9o2Kg+I9yVPUSKMvPwtWb91AkE8PatSM6tTWr+YEaBwcHx1+Yyie/IOM3Edp6OsCkOvEV4ptX2+CdZ//Gz4n/hENz7iZycHD8YXipoSxp3R7d+w7AwODe8OEGUhwcHP9D0P19mN7VC2M2/Vz9e6Gy69ux+0wFPHoEoPYTUw4Ojj8vL/XOFAcHB8f/LJX3cHBGMP4e8QAOfr5oK32CrAtXUeI9D5Hxq/GK8v07HBwcfwW4wRQHBwfHS+MZspOjEXf2Fh7KDOHQ5RWMftUfrbVf/cbBwfEnhxtMcXBwcHBwcHA0A+4+MwcHBwcHBwdHM+AGUxwcHBwcHBwczYAbTHFwcHBwcHBwNANuMPW7IEPmgZVYsi4JGitWtDAtfI5nhXhS8yJjvciu7cWyJV8htYlLgfw3kV2OQPiSzTijaz1JjkYiw+WIcCzZfAYKOWWZB7ByyTokNcYpNXyvSccraKT/NpVnhU+qX3vQ5Lr+DrSEj7dM+2S4vv9DLNmQgurVeuqgK5c9Q2FLGlSWiQMrl2BdksZSOFVUPsbpzUvw/vJduPhMva3FqMS9hC+weMkOXChTb2pRWkInHfqXZeHA4kkYGhyEQRO/ZLGW4P8e3GDqd0GGW/Hr8enOMw0kkObScucoO/cxgru8gb2NGBi9uBGDLz+NQNrjP998hhcZ0fj80704/4Sbi9F8XiAj+nN8uvc8FHLKbsVj/ac7cYalU9b2vcYer6Ap/tt4ynDu42B0eWMvqk7TlLr+XrSEj7dM+2S4GbeWyVNn8bDeqtTKZWXn8HFwF7yx90HdgU9Tkd1C/PpPsfNMzTqCVchubMaC9zbirKQTvNUrxrQclfjt9HZ8+tlBXG3pwVSL6VS7L5Hjxtpp+NsnJ5Fv1hZOTjYw414aWQduMPW7IMGInQUov7gcnf8EU6LLbnyHc7ll1YuxcnA0FcmInSgov4jlLB2/tu819ngFv4//luHGd+eQW1ZzlqbUlUMXtfJl2Q18dy4XGlI3H8kI7Cwox8XlnaFtLRmyUq6j1ZvrsSOsK1OTPxEtplPt/qoCt7JuQ+4xFZv2f4Ot/54ID24wVQf+cgb1v1sAxe3B1Vj3oxG6W/6MyK07cOR0Bh5LndHO3kh75PYiD+ejIxBx4ChS0n9Fmbkr3K00XFeWj0txkdh/KAYn07LwgG8LN0dTLceXP7iCuD27EBmbhIu/lMHC1R2aRShgs08VJT9sx8pNaeB19kNbI8UypCqefb8NKzenQ9rNF45i5tqi6CekHN6HyKg4nEi9iOziVmjr3hqGigbKrmP/yo24YuKKooRN2HkiC2W27niR+CnWJsng1c0VxuqiX+SdR3REBA4cTUH6r2Uwr103FhrUwFzxHfkCBwu6YfooM6Tt2o7IY2m49cwcru7WkNY0p0Hti9O2YtXWOKTdegx5eQEKxR3R3UVxeSbHgytx2LMrErFJF/FLmQVTrlV1sqnIOITPo4vQZ+ZU9LZSWVqv9o1qnxpZAS7H7WHqHoukH3NQYeUGV0vGKGoatE0Vz27j1J5vsDf2NH4qs4FraSLWxpYiaPbf0dNctSOrcjRQPOb8cP0Z8Dpp+I7sMiKWb0CaoCv8nYXK2Fif3gqBdvcRs3MHDhw7h1slFnBj7CNhaZ/6kaHgMmOfiAOMfX5EToUV3FwtUaPMC+Sdj0YE8/3RlHT8Wqbwixr7KR7hrF6fjlaBdrgfsxM7DhzDuVslsHBzh7VW5ery7PYp7PlmL2JP/4QyG1eUJq5FbGkQZv+9J0yymHLXJkHm1Q2uSseXIf9SHCL3H0LMyTRkPeDD1s0RpozRdfme7/NjGsfL9WpYv/823H4FsvxLiIvcj0MxJ5GW9QB8Wzc4KipWh2KkbV2FrXFMfD2Wo7ygEOKO/nC8c7CmrpIbOLB6HX406g7LnyOxdccRnM54DKlzO9gbaTtRy+YBNSx8nAlQXGFiaVckE0sXf0GZRcN+Jrt5BF8cLEC36aNglrYL2yOPMTo/U9bXWiPBNBw7MtyI+hyHHwVi+lABErd9g6iUDDwydIKHvbG6j1D1I8p82T4f+1dvRVzaLTyWl6OgUIwB3V2Ue7GJUVnBZSYHMdoyOejHnApYublCmS4Uj/lWr0WSzAvdXI2Vi06rfCQGJ27KYW4kQ1F5y8VIDZX4Lek/2J5mitD5k+Bbv9yNy0HFadi6SpdOlSj6KQWH90UiKu4EUi9mo7hVW7i3NlRpra+/8hXg9Nr/w66E73CjkCnt0W3cN/SFn5Ok0TnyL4/iPVMth3qBxI5B1M/ektr1GUKDujuRkcCK+nx4pnoxSlnOYZrpY0p8I0fy7R9MPT0tSSRypGFrLlCxYofyq7R2UGsSmrlS96CBFOTvRMb8VuS3OFX1PcnpUUo49bURkqF9R+oV1Ic62UpJ7DyCNlx5rtyD3T7ayG5+Qr0kJjRkc83ijESPaO9rFiQOWE2ZMqKyK+soxEHElNmF+r7yCvXtYk9SnpCcJu6lXMVBzw/RRHMxuXt7kq1HIPX186MZUb/VWjhSRjmHZ5KPKZ+MHH2pf3BP8rQUkchxGK25oGqhfg1qo9JeYNeZfBzMydkviDnGmYx5Ymo3LZqq1szVp33hyVU0IdCB+Hx76j5qEi0+fIeR8hGlhPclG6Eh2XfsRUF9OpGtVEzOIzZQlZQlkeOolagHfZylXJJTv/aNbh9T6m9x9K6fGfENHcinbxAFuJmRQOpBUyJzlAtu6rUNQ8XN7TTWRcyc14X8e3WjdpYW5N3FjYQi9SLBDGzKqY12+9WU7KZRhiL1Yrkq+4i7DqXBjhaMffpSP982ZMiTkMfbcVTA0j46kf9Gce/6kRnfkBx8+lJQgBuZCaTkMSWSchTVkeXQ4Zk+ZMo3Ikff/hTc05MsRSJyHLaGqtxNudCtuCsNHexIFs5+1LefL7Ux5JHE422Kq6pcHSro5vax5CIWkpmLP/Xq1o4sLbypi5uQROqFbrUX0C2nq2sHUWuhGbl2D6KBQf7kZMynVn6LKZWphy7f0z5ev4Y6/ZdF+8uvrqVBrZl2uHanoIFB5O9kTPxWfrRYUbE6FNLJVRMo0IFPfPvuNGrSYjp8R65dV/Xirx2D+pG9ZTvqM2QQdXcyIoFVH/rwTHUmfAl5gJ2Pyx+lUHhfGxIa2lPHXkHUp5MtScXONGLDFUZl3SjbJ7Cjzj4OZM74SBBjP2djHonbTaNodYLRHzuqhYQFDp2pi60p4689qUd7xqZCa+q/6hw9VZaisdDug5O0akIgOfD5ZN99FE1afFi5h/7zyOm3uHfJz4xPhg4+1DcogNzMBCT1mEKRiqCovTjvS4uR2lTQ+fc7klAcQlsL1Zt00OgcVKhLpzK6si6EHERM3u7Sl155pS91sZcST+hEE/fmqvo4ff1V2S3aM28C9XcVE9/Sh4aNn0wfHntIpU3IkX91Xspgise3o1c3Va2+X0hp4YFkIval8EuM28rzaNdoKxLYj6T/ZKrDVl5ASfP9yEjciRallVF56r/ITeRJc09Xrd9fTOcW+ZGVxz/o6DPFxwR6x0VIDqO3UIbis4KnF+ij/uZkyAx6rimig80+tZH/SusHGJHRwI3E5EbVpoKdNMrMkPqtyWZS30PaPcachJ6zKfGx6numUDozz5uEkkG0KY85SOmcPBJ2DKNzVefVTA5KCXbRaCsB2Y/8D9VIkETz/YxI3GkRMRLo16AOVdo70Ojtt9Urmj+lb+e0J6FxKG0rYD6y0F5B4dYQEosG0IbfVCIUJ7xDLkKm3C0ZVCPlR9Tf3JACVl9TftYaTLDQvvHte0pHpzmS0GowfXlVfUz5LdocynQILrMpuYyFbeT3aecoCxK2nUC7b6sUkt2Lp1mdJGQgrOpoWJSjA7aDKR7fkcZH/MykOQWPKeEddxIYDaOtjbBPbZ4enUaOQisa/OVVdcyV063Noczg14VmJ5dS3q7RZCWwp5H/yWRqoUBOBUnzyc9ITJ0WpSm3KDsKHp8cx0fQz+rTPGbs7i4womHKytVFfp+JDQshtZ2wm1Ryyuhe/CzqJDEgoa7BVHkq/ctNRJ5zT6vryVj93CLys/Kgf6iNXtv3tI5noyGDdhlyFu0vp9R/uZHIcy7VuOM5WuRnRR7/OFrt89oU0tYQMYkGbCB1VbXrquysecS3e5U2ZagLLUyj8EATEvuGkyoVvoQ8wMrHixnNXEjoMJq21AQoXfioP5kbBtBqnclR3T7GRxxGb1fbmznq2znUXmhMocoEwyZ2VIMpHt+WQtZeZmrCIM+nxHmMj0v8aYWGnasvPgu3UohYRAM2/KYaALA5z9OjNM1RSFaDv6SadLGZQpkLPJfZyVSmNZhi4yM17W9MjNSFzWCqaTmojk4Pd9MYcyF5zk5kokTN0zM0z1tIkkGbSGUO/f2V4nP0G8xFnd9yuqr83MT6/cV5KTfk+B5v4IOpXjBUfjJDj7mzMUh6DfExN4CiU4hOLEKHKUswtYP6HifPGsGL5yPEMAtHDqeDZ2YOU8rB0S8+wY5T15BfbozAj3/Eg5sbMcwIKEs9iJhcW/Qb4oWn177H998zfxky9BjgA6THIi5bzmqfOvAc8drrQRCcPYTou4pf3lWiIPYgkuV9MGFcW/BhimGfpyItdjmCzFWHoNIAtg52EMiLUFhU9bCahzb9Q+DL1FUXRaeikVjUAVOWTEWNBMFYPD8EhllHcDj9hV4N6oNnPxwzJ7pBpPxkgoB+/mj1Ig+5+TJW2telDKkHY5Br2w9DvJ7imkJH5i9D1gMqKePU+9XARvtGt6/8LGIS7sNuzDy83UnlWRC5Y9qWFKQdX4IAMQvbFCchNrkYXm8sxHg3lUJ8+yFYMqufxmNQtjZuGnyHUMwY66J+/GaOPkG+MHqRj7wHjD82yT7lOBuTgPt2YzDv7U7qmBPBfdoWpKQdx5KAMpyKTkRRhylYMrWD+pEFD9bBizE/xBBZRw4rtyjhOyB0xli4qJ8NmvcJYnz4BfLzHqg21KI4KRbJxV54Y+F4qOTkw37IEszqJ1U/NqkFzwzmpoSco1/gkx2ncC2/HMaBH+PHBzexsSGnrkWDGtahiEX7eTAzNwXlHMUXn+zAqWv5KDcOxMc/PsDNjcPAvma14cPjjQ8w1Uvtr2Y9MHf2IEivxSPmhuzl5AE2Pl6WioMxubDtNwReT6+p4vP7DMh6DIAP0hEbl63eUQc8ewyfOVFtbybDBPSDf6sXyMvNZz6xjx2+x5tY+k4XKH/fzbPBgPdnY4DwCuLiflJ+3zD6z1N+NgYJ9+0wZt7bqEkX07AlJQ3HlwRoPP5WwMZH1DQyRppGC+Ug02H4PDUNscuDmChRUWlgCwc7AeRFhagppuH+qi4vN0f+WXkpgymBW3u0VwebEkNnONsAv929A3n+Xdx7zoerh6f2M39jd7RzAO7n3oOg4xysWz0UgpSPMHVQF7Sxdka3EbPxZdIdvGAGOE9ycvCo4i72vtUbgYGB1X/BS1NQWpmP3HsvWOyja/ooD7YjJzIDvx8QFfUr5JV5OHIwFQYDXsdoO4VUApjZmuBJ4md4a8xg9PH1hIO5BbwWpjJdGqGyegoFDxbWVkwq1YUc+Xfv4TnfFR6e2r96MHZvBwfcV9atYQ3qh2dlA2vNEwuETK1lkDHNZaN9HSqfICfnESru7sVbvWt0DAwMxtKUUlTm56p3rIKNfZrQvtJc5D4EHN1cIVRvUiCw84KfZ2tmEKHfNvL7d3CvlAdHFxeN9vNg3s4NNtWRwNbGTcPA0hpWGvbhicQQGBDkcuavKfZBKXJVwsBVWxh4+XmitTgfd+89B9/VA9ruZgx3VaHqzwwGlrDWrhzEAgOQXNcgRY77d+6hlLkAcXHRKJhnjnZuNroTi6Aj5qxbjaGCFHw0dRC6tLGGc7cRmP1lEu40Yqp1QxrWQc6m/QJ0nLMOq4cKkPLRVAzq0gbWzt0wYvaXSGpMxeoggFv79uoLGxWGzs6wwW+4e6f8peQBNj5e+SQHOY8qcHfvW+itEZ+BwUuRUlqJfJ1+poZnBRvtBAMhcyKZIsEw/2YbO/y27eCpKYyJC9oyfcR9RhP96D9PaW4uHsIRbtpBATsvP3i2Vo+uqmDlI2oaFSNNpYVykMAMtiZPkPjZWxgzuA98PR1gbuGFhanlAFUymbqKhvorXbzcHPln5aUMpqjsOZ5rCkrFKC4BjIxbwUAqhcSgEiXPnmkYk0H+DE+ZfSRS5rqASci9wqKQmZeDC3FfY8X03jDO2IV5oa9i5XkZxBIxeMJuWJUpUzym1P6T/YKNwVIW+2hfm1RjGYqJw0xxPioKt3OicfCsBENef1WViCrvIGJybwxdFIV7lv7MFcpSbI6/ittbQrV+yKrAgMfTfXXObJUybTSoLMGzZ9peJ3/2FCVMSVIJc7IGNWggwRsY1HNe5is22teGJ4ZEzIOw2ypkymrpyPzJftmo3rEKHjvtG9s+EVN3JtE9Ly1lwrWGysJsXL6Wg8IX+m1jYGjIXJ1T3faXleNFVaGNsLE2Ct2ZBKVZufIylNfu4FvaPkxXLVUJg1JtYZB9+RpyngiZ75malTyDtrvJ8UxVqPqzAqZu9VWuDgYwNJTCgOr6cVn5Cy0b1cB06r3CEJWZh5wLcfh6xXT0Ns7ArnmheHXl+QYvErRoQMM6GEhZtZ9n3gthUZnIy7mAuK9XYHpvY2TsmofQV1c24506hLLnz7VsScXFTIwbwbgV/6XkATY+zhNLIOYJ0W1VJmS145Nk+GVjsGpHnTTgI42InTp9ROUzlJQyfUQrFu8iYHEeEaOtAM9Rqh0UKMy+jGs5hczlpQYsfURFY2KkiTQ5B2lTeScCk3sPxaKoe7D0D8WMpZsRf/U2toTWLaX+/koHLVS/vxovZTAlu5KC5Ic1Xll6/iROF5iiW69O4Nn5w9eZcDEhHnkajluWfhwpuUJ4+XbEg4SVmDRuOU5V2MMvdBreX7MHibEL4CvPwoXLRTDx9UN7XEd8TJZGUMiRveMdDB+7DMceVLLaRzcmGDRxOKzT47Bt8yH8YMoMrkJU9zIrC+KxK64A3nMjEbdlNRbOnIzhvV1wL/Om8o4ZuxE5D3b+vnCmi0iIz9NIeGVIP56CXKEXfDsL9GrQFPRr31n5WRFYNZjA1689cD0eMVkaKUiejR3vDMfYZcfUG2rQr72s8e2TdIWftwF+OpOK3OqLQDlyds1Ar8AZ2JMRp9c2vNYB6OZGuJx4QuNlgGW4lJpW/W6uptqYJ2E6KHqChw9rrlBLL11CViMuWNnaRxsJuvp5w+CnM0itEQbynF2Y0SsQMyJ58Pd1Bl1MQLx2oTiekguhl696Q2PhoXVAN7jRZSSe0HjxYdklpKbVfXePgsoHCVg5aRyWn6qAvV8opr2/BnsSY7HAV46sC5ehsLq27zUNrTJ4dvrbX/kACSsnYdzyU6iw90PotPexZk8iYhf4Qp51AbrDzQD6qyrDlZRk1KTCUpw/eRoFpt3Qq5PkpeQBNj7OBChUIR0D7ZDegXeGj8WyY017ZNWY2JFdP4NvNfqIku9P4sxDM/gFdFRv0cCAp9VRsTmPpKsfvA1+wpnUXCZLqJHnYNeMXgicsQ/5GnVh5SO/I03uZ7R0qkRB/C7EFXhjbmQctqxeiJmTh6O3yz1k3mQG4Uwh9RWjj5bpB/96ND9z6aDy4RG8O2oOvoo5gaPffIAxk77Cb13/ifdeNWMuGXpi1vxBEB4Pw4i31yIq+TQSIsIxdtJaZLtNQdjEtjC3BW7Ff4JZf1+Nfae+w9nkw/hi5W5kSLpjQG8LCDpPR9hoC1xYMRKvhe/A0eREHFwzHa/N2YYLFc7wsuCx2qc+DPtPxug2P2D9uu9h/epEDFBfLPFMHOFkRciO34r9313F9R8TEbFsHN7cdIv5thzlz3Vfj9dG1HMW5g8S4njYCLy9NgrJpxMQET4Wk9Zmw21KGCY6CfRq0CT0au+k3E1sYgJpZRYSvt6N49eK0Xl6GEZbXMCKka8hfMdRJCcexJrpr2HOtguocPZSHqOJfu2b0D5+e0x5bwzMTodj3KyNiElJQeymdzFp1Vm0njAbr7s767eNyB8zw4ZBfGweXlW0/8QxZp/xmLTuRvWgr6k2FnXtAV9pNiI++AA7E75ldF2GiTMP4JGoESHG0j7a8NF+ynsYY3Ya4eNmYWNMClJiN+HdSatwtvUEzB7vjJ6z5mOQ8DjCRryNtVHJOJ0QgfCxk7A22w1Twiaqy2k8Iv+ZCBsmxrF5ryr9+MSxCCwbPwnrbmj00BrwVEbHJ7P+jtX7TuG7s8k4/MVK7M6QoPuA3lBYXdv3ClUHNhLtMkr0t59nDlvcQvwns/D31ftw6ruzSD78BVbuzoCk+wDoDjcxTEykqMxKwNe7j+OazjeLV+LhkXcxas5XiDlxFN98MAaTvvoNXf/5HlSp8CXkARY+zgQopoeNhsWFFRj5Wjh2HE1G4sE1mP7aHGy7UAFnr6bll8bEDj05ioUTFmL7sWTEf/M+Rk/ejPv+czA31ES9hwZiE5hIK5GV8DV2H7/G6jz89lPw3hgznA4fh1kbY5CSEotN707CqrOtMWH2eCh/tVGNqMViRP5zDD75YAm+PqfngrcyH+nR+7Bvn+bffhz8Lqfp/YyWThkwcXSCFWUjfut+fHf1On5MZOJz3JtQFVOO+orRR0v1g385qEVRzQIQdp5GK/8ZTG5mYpKau1Hvv31GKVq/8H9KV3bOoZBO9mQiEpGRjSf1n/IJncqtmkVSTtnRi2mUnxOZiQUklFqSe8/XaeXxO1Q9V6okk/YvGEm+jmYkFgjJ2NabBs7aSulVs44VsNlHJ+oZFwIPeu879bQVJXLKO7WCRvnYk7FQSBJzFwoYu5QOJP2b+ktNafi2++rZESLyX5lRU9c6syMYnl6hnXNCqJO9CYlERmTj2Z+mfHKKqiVgo4EWOs7B8Dx2CrUWdaGliulDSvRpz7TyYQIt6GlHUj6f7KbFK7eVZO6nBSN9yZGxqUBoTLbeA2nW1vTq113Umc2mV/vGtk9BCWXsnUehnR2YugvJ0KYDDZ67h1STpVjYRskTSt82mwZ2sCEjkZSsOwyjBYtGk4OkaqYT23JqU063D4VRiHdrMhRKycpzIL0bsY/e85JqzearY5/oN8hS5EfLVdNkGPTbRxclGXtpXmhncjARkdDQhjoMnkt7VMIoeXplJ80J6UT2zPciIxvy7D+FPjmVq5oWzqA9a07N82h6w1JEfsuvqjfo4Ek6bZs9kDrYGJFIak0dhi2gRaMdSKLz1QiMStnRtHiUHzkp/UhKlu496fWVx+mO2ui1fU/7eHYa6vJffe1nKkbRi0eRn5PKX6WW7tTz9ZV0vKpidZDTw4QF1NNOSny+HU2Lf65dV+VsMSF1nraS/hnsxvi4lMzdetPfPktRzaKqosXzgAJ9Pq6ghDL3L6CRvo6qco1tyXvgLNraQHLU7SOxNKW1iLosvcR8YBM7qtl8kkHhtG1OkLKPEJs6UcDkzyg1v0qYWnaWP6SEBT3JTsonvt00xQZ2MVqSQXvnhVJnB0ZboSHZdBhMc/eoZ5nXfjUCQ0vESFnybHLhiyhoXa7yc13UfYviGXCdPwOSjIxg9mliDqqtkzyPTq0YRT72xiQUSsjcJYDGLj1ASf/uT1LT4bRN8ToLVv1V7dl8Tc2Rf20MFP9hDNlClCHmb04Yd/0fuPDDn+Nt3xwcHBwtTlkM/uY0Dtf/cQE/1HnLNgcHx1+Nl/KYj4ODg4ODg4PjfwVuMMXBwcHBwcHB0Qxa+DFfJQqufYtLxc7o1dNN9UI2Dg4Ojv81Kgtw7dtLKHbuhZ5uXCbk4Pir08KDKQ4ODg4ODg6O/y24x3wcHBwcHBwcHM2AG0xxcHBwcHBwcDQDbjDFwcHBwcHBwdEMfpfBlOxyBMKXbMYZnW8J/gMiu4yI8CXYfKZpb2CuHxkuR4RjyeYzYCuF7NpeLFvyFVLrXf5GwTMUPql6v7EMmQdWYsm6JI3lJH4vGt++urRQ/WXXsf/DJdiQontpEyWyTBxYuQTrkjSWQ3lWiGopWwBZ5gGsXLIOSToaU/n4NDYveR/Ld11kLPhHoGXsd23vMiz5KhUNuiwLnhU+YUr7H6RF888LXN/0N0z68jLzLxmu7/8QSzak1Cwt0yRaqpz/Jtq+3lCc/rfR2Qc0Mk/Js7ZgyoT/w/cl6g1NoPTOGexcMQuTRg1GcPBQvDZ9Kbaeucf41R+FlshfzUDxA/SXTcnuUWQo0nz77h+ckt00ylCkfnN1S1JCu0cZkkj9dmg21HmzeG2en6WPglxp2MbfSPX+YN1vif59aHz76tJC9df5Zt9a1HoL8vOzH1GQ6zDa+JvmK6qbh863JiupoOurA0hq1oc+Tn+u3vbfpiXsV0KR41qRqMfHVJ/L6uc5nf0oiFyHbaQWNMWfhxbMPxUZn1E/hwG09pbCGKq3j4v8V1JGk22joKXK+W+i7ev1x+l/n9p9QJPylDyXto90IL8lPzDWayzPKWPbZGpvzCOJvS8NGT+Fpv19LAV5mpFAYEV9lqXSY/We/11aIn81He4x35+dshv47lwuyqrnZEowYmcByi9yb6DXi2QEdhaU46L6DdVlN77Dudwy5doOLYVkxE4UlF/E8trGkGUh5XorvLl+B8K6/i+vta6LMtz47hxya5yaoylU5uPAss+R++oiTHPnqze2BCL0XngQsesmwrkli/0vUm+c/gFpUp7iOWDiwsko/2oJtv/SiNXXGYq//QBj/3EAFaFf48ebF3F8/3Zs/eYAkq9fQeTfLPHDR1PwfoKetQj/B+AvZ1D/u+V4dhun9nyDvbGn8VOZDVxLE7E2thRBs/+Onubq8Zv8Aa7E7cGuyFgkXfwFZRaucLdSdyqKxy+r1+FHo+6w/DkSW3ccwemMx5A6t4O9kfb4T/7gCuL27EJkbBIu/lIGC1d31BRzAKvXp6NVoB3ux+zEjgPHcO5WCSzc3GEtMVDtpOQZbp/ag2/2xuL0T2WwcS1F4tpYlAbNxpSe5up95HhwJQ57dkUiNukifimzgKu7FTN0aZhnt09hzzd7EXv6J5TZuKI0cS1iS4Mw++89USNF/W2oyDiEz6OL0GfmVPS2qjX2LU7D1lVbEZd2C4/l5SgoFGNAd0dkHliNtUkyeHVzheQGo8G6H2HU3RI/R27FjiOnkfFYCud29tCW8gXyzkcjIuIAjqak49cy89+lfXWR4eaRL3CwoBumjzJD2q7tiDyWhlvPFPWxhrTabJUo+ikFh/dFIiruBFIvZqO4VVu4tzZUPbuW3UDU54fxKHA6hgoSse2bKKRkPIKhkwfsjdUVU/rZWiTJvNA+fz9Wb41D2q3HkJcXoFDcEd1djJnTFOGnlMPYFxmFuBOpuJhdjFZt3dHaUFM8GQouM77BaBeb9CNyKqzg5moJseIbhQ+uTYLMqxtcjdWVf5GH8zEncFNuDiNZEcrNNXyfKUthv/XprRBodx8xO3fgwLFzuFViATem/VpuW8WLq9i7ch0Sil3Rw9O85tn9i2vM9vU4Y9AF3doaqjdq0/L2q0DGoc8RXdQHM6f2htJlWWlYRTHStq7C1jjG5o/lKC8ohLijP1yU2jUUgyrdNlw2Q0Dru4j+5hscPJmOPLEzOrQxQcWdM9i3bSeikq6hsJU7PG2lUJSotE8LxIfs+n6s3HgFJq5FSNi0EyeyymDb3h0WIj1+qoRF/mmUhipkGV9g+sKfMfzLf2Oog2I/GW5EfY7DjwIxfagAidu+QVRKBh4ZOsHD3ljrNx+VRT8h5fA+REbF4UTqRWQXt0Jb99ZQnU6OX1P24Fi2GXz9XWCkELIJ9auN0hYbLsMsoDXuRn+Dbw6eRHqeGM4d2sCk4g7O7NuGnVFJuFbYCu6ethq5gJ2PNuTrJll147RhDeqjKXm0YR/R7AO63NqOVU3MUwI7exRGL8HX+cGYMciJ3RJHlTnY+tZ07HkxCbvil6FXK/V2BTxTdOjdGrcPJyLbPBAT+jvgxt4Psf4MD5382qr8gkHxM5/lG9Ig6OoLZ7XRGtaWfQ5kk79e5J1HdEQEDhxNQfqvZTBvMH81A/Udqhaj4uZ2GusiJqGZC/n36kbtLC3Iu4sbCTUe88kfpVB4XxsSGtpTx15B1KeTLUnFzjRiwxXVLUj145eOQf3I3rId9RkyiLo7GZHAqg99eKZqIU45PUoJp742QjK070i9gvpQJ1spiZ1H0IYrqhuZylu34q40dLAjWTj7Ud9+vtTGkEcSj7cprkB9i7TiJm0f60JioRm5+Peibu0sycK7C7kJNW6zyx9RSnhfshEakn3HXhTUpxPZSsXkPGIDqU+lgwq6uX0suYiFZObiT726tSNLC2/q4ibUuA2pvw0NPuYrPEmrJgSSA59P9t1H0aTFh5mN2o/JVLevO1JQP3uybNeHhgzqTk5GArLq8yFVSynLocMzfciUb0SOvv0puKcnWYpE5DhsDV0oVu9Th5ZpX11U9RfYdSYfB3Ny9guiIH9nMuaJqd20aFKszUlURlfWhZCDiLFHl770yit9qYu9lHhCJ5q4N1f1uFP5mE9ADp27kK2pA/n07EHtrRm/tO5Pq849VeyhEKf6Md+Dk6toQqAD8fn21H3UJFp8+A5zmiu0LsSBRIyfdun7Cr3StwvZS3kkdJpIe3PV/iP/jeLe9SMzviE5+PSloAA3MhNIyWNKJOUwGtR+fCDLOUwzfUyJb+RIvv2DqaenJYlEjjRszQVSSa1qv7jrUBrsaMG0vy/1821DhjwJebwdR1Vuq4X8Hv1nqAmJ/D5UL0SqoiThbXJibP/+eV2PLl6W/Wo95mOjoRaFdHLVBAp04BPfvjuNmrSYDt9h9tMbgyrdDLsOouA21tQuMIh6eZiTQOhME8LDqK+DHXn16kd+jkbEM/Sh98+q6t9S8fH80EQyF7uTt6cteQT2JT+/GRT1mIWfssk/jdZQgWpBXXG7uXSmeq121eM5gUNn6mJryvhrT+rRnvE1oTX1X3WO1FHBnG4dhTiIGJt3ob6vvEJ9u9iTlCckp4l7SXW6Wo/5mlS/uihtYdiVBgW3Iet2gRTUy4PMBUJynhBOYX0dyM6rF/XzcyQjniH5vH9WfRQbH9Xv67XjVL8GOmhSHtXvI5p9QGFT85SSCrq0tAujzUw6VabepI+CrTTMiE+Ob59kaqoP3Y/4a//Mh41/6c+BbPKXjHIOzyQfUz4ZOfpS/+Ce5GkpIpHjMFpTv0GaTMsOpuT3aecoCxK2nUC7b6siWHYvnmZ1kpCBsErMYkp4x4WEDqNpS8Yz5T6KlfIvfNSfzA0DaPU15QiA6eR4xLd7lTZVrXxfmEbhgSYk9g2nSwp/L06gd1yE5DB6C9UUc4E+6m9OhgGrSVUMEyA8xhHGR9DPak94nPAOuQuMaNjWAuaTnO7vHEUWwrY0YfdtUtZYdo/iZ3UiiYGwOpkVM8e4CB1o9JYMqjnVR9Tf3JACVl9Tb9FGfn8njbIQUtsJu0klhYzuxc+iThIDElYZm0Ub9P5mqnArhYhFNGCD7t9MVWlg9+omqpEynAJNxOQbrl7pfddoshLY08j/ZDJHK5BTQdJ88jMSU6dFacottWmp9tVFVX8en9F7u9omjH98O6c9CY1DaZvCbA930xhzIXnOTqx5Vv/0DM3zFpJk0CbVqvzKwRTjQ7YhtPayKnDk+Yk0z8+IJP4rVL/HqvWbqcKtISQWDaAN6t8iPNw9hsyFnjQ7seYXAU/PzCNvoYQGbcpTfT46jRyFVjT4y6tMKlFQTrc2hzKdvgvNTi7TTtLyPNo12ooE9iPpP5nqRC8voKT5fmQk7kSL0hROWtV+Rxof8bM6gT1mYsadBEbDSOm2dWDstWsUU1cfClcGh4JiipvqQOLqld61eXn2006obDSsSyFtDRGTaMCG6t9M6Y/BKt3a0LjdvyrtScWJNMtNQAZiH5qX8lAZH/KC/TS+tZBcZiUr9mix+FAOppgOoWPYuer66fdTdvmnSRrKbtK/A0XUasxe9SBdgWoQxOPbUsjay6rt8nxKnMf4n8SfViiD4iHtHmNOQs/ZVHO6p3RmnjcJJYNokyq4tAZTTbNxXaps0WbcbvpVZUBKnOVGAgMx+cxLoYcqA9L+8a1J6DJLsQMrH2Xj61pxykqD2jQtj+r3kbp9QFPyVBXP46eRnagTfXBBKbBeKn5YRN4CEQWtvaOMn4ZhM5hi51/6ciAbm8rzdtFoKwHZj/wP1aTbJJrP9AHiTotImW5bkAZvWDaa4iTEJhfD642FGO8mUm7i2w/Bkln9am7JlqXiYEwubPsNgdfTa/j++++ZvwzIegyAD9IRG5et3pEPjzc+wFQv9eMJsx6YO3sQpNfiEXNDxhRzEDG5tug3xAtPrynKYP4yZOgxwAdIj0Vctvq5MN8BoTPGwkXxzIXBvE8QfI1eID/vAfOpGEmxySj2egMLx7tBWWO+PYYsmYV+NRVG6sEY5Nr2wxCvp7imrO/3yJD1gOpUcer9tClOikVysRfeWDgeKin4sB+yBLP6qR4vKGDdhubC98AbH0xFjZRzMXuQFNfiY5hPRTgVnYiiDlOwZGoH9e1oHqyDF2N+iCGyjhxWbqnNy24fz344Zk5U2wQmCOjnj1Yv8pCbLwNMh+Hz1DTELg9C1UPYSgNbONgJIC8qRFH1jwkYH3pzKd7polrOg2czAO/PHgDhlTjE/aRfW9NhnyM1LRbLg6rPAgNbB9gJ5CgqVPxGoBxnYxJw324M5r3dCSp5RXCftgUpacexJEDtdFUUnUJ0YhE6TFmCqR3U95l51ghePB8hhlk4cjhdtY2B7xCKGWNdlI8KGa9FnyBfGL3IR94DXfVm7DX8dQwxy0D0wctQTvJhznUg/jF8x46Hl477+b+Xf+rXkA3sY5BnOxRTXnNWPcIw9oWPBx+CzmMwtY+l8pEJz8IHXVwMUPjokWIPFS0VH7w26B/C2En9Ub+fssk/TdSw4gYybxPauLuqY6gGvsebWPpOF9VyXzwbDHh/NgYIryAu7idmgymGfZ6KtNjlqDmdAWwd7CCQF6GwJriqaRkbq+HZYuiU1+CsMiB8fTzAF3TGmKl9YKkyIHy6uMCgUGU/Nj7Kxte1abwGTc2j+n1EvbEBGqO/0N0dzvQzbmSVqbc0TKWsAhWMSkKxRBk/zYe9tg3lQDY2LToVjcSiDpiyZCpq0m0wFs8PgWHWERxOb9l5iC06mJLfv4N7pTw4urhoPI/lwbydG2zUZ6p8koOcRxW4u/ct9A4MRGDVX/BSpJRWIj/3nmpHpgS39u21EoGhszNs8Bvu3nmBJzk5eFRxF3vf6l1TBvMXvDQFpZX5yL2nnjdqYAlrK41fSfJEEAsMQHKmI5Dfx517peA5usBFo8PhmbeDW02FkZPzCBV39+Kt3hr1DQzG0pRSVObnqvbTQo77d+6hlOcIF+2C0c7NRi16Jfs2NBeBG9q311ISzs42wG93marm4+695+C7esBTo6qKRObezgG4/99pH8/KBtaaP24VCBmPkEGmOERgBluTJ0j87C2MGdwHvp4OMLfwwsLUcoAqmTNXwUfbdp5aPmTi0pbxoftMm/VrKzCzhcmTRHz21hgM7uMLTwdzWHgthOo0irOUIjf3IeDoBleh6hglAjt4+Xmida2fKcnz7+Lecz5cPTy1f69g7A6V1FW+r3Bba2i7rRgCA4JcXk92NRuKicNtcDP6IC4yOaIwIRLHnwVg3Lh2jAq1+f38U7+GLGhEDBpY2cK2usE88Jl/G5iYway61xRAoPhecxWtlooPpqPXyjX6/JRN/mFokoblj/H4KePvpmZ17M9v2w6e2kGBtkxz799V+J8AZrYmeJL4Gd4aMxh9fD3hYG4Br4WpzKUDQdfpWsTGVRhYwbbGgOCpDAizGgNCoDIg88fGR8tZ+HptGq9B0/IoA+tcVj+N0Z9vaQEzXgWePGb32g2+rS1sDCrxMC9PdZHWbNhrW38OlLGwqRz5jD8/57vCQ9sgTLptBwemD2ix/lWNbl9qIgaGhpAyjS159kzbCcrK8UKdu3jMCFfME6LbqkzIVI8ZNf5k+GVjsGpHRtiy58+1yqHiYpQw133GrQQQS8TgCbthVaasVhnMn+wXbAxWjWeZWsFA9+WHosIwZK4AqeQZnmlXGOU1FYZEzIOw2ypkymqdh/mT/bJRtZ8WBjA0ZEbIVIJn2gUzUrxQpgGF9Ozb0EyoDM+faymJ4uISwIi5NjWQQioxQGUdDeR49pTZRyJVf9bkd2gfY7T6zFZ5JwKTew/Foqh7sPRnrl6Wbkb81dvYEqq+/Kimrg9VPithhkBGaFX1Y/B6qcSdiMnoPXQRou5Zwj90BpZujsfV21tQcxoRox0TqM9LUap2FyWVhci+fA05hdrBaiCVQsIkpjrxIX8GldQa9W+g/boxxiuTRsAhOwaHfryPYwdOorz3eIzVOd3q9/JPNhqyoBExaMDnNT6ptVh8GIDHq7GaXj9lk3+aqiEzCOEzVVHoUxsqew6t5lY+Q0kp09xWih8y30HE5N4YuigK9yz9ETpjKTbHX8XtLaH1/Ii6hWxchQGf0VD9b72w8VEJC1+vRaM1YGhSHlWcim0uq4/G6V8pkzP9LqMcX3uAUR/8Nj3QzYVw89xZ5GvLp0L+C9YNc4Pv33dAeaNa0dkyIyJNXcuZ/r/6GrAx2tabA9nkLwNImXxqUFl3H/mzp8w4QsLYq0WHP43POw3Bax2Abm6Ey4knNF64WIZLqWk1L3cz8YVfe+B6fAyyNPoaefYOvDN8LJYdUzx+UyDDlZRkPKwupxTnT55GgWk39OokYorxQ3tcR3xMlsaIWY7sHe9g+NhlOMbmjYG81gjo5ga6nIgTGi9rK7uUirSaCsNXVWHEaFcYO94ZjrHLjqk3aMJD64BucKPLSDyh8ULIsktITat5iWSLtMGARechu4KU5Ic19Sg9j5OnC2DarRdTVTv4+zqDLiYgPk/jfGXpOJ6SC6GXr3qDJr9j++pQiYL4XYgr8MbcyDhsWb0QMycPR2+Xe8i8+UIZyDWlynD9zLcaPlSC70+ewUMzPwR01Lw0V2GgmcUrCxC/Kw4F3nMRGbcFqxfOxOThveFyLxOq0ygKlaCrnzcMfjqD1NyaR17ynF2Y0SsQM/blq7eo4Nn5w9eZcDEhHtpSH0dKrhBevp3VW5qGpPckjHb5FQmRGxH1LSFo/CjY6XSO38l+rDTUhWJQov6nkqbEYCNo8fhQwMJP2eSfpmootIOtFfC4oICxmDay62fwbU1QoOT7kzjz0Ax+AR2Z08VjV1wBvOdGIm7LaiycORnDe7vgXuZNvGDaVOd0TbZxy6DfR8HK1zVptAYKmuQnjcllNTQ+T9VQmX8fj8gYtnam6i16EPXApPEdUZG6Hv+XUvdu1pNvv8CmU3dRatUObZgLGQkzuKUnD/Gw2ulKcelSVrUPNknbOrDJXzzY+fvCmS4iIT5PQ8cypB9PQa7QC76d6/YBzUFvP9woRP6YGTYM4mPz8OrbaxF14hgilo3HpHU3ahxd0BnTw0bD4sIKjHwtHDuOJiPx4BpMf20Otl2ogLOXhXrHSjw88i5GzfkKMSeO4psPxmDSV7+h6z/fw6tmimKmI2y0BS6sGInXwnfgaHIiDq6ZjtfmbMOFCmd4WbBpmgj+M8MwTHwM8159G2ujTuBYxDKMn7QON2oqjM7TwzDa4gJWjHwN4TuOIjnxINZMfw1ztl1AhbOXej9tRP4zETZMjGPzXsXba6Nw4lgElo2fhHU1BbdMG8QmMJFWIivha+w+fk29sRaVD3Hk3VGY81UMThz9Bh+MmYSvfuuKf773KvOlCD1nzccg4XGEjVBokIzTCREIHzsJa7PdMCVsoqqMWvxu7asDDyaOTrCibMRv3Y/vrl7Hj4nMuce9iU23mK/Ly/G8+rKI8OToQkxYuB3HkuPxzfujMXnzffjPmYtQE/UuGohNTCCtzELC17txPEMGRycrUHY8tu7/Dlev/4hExjfGvbkJqtM8Z/7LR/sp72GM2WmEj5uFjTEpSIndhHcnrcLZ1hMwe7ydstxqRD0xa/4gCI+HYYQiPpJPIyEiHGMnrUW22xSETXRS79hERN0xaWx73Nz2JU7yXsGEEa3rDfDfxX48ExYa6kIMExMpKrMS8PXu47hWyGtSDLLmJcQHOz9lkX+aqqGwE3y8BMi9kVnnbdD05CgWTliI7ceSEf/N+xg9eTPu+8/BXCYoeCaOcLIiZMdvxf7vruL6j4lMDh+HN1WVRnlNcKlgWz/5TRz+6AMs2X5e9bmFYOOjbHxdk0ZroKQpftKYXFZD4/NUDc8zb+AXnhe6+ijuKsvxc8wn+GDJ1zhX70/bBPCb+xlmeeZg42vBmPxRJM5k5uC3X68g4auZGDrhK/zs/Cb+HRbIRK0IXXv4QpodgQ8+2ImEbxMY3SZi5oFHEKlTRdO0rQsbm4p6zsL8QUIcDxuh3Cf5NFOf8LGYtDYbblPCMNGpKf1PA1CL84TSt82mgR1syEgkJesOw2jBotHkINF8A3oJZe5fQCN9HclMLCChsS15D5xFW9PVc5GVs6yE1HnaSvpnsBuzj5TM3XrT3z5LUc3UqqIkk/YvGEm+jmYkFgjJ2NabBs7aSjXFaM7QUPM8mt6wFJHf8qvqDUyN07fR7IEdyMZIRFLrDjRswSIa7SAhzTcQl2TupwUjfcnRTEwCoTHZeg+kWVvTmdY2wJN02jZ7IHWwMSKR1Jo6DFtAi0Y7kKRqtpQCPW3QO5tP/pASFvQkOymf+HbTmA06ZvMJO9O0lf+kYDfmHFJzcuv9N/osJU9rdsbTKztpTkgnsjcRkcjIhjz7T6FPTuWqZkXVRwu0ry7a9a/ieewUai3qQksVs9XkeXRqxSjysTcmoVBC5i4BNHbpAUr6d3+Smg6nbYr3Jyhn80loUPg2mhOk8CExmToF0OTPUim/quG1ZvPJHybQgp52JOXzyW5aPHOaU7RilA/ZGwtJKDEnl4CxtPRAEv27v5RMh29TlcFQkrGX5oV2JgdGO6GhDXUYPJf2qKeG1fXBp3Rl5xwK6WRPJiIRGdl4Uv8pn9Cp3Krv62l/9BtkKfKj5bqm5mkgy1hN3UU8aj35cMO+qeCl2E97Rg9bDbWR08OEBdTTTkp8vh1Ni1dNxWk4BnXp9oS2h4pJFLye7lXZXHab/q+XiMzGH1B+bKn4UM7mE/nTSs1XgrPxUwZ9+adpGsooe00/MrSaSAer3nnAaKSYhScZFE7b5gSRG6Oj2NSJAiZ/RqnVQSGnvFMraJSPPRkLhSQxd6GAsUvpQNK/qb/UlIZvu8/soz2bj1X9yo7RdAc+iYdsUX3Wga58/WR7KIlFwbS+xoB0+/96kchsvPozAxsf1ePr2udmo4FuGp1HWfhI7T6gqXlK8RqGUzOdlbOZVTNxyyh5tgvxRUG0Ts8rLGT3TtLK0Z3IQmigGO0o/wz4JuQ+ZCFFZavmXCspv02HwkLIu7UhCaVW5DnwXYrY9x55Sav6f3b+xSoHsslfT6/Qzjkh1MnehEQiI7Lx7E9TPjlF1em2BTFQ/Ec5qvojURaDvzmNw/V/XMAP6rdTczSNspi/wWncdfzjwg9/irf7cjQP+U//h34+G9Dh8A18PbR6XhlHPfyV46Pyt+0Y2WkxWm3Jwu4xLB/rsKIUhyY6YFL2fFw+txgddP0sTwcvvl+I3l/64Pz+19VbOH5XShPxD+8xyJp7Caf+5apjYop+XjzKxrUbOSiskKC1Rxd4Oxi18OOtPy+cDhwcfxme4Ydte5DuOBZ/D+YGUv/r8OwnYP6bZkjYFom7rH6LwpLKZ3j06DlgbApTtrMk5L/g0IZz6DA6SL2B4/elEg9iv0a0wTjM/1vTBlIKRJZu8OsdjFeCeqITN5DSgtOCg+NPjxy/bBoLLzc3vPLFQ4QsnoPAFpoIyvFnxhC931+FkJvrsfZcqXpb83jxw2cYN2AglqXw0aV/n+pX3uiF74BXPo3CtnG26g0cvysvrmLj52kIDF+KIS15k5Kjmj/mY77KAlz79hKKnXuhp5vqhYscTaOy4Bq+vVQM5149wUn51+XFjWh8eSADJt3G4c0Qj5oXR3I0yF8/PirxIHULtuX3xXvjvNDc+UvlmdFYf/AK5M6v4I3JvWHP/XLgT4H85xisiRNj4j+HQLlMI0eL88ccTHFwcHBwcHBw/EngxqgcHBwcHBwcHM2AG0xxcHBwcHBwcDQDbjDFoUaGzAMrsWRdksbb6zn+8sgycWDlEqxL0niTcBOQXd+PD5dsQEr1ygG10e1fzwqfaLy5urk05MOVeHx6M5a8vxy7Lj5Tb2tJZLgcEY4lm8/UeUlmvciuY/+HS7AhRfebuJtMC9n05SHDtb3LsOSrVDRpEQQNGuc/TTtvWdYBLJ40FMFBgzDxS+2XjlY+Po3NS97H8l0X0Siv+sPbqCk8Q+GTlovmPxvcYIpDjQy34tfj051napb+4fjrI7uF+PWfYueZ5nXosptxWPvpTpx9WN9PMGv7VxnOfRyMLm/sbXaHWkMDPiy7gc0L3sPGsxJ08n4ZvzR/gYzoz/Hp3vN4wvZXqLKbiFvLaH/2oe414ppKC9n05fECN2K+xKcRaXjc5IY3xX+acF75Dayd9jd8cjIfZm2d4GRjpv5CgQw3Ni/AexvPQtLJG43yqj+8jRpJ2Tl8HNwFb+x98BcaHDYObjDFoUaCETsLUH5xObh3e3K0PLX9qww3vjuH3LKWHEbU78OyrBRcb/Um1u8IQ9emLMDL8QfjZfiPDipuIeu2HB5TN2H/N1vx74ke6i8YZFlIud4Kb67fgbDGOpVkBHYWlOPiX+Wl1GU38N25XLxsc/yR4S9nUP+7BVDcRv0Q68/w0MmvLYzUL3STXY7A8g1pEHT1hbNUjswDq7E+vRUC7e4jZucOHDh2DrdKLODmbg1J9UvgKlH0UwoO74tEVNwJpF7MRnGrtnBvbVjPCFBxi3811v1ohO6WPyNy6w4cOZ2Bx1JntLOv9XIx+QNciduDXZGxSLr4C8osXOFupQ4Gxa33lRtxxcQVRQmbsPNEFsps28Pdgof8S3GI3H8IMSfTkPWAD1s3R5hqRsKLPJyPjkDEgaNISf8VZeYa5arrp7/dTMuLfkLK4X2IjIrDidSLyC5uhbburWHY4NC3BNlJe/HNnhikZpXAyk2E8199jmR5V/g7SyG7thcfrj8DXic/tK0xDCKWb0CaQLGPUFm/tUkyeHVzhbF6F/mDK4jbswuRsUm4+EsZLFzdUdOk+rQSNayxDhSPiVZuvAIT1yIkbNqJE1llsG3vDlVRDdSBQZZ/CXGR+3Eo5iTSsh6Ab+sGRy3DyPHgShz27IpEbNJF/FJmAVd3K6brVVH33E9w//we7LnAQ2cNP1bcxv5+20psTpeim68jxPp8tCF9NNBvG8Z+mQewen06WgXa4X7MTuw4cAznbpXAws0d1trOg59SDmNfZBTiTqTiYnYxWrV1R+v6nEd2E0e+OIiCbtMxyiwNu7ZH4ljaLTxT+K61tGbVdj3lym5E4fPDjxA4fSgEidvwTVQKMh4ZwsnDHsYqMTT8yxrXtq3C1rg03HosR3lBIcQd/eHCOB0r35cV4DLjWxEHGN/6MQcVVm5wtVS8WEvzHDU+/CLvPGJO3ITc3AiyonKYa/gPa1118Oz2Kez5Zi9iT/+EMhtXlCauRWxpEGb/vSfM1fVtOH5uIOrzw3gUOB1DBYnY9k0UUjIewdDJA/Yq0dQ07L91YGtTljlWVnCZaUMEDjBt+DGngsktrlDKraahNuqOa2fkxXyO6KI+mDm1N6yUJ3uBvPPRiIg4gKMp6fi1zLyBNhYjbatu/2lYqwpkHKp93vrrL79zDF/+3y4kfHcDhYxWj27fh6GvH5wUhSlyfcwJ3JSbw0hWhPLG5nrFY77Va5Ek80I3V2O1TWQouMzUndEgNulH5FRYwc3VkskzavTFoMKXN1yGWUBr3I3+Bt8cPIn0PDGcO7SBScUdnNm3DTujknCtsBXcPW0h1XDvBm2oL0aK07B11VbEMT72WF6OgkIxBnR3UR6rL3f/pVC8GqHl0F6Xq4qS3aPIUFS1No9q3R1x16E02NGCnP36Uj/fNmTIk5DH23FUoFwiqIyurAshB5Eh2XfpS6+80pe62EuJJ3SiiXtztdbMqkG9nk/HIOpnb0nt+gyhQd2dyEhgRX0+PFO9Tpn8UQqF97UhoaE9dewVRH062ZJU7EwjNlxhSmBQrukmJndvT7L1CKS+fn40I+o+XV07iFoLzci1exANDPInJ2M+tfJbTKnFymJJlnOYZvqYEt/IkXz7B1NPT0sSiRxp2JoLpNqFTbuZll9ZRyEOIjK070J9X3mF+naxJylPSE4T91K9yydV3KZdE91JKrKhjsEhNMDHniy9gyhQY30vnWv8leymUYYi9T6110OS06OUcOprI2Tq0pF6BfWhTrZSEjuPoA1XVGul6dbqsX6NdaBc20zsTt6etuQR2Jf8/GZQ1GP9dSi/upYGtRaSmWt3ChoYRP5OxsRv5UeLqwwjf0Qp4X3JRsj4UsdeFNSnE9lKxeQ8YgPVNKP2uafRhmW9SGIyhDZXrwnG8GgvvWYhpoDVmSRj46P16FMb/bZhilKsHSbuSkMHO5KFsx/17edLbQx5JPF4m+JqnIfWhTiQiNG9S99X6JW+XcheyiOh00TaW5/zKNcnFJBdZx9yMHcmvyBGQ2dj4onb0bTo+6p2sChXqaHAgTp3sSVTBx/q2aM9U18hWfdfReeUa8Np+lchnVw1gfFPPvHtu9OoSYvp8B05K9+X/xZH7/qZEd/QgXz6BlGAmxkJpB40JTKHsUltH5ZRzuGZ5GPKJyNHX+of3JM8LUUkchxGay6oo5KNrnWooJvbx5IL0z4zF3/q1a0dWVp4Uxc3IYmq1wVjGz8CcujchWxNmfb07EHtrcUktO5Pq1SisfLfOrCxKascK6ff4t4lPzM+GTI27RsUQG5mApJ6TKHIHEUj9bdRd1zX6idkOXR4pg+Z8o3I0bc/Bff0JEuRiByHrSG1mWqh23/0a1W7f2q4/rJbe2jehP7kKuaTpc8wGj/5Qzr2UN4yub7WuqCMY1Pcu35kxjckB5++FBTgRmYCKXlMiSSl1GxiUOHLhl1pUHAbsm4XSEG9PJiYFJLzhHAK6+tAdl69qJ+fIxnxDMnn/bPKY1jZUF+MFJ6kVRMCyYHPJ/vuo2jS4sOsyv2r8V8bTPH4jjQ+4mcmpBU8poR33ElgNIy2FjAfH+6mMeZC8pydyHyj5ukZmuctJMmgTdqLHVdTVa4dvbopg6mJgkJKCw8kE7EvhSsWyGVcPeEdFxI6jKYtGc+UeygWnr3wUX8yNwyg1YrVH5UJjnHSjmF0rmqX8lT6l5uIPOeeVpfLlHRuEflZedA/jjI7yfNo12grEtiPpP9kqh1FXkBJ8/3ISNyJFqUpWsmi3fSQdo8xJ6HnbEqsaTidmedNQskg2qSz4XLK3z2GrISu9LdDd9SBeZ8S/tWZJAbCpg+mihPoHRchOYzeQjVSXaCP+puTYcBq1UKZurRio7EOlEmX6Tg7hp2jmqL01aGcUv/lRiLPuXS6xjC0yM+KPP5xVFlOccI75CJ0oNFbMqrLfXrhI+pvbsgMiq4pP+s6t/zX9TTAyIgGbrzDKKzcQgU7R5GZYT9ak81oyMZHdepTF9aDKR6fHMdH0M8q56HHTNvcBUY0TOU8TJXGkLnQk2bXOA9TpXnkLZTQoE156i21UCZ1HvEZe22/rV6w9Om3NKe9kIxDt5EqHPWXq9KQT7Yha+myskdh/DJxHvkZSch/xRXFHtr+xcTm1hAxiQZsoN+UArPx/ad0dJojCa0G05dX1QYvv0WbQ5mBu8tsSi7TPoc8bxeNthKQ/cj/UE1YJtF8PyMSd1pEirBko2tt5Pd30igLIbWdsJtUksnoXvws6iQxIGHVYKoR8cO3DaG1KtFInp9I85j6KRajVbSBjf/WgYVNWfnv06M0zVFIVoO/pBq5N1Mo00G6zE6mMhZt1BnXWv2EnPJ2jSYrgT2N/E8m4yUKmFhLms/4jpg6LUpTbqlLbf9ho1Wt/omVjWoWxld8bLFcX2sw9fToNHIUWtHgL6+q+5hyurU5lBkYutDs5DJ2Maj25TbjdtOvysoWU+IsNxIYiMlnXgox40BlXfePb83EyyzFDqw0YBUjhVspRCyiARt+U+VLNtr+xdC8m/u7wncIxYyxLupbmOboE+QLoxf5yHsgB0yH4fPUNMQuD2K+UVFpYAsHOwHkRYUoauC5LN/jDXww1QuGyk9m6DF3NgZJryE+5gZQloqDMbmw7TcEXk+v4fvvv2f+MiDrMQA+SEdsXLbyKMVPydr0D4Fv1WukeWYwNyXkHP0Cn+w4hWv55TAO/Bg/PriJjcOYnYpOITqxCB2mLMHUDup7mDxrBC+ejxDDLBw5nK7axtBgu2GKYZ+nIi12OYJqGg5bBzsI5EUo1NnwEiQfSUJRh4n45whH1fN3XmsM/OCfCDbUuI/bSMpSDyIm1xb9hnjh6TWFTsxfhgw9BvgA6bGIy1bUV0EtrVhrrANeG/QPYfRQf9RfB4KZuSko5yi++GQHTl3LR7lxID7+8QFubhzGlFOG1IMxyLXthyFeT3FNWZfvkSHrAVURceozMdQ6N8/xNbweJMDZQ9Gqdc0qCxB7MBnyPhMwri2/ET5aS5/mwHdA6IyxcFHf9zfvE8SU+wL5eQ+Un02HfY7UtFgsr3EeGNg6wE4gR1FhkXqbLniwHz4TE93Ujx9NAtDPvxVe5OUiX9aIcvkeeHPpO+ii/CUuDzYD3sfsAUJcidPQuV5Y+H75WcQk3IfdmHl4u5MqwiFyx7QtKUg7vgQBGo+eFBSdikZiUQdMWTIVNWEZjMXzQ2CYdQSH01+oNurRtTbFSbFILvbCGwvHQyUZH/ZDlmBWv5pHaOzjhw+PN5fiHZVo4NkMwPuzB0B4JQ5xP5Ww9986NGxTNv5bfjYGCfftMGbe26iRexq2pKTh+JIAENs21ootbYpwKjqRyV9TsGRqB/XjOB6sgxdjfoghso4cVm7RTyNiXQ17G2nQYrlek3KcjUnAfbsxmPd2J3XfJYL7tC1ISTuOJYxjs45Bni2GTnkNzsqOwBi+Ph7gCzpjzNQ+sFT09jwL+HRxgUHhI8UO7DVoZIw0Sds/Of+1wZSBpTWsNFZb5InEEBgQ5HImigVmsDV5gsTP3sKYwX3g6+kAcwsvLEwtB6iScaP6Ebi1R3vNn6QYOsPZBvjt7h1UPslBzqMK3N37FnoHBiKw6i94KVJKK5Gfe099EA8W1lY1i0EKOmLOutUYKkjBR1MHoUsbazh3G4HZXybhDpOP5fl3ce85H64ento/JjR2RzsH4H51uXrazRxtZmuCJ4mf4a0xg9HH1xMO5hbwWpjKhBuhUlfD5Q+Qm1cCnr0T2mqcnGfuAXfbpi5nWYknOTl4VHEXe9/qXaMT8xe8NAWllfnIvVc1BVZbK/Ya64AJdOtqcdjUAeg4Zx1WDxUg5aOpGNSlDaydu2HE7C+RpDBM5RPk5DxCxd29eKu3Rl0Cg7E0pRSV+bnqczFonZuBSUojJw6C9IcoRP0qR2XeERxMNcCA10fDThE1rH20li81BwPLWnUUQSwwAMlViUlgZguTJ4n47K0xGNzHF54O5rDwWghVlRqKGh6sbKy16igQMs4kk0FhZdbl8tuinadm8JnApS0TfPfvqj83BAvfL81F7kPA0c0VQtVBSgR2XvDzbK3uhKqQI//uPTznu8LDUysqmbBsBwfcr/FhPbpqI8f9O/dQynOEi4tWwKGdm406oTYmfvho285Ta5kXE5e2sGHqd/fuQ/b+W4eGbcrGf0tzc/EQjnBz1VIbdl5+8GwtYd/G2rGliTwfd+89B9/VA9pmMoa7KnmqP+uhMbGupDE2qqHlcr0mpchVOTa0pbaDl58nWjOOzToGDaxgq5H3eXzm3wYmMDOrubAWCBTfK+rQCA0aFSNN0/bPTssPpgwYozHG1XSX8rJy1PEfZr/67ptU3onA5N5DsSjqHiz9mdH90s2Iv3obW0L1/3KNyp7juWa/QcUoLgGMjFuBJ5ZAzBOi26pMyFSPODX+ZPhlY7D6IKZ6PJ5G/Xgw7xWGqMw85FyIw9crpqO3cQZ2zQvFqyvPo0IqhcSgEiXPnimTUDXyZ3jKnFsi1ah3A+1mGo6Iyb0xdFEU7ln6M1cCS7E5/ipubwmt/8emfGO0MuaDSph2arX7OcrKNUVXnJdJktqGQXkdwyjgQSwRgyfshlWZslo6MX+yX7AxWH2JwqCpVWM0rosBeLzqkljVgWfeC2FRmcjLuYC4r1dgem9jZOyah9BXV+K8TAyJmAdht1XIlNU6nvmT/bJRfS4FmudWYRk6EcNMzyMq6jZyog/irGQIXn9V1WE2xke1fUkXbG3D7Fe/8+BOxGT0HroIUfcs4R86A0s3x+Pq7S1gETZMufUV3IhyqQzPtYKvEs9KSpnga6X+3ABsfF/ExBnTgz0vLdXKL5WF2bh8LQeFWvnZAFIm7gwqS/DsmVZUMmH5FCVMqVJJVfprSNfaGMDQUAoDqltuWfkLdb0aEz+EsufPGaVqqHxWwnSvRmjVStII/61L/TZVyK3ff0WMfgI8R2mpltoozL6MazlF4LNuY93YqsZAytiB8f6SZ9CWU45nquSp/qwHXmNiXUHjclwVBi2V67UQMRooHRvaUhci+/I15BS+YB+DBnxGa/W/9dIYDRoTI03T9s9OCw+meJAwItKTh3hYPWAtxaVLWUxosKUSBfG7EFfgjbmRcdiyeiFmTh6O3i73kHlTcbeh4TtTsispSH5Ys0fp+ZM4XWCKbr06MZd8vvBrD1yPj0GWRuKVZ+/AO8PHYtkx3bcsKx8kYOWkcVh+qgL2fqGY9v4a7EmMxQJfObIuXEaxnT98nQkXE+KRp1G5svTjSMkVwsu3s3pLw1QWxGNXXAG850YibstqLJw5GcN7u+Be5k28YFqteQFSgwUCengBV08iQfk8SkX55RScy69RnSdhBjn0BA9rDIPSS5eQVY9hTHz90B7XER+TpbqSVSJH9o53MHzsMhyr7+UuTdRYF3rrkJ+PhJWTMG75KVTY+yF02vtYsycRsQt8Ic+6gMtFJvBVVQYx2pXBjneGY+yyY+oN9WAyCBOHWyM9bhs2H/oBpszgKkR5l715PlqbxtpGJ5UFiN8VhwLvuYiM24LVC2di8vDecLmXCVWVGlMjDRpTruw6znz7sKbtJd/j5JmHMPMLUG/QRNHBqv/JwMr3JV3h522An86kIrdaGzlyds1Ar8AZ2Jev2UYe7Px94UwXkRCfp2GPMqQfT0Gu0Au+nTXvB7GFh9YB3eBGl5F4QuOFi2WXkJpW884g9vEjw/Uz36ImZZXg+5Nn8NDMDwEdLZvnv/XCzn8lXf3gbfATzqTm1uRveQ52zeiFwBn7UOrTxByhCc8O/r7OoIsJiNdOnjiekguhl696Q220/YdRvNFaNSXH8Voo12sjQVc/bxj8dAapNY7NSL0LM3oFYsaejJcT2wxNzvO1MeBpDSZarNw/ES08mBKhaw9fSLMj8MEHO5HwbQIilk3EzAOPIGJ9Jh5MHJ1gRdmI37of3129jh8TI7Bs3JvYdIv5urwcz2tfsGtQ+fAI3h01B1/FnMDRbz7AmElf4beu/8R7r5oBgs6YHjYaFhdWYORr4dhxNBmJB9dg+mtzsO1CBZy9LNSlaMMztwVuxeOTWX/H6n2n8N3ZZBz+YiV2Z0jQfUBvWIh6Ytb8QRAeD8OIt9ciKvk0EiLCMXbSWmS7TUHYRCd1SQ3DM3GEkxUhO34r9n93Fdd/TGT0G4c3VQ1Huc6GC9Dp7UUYb5aMRSOm4fNDCTi250NMmLSOuUJT78Ig6toDvtJsRHzwAXYmfMvUbxkmzjyAR/UYRtB5OsJGW+DCipF4LXwHjiYn4uCa6XhtzjZcqHCGl0U9Bm2ixrrQWwcrS9jiFuI/mYW/r96HU9+dRfLhL7BydwYk3Qegt4UAnaeHYbTFBawY+RrCdxxFcuJBrJn+GuZsu4AKZ2YQ2iCG6D95NNr8sB7rvrfGqxMHqF/M1zwfrU1jbaMTngkcnaxA2fHYuv87XL3+IxKZcsa9uYlRSFGl56r9GktjymUGhEcXTsDC7ceQHP8N3h89GZvv+2PO3FD1DpqIYWIiRWVWAr7efRwZMgf9vs9vjynvjYHZ6XCMm7URMSkpiN30LiatOovWE2ZjvPL5aw2inrMwf5AQx8NG4O21UUg+zeSj8LGYtDYbblPCMNGpEfpqIPKfibBhYhyb96qy3BPHGNuPn4R1N2oCjn38EJ4cXYgJC7fjWHI8vnl/NCZvvg//OXMRatJc/60Pdv7Lbz8F740xw+nwcZi1MQYpKbHY9O4krDrbGhNmj4ejTxNzhBYi9Jw1H4OExxE24m2sjUrG6YQIhI+dhLXZbpgSNlG9X220/edaIa/RWjUpx7VQrteGj/ZT3sMYs9MIHzcLG2NSkBK7Ce9OWoWzrSdg9uvuLye2GZqc52sjNoGJtBJZCV9j9/FrLVfunwlqacpv06GwEPJubUhCqRV5DnyXIva9R15S7dl8NbN6VDyPfoMsRX60/CqzUZ5Hp1aMIh97YxIKJWTuEkBjlx6gpH/3J6npcNp2Xz19QwtVucLO02jlP4PJzUxMUnM36v23zyhFaxZcCWXuX0AjfR3JTCwgobEteQ+cRVvT1S9PUM6wEZH/ygxS1LaK8uxoWjzKj5yYcgVCKVm696TXVx6nO9U7PaUrO+dQSCd7MhGJyMjGk/pP+YRO5VY1kkW7SU55p1bQKB97MhYKSWLuQgFjl9KBpH9Tf6kpDd92X3WQDp7f2E/zhnqRjVRExg7d6M3PFtIg5t9Vs8EUs0NuHwqjEO/WZMjU38pzIL0bsY/e85Lqns2noCST9i8YSb6OZiQWCMnY1psGztpKVVLVp5VejXWgnPUj8qeVGdol6a1DeTZFLx5Ffk6q76WW7tTz9ZV0vMYwTBH7acFIX3JU2s6YbL0H0qyt6dWvy6j33AoqztP7HYUk8HiPvlNPjFLCxkfr1ac2+mzDFKWYUSPypWXazlM900iBPO8UrRjlQ/bGQhJKzMklYCwtPZBE/+4vJdPh25T71KH2FG0lzyl2SmsSdVlKikmwbMpVaigZROHb5lCQG2MLsSk5BUymz1LzVbN76viXnB4mLKCedlLi8+1oWnwJS98voYy98yi0swMTZ0IytOlAg+fuoQzlFCgdPvz0Cu2cE0Kd7E1IJDIiG8/+NOWTU1QVlmx01cmTdNo2eyB1sDEikdSaOgxbQItGO5Ck+tUIDKziR0KDwrfRnCA3JlbEZOoUQJM/S6V8jZSlz3/rwMKmrHNsSQbtnRdKnR0Y/YSGZNNhMM3dUzVbmkFPG3XHVt1Z30+v7KQ5IZ3I3kREIiMb8uw/hT45latR/9rU9h/VzLqGtdIx21yvjWrN5lPSArleh41KMvbSvNDO5MBoIDS0oQ6D59IelWOzi0EdvvxkeyiJRcG0vvoVLzK6/X+9SGQ2Xv2ZQZ8N2cSI/CElLOhJdlI+8e2mqbbp0/YvhoHiP+px1Z+cMsT8zQnjrv8DF37g3uKN0j0YbT0VD1dk4fQ81QvUODg4ODg4OFqev+C9Ng4ODg4ODg6O3w9uMMXBwcHBwcHB0Qz+Qo/5KlFw7VtcKnZGr55ujVvB+69IZR4uJV3Fi3b9ENC29vxZDg4ODg4OjpbiLzSY4uDg4ODg4OD4/eEe83FwcHBwcHBwNANuMMXBwcHBwcHB0Qy4wRQHBwcHBwcHRzNo4cGUDJkHVmLJuiTcb87b4mWXERG+BJvPFKo+Zh7AyiXrkNSsQlsCGS5HhGPJ5jMofJlVkV3D3mVL8FXqg5rlKjSRZeLAyiVYl6SxnEUzeFb4ROOV//qQ4dreZVjyVSpackUA2bW9WLbkK6T+F5YZaBn/+p18owmw0/YZCp9UeUELxXGTaAkdWyoPXcf+D5dgQ0rNMjF10BWLzwpRLWUL0JB/Vj4+jc1L3sfyXRcZC/4Poi9X/k78Xvnrj9MXctSmxQdTt+LX49OdZ1DQHFu/yED0559i7/knyo+yW/FY/+lOnGlWoS3BC2REf45P957Hk5f5s/0XNxDz5aeISHustaBrNbJbiF//KXaeaSDJs6IM5z4ORpc39jZiYPQCN2K+xKcRaXjcghq8uBGDLz+NQFpLFsqSlvGv38k3moBebcvO4ePgLnhjb1WH1EJx3CRaQscWqr/sJuLWMnF29qHuOFRQKxbLzn2M4C5vYG8Ldqr1+6cMNzYvwHsbz0LSyft/cwazvlz5O/F75a8/Tl/IUZsWHkxJMGJnAcovtuwbyCUjdqKg/CKW/8+/1rylKcON784ht+y/mYb++/zP+1fZDXx3Lhc1bvBy4vgviWQEdhaU4+LyzlBIVXbjO5zLLWvRjr1e/5RlIeV6K7y5fgfCunKvP/lfgOsL/7jwlzOo/90CKG6vr8baJBm8urlCcuMAVq9PR6tAO9yP2YkdB47h3K0SWLi5w1pioD5GwTPcPrUH3+yNxemfymDjWorEtbEoDZqNKT3Nlbc2V69NgsyrG1yNVcfJCi4jbk8EDsQm4cecCli5ucJSrPyKoRJFP6Xg8L5IRMWdQOrFbBS3agv31oaq0aPi1vzq9UhvFQi7+zHYueMAjp27hRILN7hbS6BVs9unsOebvYg9/RPKbFxRmrgWsaVBmP33njBXFvYCeeejERFxAEdT0vFrmTlc3a2Y7qhh5A+uMPXfhUim/hd/KYOFqzusqg6qyMChz6NR1Gcmpva2qjviZa6Yj3xxEAXdpmOUWRp2bY/EsbRbeGbuytRfqlX/F3nnER3B6HQ0Bem/lsG8+jzFSNu6Clvj0nDrsRzlBYUQd/SHi0Jf+QNciduDXZGxSLr4C8osmHJrKoeMQ58juqgPZk7tDSvWw3E5HlyJw55dkYhNuohfyiy0dKrIOITPo4vQZ+ZU9NZRqNIH1v0Io+6W+DlyK3YcOY2Mx1I4t7OHkebuDdZdhuv7V2LjFRO4FiVg084TyCqzhfuLRHxay78Y4XA+OgIRB44iJf1XlCm0rS5HhX7faEj/ury4uhcr1yWg2LUHPKsKYHhxjdm+/gwMuvihraGmdWtoyJ8a1LY4DVtXbUUc4z+P5eUoKBRjQHfHunHMRvsmxgIbHRuMlzrIcPPIFzhY0A3TR5khbdd2RB5j/PyZoj7WkFZLqC9P3EDU54fxKHA6hgoSse2bKKRkPIKhkwfsjdUVU+aStUiSeaF9/n6s3hqHtFuPIS8vQKG4I7q7KO4X6TmPEhkKLjPxwWgXm/Qjciqs4OZqCUVK05X/lP4ZcwI35eYwkhWhXMs/VXl4fXorBNrdR8zOHThw7BxulVjAjWm/VurVgG2MVRb9hJTD+xAZFYcTqReRXdwKbd1bw1Alms4Ya+9uAVFlEX5KOYx9kVGIO5GKi9nFaNXWHa1VB9ZLs3Klmnr7C8Vjwg/X4wyvE/zaGqlzp+JR83JsSBOgq6+z2l8atqG+/KWiBNlJe/HNnhikZpUwdRDh/FefI1neFf7OUuWjwg+ZOOd1YuLcSG0kxU9elm9AmkC9jw5faFAfxaPqlRtxxcQVRQmbsPNEFsps28PdQqQnV9ZFdn0/Vm68AhPXIiRs2okTWWWwbe8OVVF64lOWj0txkdh/KAYn07LwgG8LN0dT5QVIFY1tx5P757FnzwXwOmvoxfDs+21YuTkd0m6+cGRs3KC/NqRPY1G8Z6rl0F7gUblAorgrDR3sSBbOftS3ny+1MeSRxONtiitQL7xYcZO2j3UhsdCMXPx7Ubd2lmTh3YXchDWL9GovtCin3+LeJT8zPhk6+FDfoAByMxOQ1GMKReYoVq8soyvrQshBZEj2XfrSK6/0pS72UuIJnWji3lzVoqvKRSbF1HXoYHK0cCa/vv3It40h8SQe9HZcgXph1gq6uX0suYiFZObiT726tSNLC2/q4iYkUdViprIcOjzTh0z5RuTo25+Ce3qSpUhEjsPW0IViZSE6kNOjlHDqayMkQ/uO1CuoD3WylZLYeQRtuKJarJNKImlcKxH1+DhL9wK5yvoLyK6zDzmYM/UPCiJ/Z2PiidvRtOj76vrLKOfwTPIx5ZORoy/1D+5JnpYiEjkOozXKyhXSyVUTKNCBT3z77jRq0mI6fEdO8kcpFN7XhoSG9tSxVxD16WRLUrEzjdhwhbGuAh2LhepD/ohSwvuSjZCxScdeFNSnE9lKxeQ8YgPVNHkctRL1oI/rKVTlAx0pqJ89WbbrQ0MGdScnIwFZ9fmQzqgXztRf9+d0aKI5id29ydPWgwL7+pHfjCj6rdZCnrKcwzTTx5T4Ro7k2z+YenpakkjkSMPWXCCVWVn4hl796yK/9x8aaiIivw81F1UtoYS3nUjU8X06r7HOaA36/alBbQtP0qoJgeTA55N991E0afFhZqOOONajfdNigY2OLOKlDqr6C+w6k4+DOTn7BVGQvzMZ88TUblo0qdbwZZMnFAsRC8ihcxeyNXUgn549qD2TN4TW/WnVuaeKPRTiVC9Y++DkKpoQ6EB8vj11HzWJFh++w+zA4jzy3yjuXT8y4xuSg09fCgpwIzOBlDymRJIipdVeaFa/f6raL+46lAY7WjDt70v9fNuQIU9CHm/HUVXqrQ0bO5ddWUchDiLGFl2o7yuvUN8u9iTlCclp4l7KVYmmM8Yel12hdSEOJGJis0vfV+iVvl3IXsojodNE2qs6UActkCuZMhrsL3QeX0K7Rxlq+KB+G+rLX1Rxm3ZNdCepyIY6BofQAB9GY+8gJv9Kqvs5nWWU7KZRhvX3hXr1UfqwmNy9PcnWI5D6+vnRjKjHLHJlXZSLVovdydvTljwC+5Kf3wyKesyiDuVXae2g1iQ0c6XuQQOZWHQiY34r8lucqvbXprVj2oZl1EtiQkM231PaQMUj2vuaBYkDVlMmI6Nef61Hn6bw8gdTPD45jo+gn8tUezxOeIfcBUY0bGsB80lO93eOIgthW5qw+zYpF+WX3aP4WZ1IYiDU7UBPj9I0RyFZDf6SrqqXLi+/tZlCGUO4zE6msoe7aYy5kDxnJ1K1JE/P0DxvIUkGbaI8pYCKBMgjvuN4iqipGL3jLiCjYVtJWbP7O2mUhZDaTthNt1UVo3vxs6iTxICEyiCTU96u0WQlsKeR/8lUO6CcCpLmk5+RmDotSlNuqUMxcx4XITmM3kIZz9Tbnl6gj/qbkyHjANcUMcJqMMXU32E0bVdVjinjW5rTXkjGodtU9c/bRaOtBGQ/8j+UqfZHeUESzfczInGnRZSmbHYhbQ0Rk2jABvpN6Y3FlPCOCwmZcrfUVI4ufNSfzA0DaLWqco0eTBUzNncROtDoLRlU0+SPqL+5IQWsvqb8zGowxfiS3aubSL2QOhWmhVOgiZh8wy8xn9jUXZXoecKOFHauap9a/iXPo12jrUhgP5L+UyMcJc33IyNxJ1rECKffN9jqXwvmPLtGmZPQJ1y1sr+C4jia6iCutWq9Biz8SW+iL9xKIWIRDdjwmzop6Y7j+rVvWiyw0ZFVvNRBVX8en/G57eq8wvjCt3Pak9A4lLYpAoRVnlAkWibObENo7WV12s9PpHmMDSX+K5TaqGKxZvX/wq0hJBYNoA2qgGJ1nqdHp5Gj0IoGf3mViS4F5XRrcyhz8eFCs5PLGu2fNe13pPERPzNDAQWPmfhwJ4HRMFKmXh3ot/ND2j2G8U/P2ZRY0xg6M8+bhJJBtEklms4Ye7h7DJkLPWl2zYGMDPPIWyihQZvy1Ftq0RK5Ul9/wWYwxcKGDceYnPKZ9lsJXelvh+6o4lh+nxL+1Vmrn2v0YIqNPmofFnYMoxpzsMmVdVEOppiBSMewc9V5nE0dylP/RW4iT5p7Wm0A5vznFvmRlcc/6KjimKa2Q/4rrR9gREYDN9IddbjJC5icYmZI/dZkM/Zk4a869WkaDd9fbQn4DgidMRYu6kdw5n2C4Gv0Avl5D5hPxUiKTUax1xtYON4NyhtrfHsMWTIL/WruxWtRfjYGCfftMGbe2+hkqNomcp+GLSlpOL4kAGLTYfg8NQ2xy4NgrvoalQa2cLATQF5UiKLqHzPw4RA6A2NrKoYgXyO8yM/DAzlTs6RYJBd74Y2F4+GmqhjshyzBrH5Vj9GKcCo6EUUdpmDJ1A7qRxk8WAcvxvwQQ2QdOazcUpuy1IOIybVFvyFeeHrte3z/PfOXIUOPAT5AeizispmTs4IH++EzMVFVOcAkAP38W+FFXi7yZUztTkUjsagDpiyZig7qW6U862Asnh8Cw6wjOJz+QrVRk7JUHIzJhW2/IfB6ek1Vt+8zIOsxAD5IR2xctnrHxlCG1IMxyLXthyFeT3FNWeb3yJD1gKrJcer9WMD3wBsfTIWX2u5mPeZi9iAprsXHNKruvDb9EcLYWidFpxCdWIQOU5Zgao1wCF48HyGGWThyOJ2FbzRRf+Y8w18fArOMaBy8rJoOVnTqAOIf+2LseC+tW+JVtJw/6aEh7ZsYC2x0bE77ePbDMXOiOq/ABAH9/NHqRR5yFQHSiDzh8eZSvNNF9fNuns0AvD97AIRX4hD3Ewtt9Z6nHGdjEnDfbgzmvd0JKnlFcJ+2BSlpx7EkQJ2fqmDhn1XwHUIxY6yL8lEhk+DQJ8gXRi/ykadIcPXRoJ1NMezzVKTFLkdQTWNg62AHgbwIhTWi1Ykx02GfIzUtFstrDoSBrQPsBHIUFRapt2nTEr6tt79QbWoY1r5SHyVIPpLExMdE/HOEoyqOea0x8IN/Iriex/ZsYK8PD236hzD9rvpjc/I8rw36hzB+pP7Ipg48M3OYUg6OfvEJdpy6hvxyYwR+/CMe3NyIYUxBTW4HzxGvvR4EwdlDiL6r+EF+JQpiDyJZ3gcTxrVlIpetv9Yqt4m8/MGUgSWsrfjqDww8EcQCA5CcEUh+H3fulTKauMBFo6fgmbeDm43uqpXm5uIhHOHmKlRvUSCAnZcfPFsz0SIwg63JEyR+9hbGDO4DX08HmFt4YWFqOUCVjNxVGMDS2ooRvAoeRGIBDEgOOfN3/849lDLGctGuGNq52ahEk+fj7r3n4Lt6wFOrlzOGezsH4H6u+rMmlXiSk4NHFXex963eCAwMrP4LXpqC0sp85N5jO6eaBysba436M00XMhWRySCDHPl37+E53xUe2pWDsXs7OOC+zvNUPslBzqMK3N37Fnpr1C0weClSSiuRn3tPvWcjqHyCnJxHqLi7F2/11igzMBhLU0pRma9Lp3oQuKF9e/XgUYkhnJ1tgN/uNqruPAtraLqkJvL8u7j3nA9XD0/twYuxO1RmvaPfN5qovwKzoRMx3OYmog9exAsUIiHyOJ4FjMO4droq3JL+pIcGtG9aLLCIsWa2j2dlA2vtAGFsysSH4hDWeYKPtu081QMyFSYubWHD2PAuG231nqcUubkPAUc3aKc0O3j5eUKR0jTR7581fm5gqe3nPJEYAgOCXN5A79+QnZkzmtma4EniZ3hrzGD08fWEg7kFvBamohyESo0JZrVjTGBmC5MnifjsrTEY3McXng7msPBaCJUMumamtYxv6+0v2MDaV+pB/gC5eSXM4N4JbbVc3QPutvUkIr00Rh8eLDT6umbleZ6FRn/Org6CjnOwbvVQCFI+wtRBXdDG2hndRszGl0l3mBzX9HYoPtuOnIhB0h8QFfUr5JV5OHIwFQYDXsdoO0UGYeuvtcttGrpHLC2KAQzqG3wbGMJQygysSp7hmZZHlqH8he6AF0kljETPUVqq+X0lCrMv41pOIV7cicDk3kOxKOoeLP2ZK7OlmxF/9Ta2hKqv4jQwqL9iMDRkro6pBM+0K4ay8heqmToGUkglBqisU3c5nj0tASRS9WdNeBBLxOAJu2FVpkzxiFX7T/YLNgazulZS0lD9pYxOBpV16y9/9pS5TpIwda9rep5YAjFPiG6rMiGrXTeS4ZeNweo9GwFPDImYB2G3VciU1S6TIPtlo3pHFlAZnj/XbA+huJjR2si4cXU34IFXj3QGUikkBpUoefZMO0nKn0FlVql+32ii/kqMX8GkEQ7IjjmEH+8fw4GT5eg9fiycdUZ6y/pTgzSgfdNigUWMNbd9THzUFyGVrPMEoez5cy1fqHxWwgyBjNCq6sfgDaD/PCJGO6aHfV4K7ZRWiOzL15BTqD1g0O+fGvVvoP310pCdK+8gYnJvDF0UhXuW/gidsRSb46/i9pbQupMMtGKsEnciJqP30EWIumcJ/9AZWLo5Hldvb4GOtKymZXxbX3+hUFeRRisrNb8vZ3xQrvZBRbPZ9yk64RszvsJn+rliFGtJ+5w5j+Z5FfZiBmdaVWH6Qp2D38bpY8DjVftC8/K8AXjVhmVZB+YCqVdYFDLzcnAh7musmN4bxhm7MC/0Vaw8L2tyO5RYhmLiMFOcj4rC7ZxoHDwrwZDXX4XyXkwj/LVOuU3gdxhMNQCvNQK6uYEuJ+KExkvIyi6lIq2e92hIuvrB2+AnnEnNZVK1GnkOds3ohcAZe5ARtwtxBd6YGxmHLasXYubk4ejtcg+ZN18oIkY7AdULD60DusGNLiPxhMbL+MouITVN/W4nnh38fZ1BFxMQn6dRalk6jqfkQujlq96gjYmvH9rjOuJjspSBrEKO7B3vYPjYZTjWIu+n4cHO3xfOdBEJ8XkabS5D+vEU5Aq94NtZcfWpCAzVN0pMfOHXHrgeH4MsjRwuz96Bd4aPxbJjikezjcUEvqpCEaNdKHa8Mxxjlx1Tb2CB7ApSkh/WtKf0PE6eLoBpt14tVneenT98nQkXE+KhbdbjSMkVwsvXR79vsNZfFxL0njQaLr8mIHJjFL6lIIwfZVdvoLaIPyk6PvU/66Uh7ZsUCyxijOHlxEslCuLZ5gkZrp/5Fg+rN5Tg+5Nn8NDMDwEd69pQkZRrYHMeCbr6ecPgpzNIza15bCXP2YUZvQIxY1++eosK/f7ZWb2liTRg58qCeOyKK4D33EjEbVmNhTMnY3hvF9zLvKm8w6DzBpOCygLE74pDgfdcRMZtweqFMzF5eG+43MuESgbdB7aE7RvuL/Yhn9FfIiY8efiw5vvSS7iUVfWpMb5SHxYI6OEFXD2JBOXjKBXll1NwLr/G5jwJM8ihJ3j4sGZb6aVLqK5KLZqsTwvmef11kOFBwkpMGrccpyrs4Rc6De+v2YPE2AXwlWfhwuWiZtrZBIMmDod1ehy2bT6EH0yZwVWI6plek/21ifx3B1PMVZn/zDAMEx/DvFffxtqoEzgWsQzjJ63DDQ0ja8JvPwXvjTHD6fBxmLUxBikpsdj07iSsOtsaE2a/DndnJ1hRNuK37sd3V6/jx8QILBv3JjbdYg4uL8dzXYN8HYj8ZyJsmBjH5r2Kt9dG4cQxppzxk7CuumIi9Jw1H4OExxE2QlH3ZJxOiED42ElYm+2GKWET1ftpI+g8HWGjLXBhxUi8Fr4DR5MTcXDNdLw2ZxsuVDjDy6JlTCLqOQvzBwlxPGyEsv7JpxMQET4Wk9Zmw21KGCY6Kc4jhomJFJVZCfh693FcK+6I6WGjYXFhBUa+Fo4dR5OReHANpr82B9suVMDZy0JVuCbymzj80QdYsv28ekNtBOg8PQyjLS5gxcjXEL7jKJITD2LN9NcwZ9sFVDgzSYYtlQ9x5N1RmPNVDE4c/QYfjJmEr37rin++96pC2MbXXReinpg1fxCEx8Mw4u21iEo+jYSIcIydtBbZblMQNtGJhW+w1V83ou6TMLb9TWz78iR4r0zAiNb179si/iQ2gYm0ElkJX2P38WvqjbVoSPsmxgIbHV9OvPBg4sg2TzAd7dGFmLBwO44lx+Ob90dj8ub78J8zF6Em6l00EJuYQFqZhYSvd+P4Naaj0HsePtpPeQ9jzE4jfNwsbIxJQUrsJrw7aRXOtp6A2ePtVAVXwcI/m0UDduaZOMLJipAdvxX7v7uK6z8mImLZOLypagzK60uuPBM4OlmBsuOxdf93uHr9RyQyeX7cm5ugkuG5ar9atITtG+4vxsNO0hU9fKXIjvgAH+xMwLeM3y6bOBMHHonUnWNjfKU+BOj09iKMN0vGohHT8PmhBBzb8yEmMP1cpkY/J+raA77SbER88AF2JnzL2HUZJs48gEci3e1ssj4tlSsZ9NdBAHNb4Fb8J5j199XYd+o7nE0+jC9W7kaGpDsG9LZotp0N+0/G6DY/YP2672H96kQMUL+9tsn+yiC/eRgffbAE28+XqrewgFoUHbOAqqdxqnkeTW9YipSzk6p4kr6NZg/sQDZGIpJad6BhCxbRaI0po3XKKcmgvfNCqbODCYmEhmTTYTDN3ZOhmgkjz6NTK0aRj70xCYUSMncJoLFLD1DSv/uT1HQ4bVPMi641A0fFc4p+w5JEfsvpatXGJ+m0bfZA6mBjRCKpNXUYtoAWjXYgSfWUWaKnV3bSnJBOZG8iIpGRDXn2n0KfnMrVPfOqipJM2r9gJPk6mpFYICRjW28aOGsrpVdNM2c1m69u/WOntCZRl6U1M8GeXqGdc0Kokz2jk8iIbDz705RPTlFu9UFyepiwgHraSYnPt6Np8YrZQSWUuX8BjfR1JDOxgITGtuQ9cBZtramc9my+smM03YFP4iFbVF/XQ0nmflow0pcczcQkEBqTrfdAmrU1nWqazGI2n7AzTVv5Twp2Y3STmpNb77/RZyl56hloCvTVXTXTSOS/kjI0TlPXT5/SlZ1zKKSTPZmIRGRk40n9p3xCp2qEY+Ub+vWvDxllrO5OIl5rmny4qu4NoMef9M7mkz+khAU9yU7KJ77dNGaDjjjWq30TY4GNjvripQ7a9a/ieewUai3qQksVAcIqTyhm+khoUPg2mhPkxviUmEydAmjyZ6mUX9XwWrEof5hAC3rakZTPJ7tp8ezOw1CSsZfmhXYmB0Y7oaENdRg8l/aop9Q13j/raX/0G2Qp8qPl1QlOG/12llPeqRU0yseejIVCkpi7UMDYpXQg6d/UX2pKw7fdV5SiM8bkeadoxSgfsjcWklBiTi4BY2npgST6d38pmQ7fpt5LB83NlQoa6i8Yym8forAQb2ptKCSplScNfDeC9r3nRdIqH2RhQ70xxvD8xn6aN9SLbKQiMnboRm9+tpAGMf+u6ucUszhvHwqjEO/WZCiUktX/t3cmYFFV7x//MivDIjuyCMgiKIgii4rigluKuIeaWv9cWkzLTFHLNdHKX2m5pZnmgvsCAaIoW2hKieIKYkqGYgguiCyCzPD+7yzADAwwLJbV/TzP+DiXe899z7udM/fcc47LQPowdB995Cqqpy1sQD8yHxaQd0haDf00lCtrI5vNJ/CmEGXDSmkwPssoM3whjfKyld9LZEJOPV6jkON3qmVqcj2klNO5jzsSn+dMH/2smN0uQwN/raPc0mPTyJorpMFbHiqONIyW9B9Fv4qFpUk8/2U+/L7xwLn9rymOtDylEf8H27HX8F7Kr/+B1X8l+O1/feCxoQOOXP8eQ5o5y6S5/Ld0/9+FtfNfTMkejDabgofLM3Bqjr3iIMvLwXP8Mt8P33gkYv9rmiXghp+TsrDUh+Q2Dm84iw6j/RUHWJpN0a/YticVNkFvot/f3JFiYWFh+a8huX0YG852wGh/dZNn1MN2pliaB9caA74Mw7axFooDLE2G6ZhuCnKFo+MAfP0wAAtn+Wq2Dg4LCwsLS4vBtR6AL8O2YayF5l0kdpiP5R9BRd5V/HSxEHY9e8BR8YLhv4/nuB7+DQ6m6cNn7BsIcH45Hkv9N3TPwtr5L6YiBxfjr+B5uz7o1lbDZRZYXlrYzhQLCwsLCwsLSzNgh/lYWFhYWFhYWJoB25liYWFhYWFhYWkGbGeKhYWFhYWFhaUZcJcxKP7/0lLxKAmbV27Gkdg4xMXFIT4+AYmnfsb59ByUG9vCzlhbaV+dCuQlfovPtpzEQ8tu6GheY70UyW1Erf4Kh++3QW9XU+b7XRxfuwo7bxign4eV4qR/OeKr2PvpepzmuMOrrS4kV/fi0/WnwXH3QlvhdRxcuRbxYlf4OOip369IfAmhyzYgmdcF3naaTx39JyO+th8h634CdfSGvW5zd3FqPBX3YvDNqh240aoHPKxfnjWAxMq+oytB+sGVWBsvhquPAzTYuq4RFCH/CafuPQ1fCsS4uvdTrD/NgbtXW/wNbtIAYlwKXYYNyTx08bSDSAP5KnITsPHzLYjJNYePe2sobxfcJIry8YQjwkttRpaXDtU889IFlhzpC+gvO+KbX5Avn0O6Vs7k5ubGfFypg7MtmepwSYvfmnrOiaA7VcuXiil9RVfiQ4v0fVfQxVLF4UrKkugDR758dWLZ919pgRuPhIE/yL//F6ixarDK6r1qV1evQfFuGqWjvHLvv586V//9iyg/9zF15AspYGu+4sjLgerKz+pX3m42z87QZ/4ONHTjnyorrr981Ngd4KWjmHaP0iGB8ury9VJOl5Z6krZxP1pztWYibTzPznxG/g5DaeOfL7cVWV4+NFlh/u/mH/T7gAvPj2Jw+do1XLuWhvQbWXiQewV7plrhyjdvYOKaa0qbJEohFP6yCu99dQlliiMsGqA9AjvzynBhWSewayCzNA5tjNiZh7ILy9CiC2iXXsfPZ7NRys47/msRp+Gn62aYtmk7ZnVs/opnpdd/xtnsUiYzs7D8+3gBw3xi5F6MwoH9hxFxMhkZD7iwcLSBgSy5qn8MLr4UimUbksHr4gk7Nc+e6fEZbN+YCM6A9/FmD6PqF70EZnAf3AfCpC3YfqwQPu8Mh7OA8PD0Nmz+2RYjhj5D4u4zEAyZhN4WiuwuyULMxl1Ibzsec4a3Y77fQ/x3P+AXo2FYNKGL/BxNEOfiYtQB7D8cgZPJGXjAtYCjjYG8A1JjGE1eI80esVcU/IbEI/twICwKJ5IuILOwFdo6tYaOrNJi2TDKuvO66GryOw5s3YEfT6XhscgO7ax0VV+AkzzA5ag92HUgEvEXbqPU2AFOpoq1TMrTcHh1OAp6TccUP1NI0g5jdXgBek2fAj/DDDXDfEW4FbsH2/dG4tRvpTB3KEHc2kiU+M/EZMYecp4j51w4QkMP4mhiKv4oNYKDkynTvKrjOa7sDcG6mEI4dHeBUZXgzxn/CGH8QwudGf/QUdGRvO7rU1vB1/I+InbuwMFjZ3Gz2BiOTmbQVj73eQ7OhYci9OBRJKb+gVIjpborytlwyRDdWt9F+PbtOHQyFTlCO3Roo4/yO6exb9tOhMVfRX4rJ7hYiGQ6EF8Pw+ojj+A7bQh4cduwPSwRaY90YOtsBT2Fba7tD8HGy/pwKIjBpp0nkFFqgfZOxhBAggeXo7Bn1wFExl/A7VLjenSjnoo/4/HdD8kwCJyLiZ71XFlv3aXUF591IUbeJUZ+xraR8eeRVW4KRwcT2YKi5cq+Y1qhdphP8uAyovbswoHIeFy4XQpjBydUiiROP4iV61PRytcS9yN2YsfBYzh7sxjGjk4wkxq1MBlbV2xFVPJNPJaUIS9fiP5d5Vtv1FeujPpiVC0a6KZe/ZYj7fBqhBf0wvQpfjCV+UVj4kKK5jH+POccwkNDcfBoIlL/KIVRzfozFN2KxZ7texF56jeUmjugJG4tIkv8MfPNHjCquIb9IRtxWd8BBTGbsPNEBkot2sPJWCDPQ+GJyOIYgPvwFn5XzkPidCZHrEdqK19Y3o/Azh0HcezsTRQbO8LJTPmVi2oKk7dixdYoJN98DElZHvKFHdHVXr6YVbP8o4r6Y0w2TL/xMvQdChCzaSdOZJTCor0TmKoqoUn7JB/KbjgPVaDgt0Qc2XcAYVEnkHQhE4Wt2sKptU4dLyo3L3+Icy8i6sB+HI44ieSMB+BaOMJGxXEbq58nuH9uD/akcNBJZci6CL9sC8HmVBF8PG2YHNDYesqpv52rjWqekZ/U2DJeOIonVC1EGV1ZO4ha8w3Joas/DfT3Jls9LrXyWkhJhdK/q38MXrx7FOkIetFXdTx7lg/z8WXDSrXPkND9za+QiOdEs5KkmxwqhvmEw2n7jT001oqnOtzXEsN8ZVdo7aDWxDd0oK7+A8nf25b0uK3Ia2ESyaupbvPNhh+xl15eRwHWAtKx6ky9Bwyg3p2tSMThk+2EvZQtezKuGEbp6E99rEyoXa/BNKirLenyTKnXp6erNg2WPEqkJb3Nia9jRR17+lMvdwsSCe1oxIbLTAkMjRnmK79BPwTZk5Cxqb13T/JpZ0LGbp3Jka80zCfOoiPTPciAq0s2nn2pXw8XMhEIyGboGkqRKaQmErr33RDSF3jRp8qbrhbH0Du2Aur48Tk1Q4zyugu7DKFXbIzJzqs39fFsQzocbXJ+J4ryFCMH4qwjNN3DgLi6NuTZtx/1cDEhgcCGhq5JkdtGUY5Ol0HUr40ZtfP1p57ORsTj29H4JcHU29qSXHv2IS8bXeLoeNDHZ2Qakw/z8aypU2cLMrD2oB7d25OZkE9mfVfQ2afycqUbvAqd3MjFwpl8e3uR11th9FjyiBKX9CZzvg5ZdexJ/r3cyUIkJLsRG+iyvGiN0GSYr+G6NxSfapD8SVEfepEhV4esPXqTfzdHMuSJyHnyAcpi3KX+YT4JPUpcQr3N+YxPd6Se/r3I3UJEQrsRtEFRednGrcIuNOQVGzK286LefTypjQ6HtJ3foSipUfNP0orxvmTN5ZJV11E0ceERjcptMEZr0bBuGtZvjfzW6LiQokmMiynryHTyMOCSro0n9e3Xg1xMBCSwGUprqgoupxs/BJE946OG9t7U06cdmRi7UWcm91XlINkmr0JycnMhC2df6u3lRW+FPW44D8lyhJC6DHmFbIztyKt3H/Jso0McbWd6JypP7VBs/skVNN7XmrhcK+o6aiItPHKHOdoC/iFFgxiTxa/QidxcLMjZtzd5eb1FTFVroEn7pEkeKqXL6wLIWsDI07k3DRjQmzpbiYjDt6UJe7PV6kdablPzR9mVtTSoNWNnh67kP9CfvG31iNvKixZWOm6T9DOVNiztSdr6g2nzPSWJH+2lV42F1G1lOuOFTamnJu1cbWoO8zWljBdNy3amZB0VAbnMPsW4pZzCswvIy9SZ3jtaxHx7EZ0pRrGx75ItV0Qjdkqdp7oztaNQQtl7xpIVT596rLzEmJ6hBTpTZUkfkKPAhWafqqolnV3gRabO75G8mk3pTD2k3WOMiO8yk+KqgvwpnZ7jRnztQbQpR+oh8kDmcC1p+KbKXc/zKXmJL+kLPWmJdDd8RpaYd+2Jbz2atqRJhZHylFI+60tGOt1o5VXmHI07U0xHdecoMua3pfG7bzHNDYP4HkXPcCdtLbk9pAkxZ9doMuVZ0cjv0hkJpUgoL34ueekKyX1BsuxITSR5u2iUEZ88llys6jgVRk0ha2Fdu9pX1t2GxoX+LrclPWbq6kQ83aG0NY/5KsmhXaNNiWc1kr5LV2QJSR7Fz/UiXaE7LUiWXlVZThsau/sP+b0L42iGI4+0hB40J/GhLAlI8vbTOCZB2c9IkJ4hTzYcLlkErKVLshwlody4OUwdtcl7+WXpGbJkyOF3pOCzlXpnio55l+z51jR6SxpVWSPlM+prpMMkpKuKIw3TYGdKk7o3GJ+1eXp0KtnwTemVb64orimjm5sDmcRsTzMTSuvvTBXG0Lv2fLIevYWqXTGFPutrRDrdVpLUFWWNJaNXm3Gh9LviB89jRmdOPF0aKjMqQ/5WChAKqP8GxTtTGpTbYIzWpCHdaORbyvmtaXFR7Z91x7gkZxeNNuWR1cjvqFqUeJrrpUtC9wUkFUVyfyeNMuZT2/G76ZY8cOle9Axy19YivkpnikP8jsFU7bIa5CFZjuAQ12YchVYbjd514pHu0K2ksFot8rcGkFDQnzZUvjPVQv6hSYzJ45dPHYPPVp1TG807U/XmoYe7aQyT21xmxjF/UfD0NM1x45P2oE0kS+W1aGr+KKOkDxxJ4DKbql39LC3wMiXn947KrmmqfiR/rKf+uro0cOMdedxJ/ZdpDwx1+tCaTEYXTaqnJu1cbVTzTNPKeNG07AMxjiGMDAhZR7/Gqh2xuJpbBj3fz3H+wQ1sHPoCt8bg8sBFBSQSieJAJRxYj1+DL0fr49wX72H15ZZ5e4pjaAQDysLRr1dhR+xV5Jbpwffz83hwYyOaXk0DDF2dhOTIZfCvHDmr0IKFtSV4kgLkF1S/acB1fh2fTHGFjuybIbrPnolBoquIjrgOlCbhUEQ2LPoMhuvTq/jll1+YTxrE3fvDA6mIjMqUXaUZhYiPTECh6+uYP84RsifiXCsMXjQDfarGKQsQGx6Hgg6TsWhKB8VjYw7M+i3E3AAdZPx4RHakJhyzYXhtsCHSwg/hkuxlN6acg9F47BmEca51D8RwrQPxVpC9Ys86I/Ty94Tu81zkPGBsXxCL8LgCdJi8CFM6KB5gc8zQb+FcBOhk4McjqfJjDByLIZj8qp18yEfPEx7OXPA6jcGUXiayx9McYw90ttdC/qNH0jPkcJ3xxuJ30Vk2OsGBef+PMbM/H5ejomR/lsJp0xcBnpVOUIqkQxHItuiDwa5PcVVmi1+QJu6O/h5AamT1dc1Gk7o3Oj7LcCYiBvctx2DOO+4KfxPAaeoWJCYfx6Ju9b9HU5p0CBHZFugz2BVPr8rr/kuaGN3llUdUpiJeudYIfCsI9orijHr5w1P3OXJzHsgP1ECTchsdow3pphG+JadpcVFJfTFeEBuOuIIOmLxoCqpF6YeFcwOgk/EjjqQ+R2F8JBIKXfH6/HFwlAcurAYvwow+8mHrajho0zeA0bfiq8Z5iAvrwLcQVG00+DOFPM/NgTQUNaFl/KMRMcZpg74BTL5QfG0O9eYhg6FYnZSMyGX+zF/kVGhZwNqSB0lBPpRSeS0anz84MDQyAGUdxderdiD2ai7K9Hzx+fkHuLFxKFPXpuuHY/MqXvPn4czhcNytYA5U5CHyUAIkvcZjbFtuE+upeTtXNy1RRsvTsp0pXkfMWrcSQ3iJ+GzKIHRuYwY7nxGY+U087jxXnPMCKM/LQz6jYFNTNcmdY43xa77EaP1z+OK91bj8vPmK5nWchXUrh4CX+BmmDOqMNmZ28BkxE9/E30HTq8mDoYU+nsR9hbfHvIJeni6wNjKG6/wkpkkjVEidWQHPsT3aK4/169jBzhz48+4dVDzJQtajctzd+zb8fH3hW/nptxiJJRXIzb6nuEgDJPdx514JE1T2sFfq33CM2sHRXOE6klzcvfcMXAdnuKj0gfTg1M4auJ+t+F4TQwyZMAzmN8Jx6AKjtfwYHDhehG5jx6IdE6d1oWViBlOlv3MEQvC0iOlIM5/cu7j3jAsHZxfV92L0nCAXpbruWqYWsKgqhwMu838tfUMYVrU0PPCkf1febYnbFu1clBWvD/u2jOLv31V8Z0oyVpKv4gmysh6h/O5evO2nZAvfflicWIKK3Lp003g0qnuj47ME2dkPARtHOCjPiedZwtXLBa3lLX0dVOBJVhYeld/F3rf9lOrui36LE1FSkYvse4opI1omMFM1KoQ8LVCtH0dSNCu30THagG4a41symhwXcuqO8dvIvXsPz7gOcFYtmBGlHaxxn6l/Ge7fuYcSjg3sVQMX7RzNayR9DozNTJmuUSWa5iEtmKhcx4FAyIMWScCEoga0kH80JsY4xqrlNIP68hB4hrDQf4K4r97GmFd6wdPFGkbGrpifxPyYpwqm5nXT+PzBQ8dZ67ByCA+Jn03BoM5tYGbngxEzv0G81HGbox+OBUZOGATRr2EI+0OCipwfcShJC/1fGw1LqRM1qZ6at3N10xJltDwt25liijPqGYyw9BxkpUTh++XT4KeXhl1zAjE85Jw8iWkxrRVTW+V4Kyst0zAA1VGKlJ/Po0jYGT6eytmnGo71eKz53yjon/sC762+jnLF8SbDJKWewWFIz8lCStT3WD7ND3ppuzAncDhCzslTtbyaKrVEaZlEpd4qVNxB6CQ/DFkQhnsm3swvscXYHH0Ft7YEqrxoKIVKn+GZssNQIQqLAV29VuAItSHk8OGzIh1i+TCu0keM2xv7KS7SAC0d6IiYpFVchCIVBy1FWWWnVEsEkbYWKmqdI0HRU0Yo7brXodIbMBEjrDMRcfg87h87iJNlfhgXZKeUoNXAKFb1l3U1WiIRtLUqUFxUpBrIkiLIRanWpBaX03jnp1I8U1F8BYqKSxjFt1J8Z9Biyq0UkCOEtpADvs8KpItr2oIgvr1RcWLz0azuGsSnCgLGtkxj/KwEJcqOW5GPzEtXkZWvOn9WFQ6E2kJw+D5YkS6uVXcS38bGfpU/fhib1mXUWmhYrgYxqkr9uilvhG/JaEZcSKk7xg0gYu6lVVGMItWCGVGeopjJFiJtLnR0REzHpvY5pWXPa+UgLQ6nOqYakYe0NDeaGlrIPxoVY1rgVAVnHcgTd8PtUz15qOJOKCb5DcGCsHsw8Q7EW4s3I/rKLWwJrKlBNTQhf3CMeiI4LB05WSmI+n45pvnpIW3XHAQOD8E5cfP0YxI4AUMNziEs7Baywg/hjPZgvDZc3iFvUj0b4V910hJlvABatDNV8SAGIRPHYllsOay8AjH14zXYExeJeZ4SZKRcQgFzO20mgOjJQzys+tFZgosXM5gU0zSep2/B53vvwHDw6xgt6y6rgwPr177G/0bp49yqJTicVzMyGkMFHsSEYOLYZYgtt4JX4FR8vGYP4iLnwVOSgZRLBczttBkHJjx5+LC6XiUXcTGj7lpW5EVjV1Qe3GYfQNSWlZg/fRKG+dnjXvoNppFjevlKOVF8OREJD6sPlJw7iVN5BvDp6Q7oe8KrPXAtOgIZSm2dJHMH3h0WhKXH1A+dqIXTGt18HEGX4nDifvX9Si8mITlP8Z1jCW9PO9CFGETnKAlZmorjidngu3oqDqhB2w8TR9vjj5gD2Bj2E8h/HEbVacOG4Vh6w9OOcCEmGqqiHEdiNh+unp0UR5qI+BpO//SwujEt/gUnTz+EoVc3xYGa6MNTbgxEqBoDO94dhqClxxQHmo8mdW84PmuijS5ebtD67TSSsqt9V5K1C2/19MVb+3IVR9Sj7+mF9riG6IgMVNdegswd72JY0FIce6AkaH1IGxjFf6U0XK644RitQUO6KWysbzUnLhjqjvHOsPT2hB1dQEx0jlLHrhSpxxORzXeFZydttO7mA0e6hLgT96vPKb2IpOQ8pWtq05g81FiknTZlWsY/WjLGWqJ9qkBe9C5E5blh9oEobFk5H9MnDYOf/T2k35A+Kar/yZQqGtSt4gFiQiZi7LJYlFt5IXDqx1izJw6R8zwhyUjBpYJm6kd/ECYMM0Nq1DZsPvwrDJjOVYBsaK1p9WwJ/3qRPtocWrQzxTGyAG5GY9WMN7FyXyx+PpOAI1+HYHeaNrr294N0kmeX7p4QZYbik092IuanGIQunYDpBx9BoIEkD68dw4F9+7CP+ezdtQWrP5mEXv3m4ifRMHzx+WuwqK8MjjVe+/p/GGX0GA8K69e25MYRfPbJIvxwrkRxRBnmF6ysmqsw482V2Bf7M84kHMHXIbuRpt0V/f2MmR/0XdDdU4TM0E/wyc4Y/BQTiqUTpuPgI0GdCufo28DWlJAZvRX7f76Ca+fjGN2MxRubbjJ/LUPZs+oOYMXDH/HhqFn4NuIEjm7/BGMmfos/u7yPj4YbArxOmBY8GsYpyzHy1SXYcTQBcYfWYNqrs7AtpRx2rox8GiOA9/RgDBUew5zh72Bt2AkcC12KcRPX4XpVXArQY8ZcDOIfR/AI6TkJOMXUd0nQRKzNdMTk4AmK89QhQNeJQWh/Yxu+OcnBgPEj0Lo5HinogRlzB4F/PBgj3lmLsIRTiAldgqCJa5HpOBnBE2wVJzYReoKj88dj/g/HkBC9HR+PnoTN970xa3ag4oSa8NBpWjBGG6dg+chXsWTHUSTEHcKaaa9i1rYUlNu5yk+T/I6IVZ9g0fdn5d/rpAK5qeEy/1f+7D/0s0Z1bzg+a8JF+8kfYYzhKSwZOwMbIxKRGLkJH05cgTOtx2PmOEvFeerhdZqG4NHGSFk+Eq8u2YGjCXE4tGYaXp21DSnldnA11tDYQn3oiyqQEfM9dh+/qkG5vIZjtAYN6qbRvtWcuKg/xgU9ZmDuID6OB4/AO2vDkHCKyaNLgjBxbSYcJwdjgi0HAu/pCB4qxLE5w2XnnDjG5KBxE7GuOnDV0pg81FiE+voQVWQg5vvdOH41v4X8Q8MY04jmtU9yONC3sYUpZSJ66378fOUazscxuh/7BuQqLIPmKtSgbhwjWOAmolfNwJsr9yH25zNIOPI1QnanQbtrf/gxsdA8/eig76TRaPPreqz7xQzDJ/SHfEGLptWzJfzrRfpos6AWpiwznBaO8iJbQyHx+CIycepBr4Ucr16hvOwWHQ4OILfWOsQXmZLLwA8pdN9H5CpqaDaf7Mmr/KOlRRy+DhnbdqYBUz6jo5mKaR4ylGfzKQ5VIaHs3UFkxeXUO5uv9Ng0suYKafCWh4ojNSmjzPCFNMrLlgyFPKYeJuTU4zUKOX6HubvijFuHKTjAjVrr8Elk6kIDPwylfR+5kqjO2XwSyoldTqM8rEiPzydtI3vqFrSYDsZ/QX1FBjRs233mHPlMEn6nqRTyfj9yZHQsMnIkv//7ihJVZjAUU/r+eTTS00Yun54FuQ2cQVtTFYsnNHIF9Cep22jmwA5krisgkVkHGjpvAY221lbM5pPz9PJOmhXgTlb6AhLompNL38m0Kja7qow6EafRyq4C4rSeREcq13ZQS42ZYgqehb9OJgLlGYBP6fLOWRTgbkX6AgHpmrtQ38mrKDa78u/qynlCPwQKSdBvPVXNAhbfov/1FJDhuIOyr7LZLtqDaMm2WeTvaEhCoQHZdptEXyXlKma6yGfjCLxDqOYi6cXp+2neSE+ykcWEHlm4DaQZW1OrlrKg0gSaac8lgf86xYHayGfzKcWA0kdLe6TirIbqrkF8qqE4bS/NCexE1oxt+Trm1OGV2bQnTT51qN7ZfFKK02n/vJHkacPojMcnPQs3GjhjK1W6omy2lsCTlqoalV43EZDXsivy75KHFDOvB1mKuMS1nCo/1kC5msRoTRrWTUP6rT0brPFxoWGMP71MO2cFkLuVPgkEumTu0pcmr4olJVNLA5e2zRxIHcx1SSAyow5D59GC0dakrTKbT0DeIWlKOtEgD6nJEVK5w183IYHXMlI7GZdB8jCG5vWwJBGXW51/W8I/GBqKMVn8arKDQYPtkwZ5SJJDsctHkYeVHvH52mRk342CFh+k+C/6kshgGG27r262WTPyR1kmhS8cRV62ch2KTJyox2shdFwpqJuln/Jz9HFHPvGcP6KfZTNDFTSpnpq0c7VRzTNNK+NFoyX9h0nILCo8xy/z/fCNRyL2v9YScz9ailJE/J8txl57Dym/tvAq038Xkt/wvz4e2NDhCK5/P6RFZtqwsPxz+RfGOAvLf4DmDKr8a5HcPowNZztgtP9/YxPfv5OiX7dhT6oNgt7sx3akWFhYWFj+kbCdKTVwrQfgy7BtGFvvS1gszUFyexOCXB3hOOBrPAxYiFm+lTN3WFhYWFhY/lmww3z/KCqQd/UnXCy0Q88ejooXAf+hPL+O8G8OIk3fB2PfCIAz+1iKhYXhXxTjLCz/IdjOFAsLCwsLCwtLM2DHsVhYWFhYWFhYmgHbmWJhYWFhYWFhaQZsZ4qFhYWFhYWFpRmwnan/DGJc3bsUi75Ngqa7eNRGjPSDIVi0Lh5Ku8s0maL8J0rbSDSE5vI/v7YJ/zfxG1xStwXbvwXxJYQuWYTNp/MVB/4+xFf3Yumib5HUdMeqjTgdB0MWYV28fDuUF3IPJUrvnsWBDZ9j6ZJl+N+WCFx6UJ9ntlAciK9h/6eLsCGxni1eauhBRlE+nmgeOA0iTj+IkEXrEN8SQf0vpiEfbFE9NtLGjYqPwmRsXfQxFm5IROWuYC+Uinz8vCUEe6+2oNO2NOKr2Lt0Eb5NelB3LDaE9AV0lv8CtVdnbjzqV/9tPM/ozGf+5DB0I/2pbpFctWgof3kafdXHmvqvvVnnStf/Cop30ygdgcoq9H8XqqsTtxA1Vtl+IfeQIaE/I2aShwGX9Gy9qG//XuRmLiSeeV8K+blqjekatFAcqF2BvAY19PDszGfk7zCUNmoeOA2idpVxllo05IMtpcem2Fjz+JDQ/R+Gk6FAQHyRH315o6XjqSZi+mPfRLLnG9DYA/JdE15KauwK0hTYJ1MsfwOluP7zWWSXtvRE0grkHlyK1dnDsWCqE7iKoyz/QLRHYGdeGS4s64QXugh4STw+/eA75PTagJTfziMx7hSuXD+B2W1+xYpZa3Hl7/4xXUMPpdd/xtnsUtk+Qi2F9oidyCu7gGXscusvBS/CxlVU3MHB3QngBEzGGKNz2LnjAl7YA/yKfJxbPx4DpuzFbfG/f9EA7jIGxf+bTfGvPyBkUzI4nbzQVldLcRQo+mUbQjanQuTjCRvp2oySB7gctQe7DkQi/sJtlBo7wMlUW35y8a/YtnwDDp6MQ1yc6uen30Xw9LKF4kw5z69gb8g6xBQ6oLuLUfW45fOrzPH1OK3VGT5tdRQHVZE8uIyoPbtwIDIeF26XwtjBCZViyB6vr1yP1Fa+sLwfwTjdQRw7exPFxo5wMtNGde2UkQ5FfYr1pzlw92qLShWIL4Vi2YZk8Lp4wk4kQfrBlVif2gq+lvcRsXMHDh47i5vFxnB0MoO2+oJliHMvIurAfhyOOInkjAfgWjjCxkA5AT5HzrlwhIYexNHEVPxRagQHJ1OFvsqRdng1wgt6YfoUP5gqFPU85xzCQ0Nx8GgiUv8ohZGyDmohxo0fv8ahPB9MG2WI5F0/4MCxZNwskt7HDCJl2Z/n4Fx4KEIPHkVi6h8oNaq0cSGSt67A1ijmuscSlOXlQ9jRG/Z60osleHA5Cnt2HUBk/AXcLjVuUH4VxGn4etp8/D7sG3wxxFrmC9JH7yvXp6KVryXuR+zEjoPHcPZmMYwdnWCmouz6dKcGmX+sw3ndrjD5/QC27vgRp9IeQ2TXDla6CuGkj44/ZXyQ4w6vtroKnxHjUugybEjmoYunXZXO6vVFGUW4FbsH2/dG4tRvpTB3KEHc2kiU+M/E5B6ybdwZ6tOfdGiqaX6HigL8lngE+w6EIepEEi5kFqJVWye01pHXszztMFaHF6DX9CnwqzRMcSbi927HnogkZBSbwlFwDt+uToBEEQMNxgn/OqPftYgXu8LHQY8xbe17VBT8hsQj+3AgLAonki4gs7AV2jq1hkws6RBayEZc1ndAQcwm7DyRgVKL9nAyFsiurUR8ZS++2H4LPUO2YoqrPJa0RDawfRyNbw/lw/ODCehSywk0jYMKFPyWiCP7DiAs6gSSLmSisFVbOLXWkecp8XWErT6CR77TMIQXh23bw5CY9gg6ts6w0lPoUeZncj20z92PlVujkHzzMSRlecgXdkRXe+lKVA3cR4YYeZcY32D8OzL+PLLKGZs4mECajmUxsjYeYlcfOMjikKHO+JWiuS816NfiXFyMOoD9hyNwMjkDD7gWcLQxqL8DXV/70Rw/rzd+6vBzJcQ3fsTXh/LgM20UDJN34YcDxxhbFclyqplqcqwz1xQmb8UKtTauX5cNyVaJJGMTPlx4Fm5z92Kq6CA2hBei+9vD4KQaFko8x5W9IVgXUwiH7i4wqir6ORPDIUwMa6EzE8M6NfXK5L71w/0wcUch+n8wBNxfMmA6ei6C3PiKE+qifhtons9rU68vlqfh8OpwFPSajil+pk17/0nxhKpFEN9YRT219Wnw5ntU/YDyEe191ZiE3VZSuphI8iiRlvQ2J76OFXXs6U+93C1IJLSjERsu0zPp6fnRtHD4EBoyRPoJoIChgRTYy4l0tbhk9foReiwrUwnJPfpuiD4JvD5V2WCzOOYdshV0pI/PqXvkKqFHiUuotzmfdKw6Uk//XuRuISKh3QjacFkmheLxupC6DHmFbIztyKt3H/Jso0McbWd6JypPqX7KqB+KKt49inQEqhtlCrsMoVdsjMnOqzf18WxDOhxtcn4nivLqeLJbdmUtDWrNJ0OHruQ/0J+8bfWI28qLFiYpdnMWZ9GR6R5kwNUlG8++1K+HC5kIBGQzdA2lyE6pKZuYso5Mlw1v6Np4Ut9+PcjFREACm6G0Rn6BGuSy8yw7kYe1ESO7P/l725EeR0jtpoZT5b6W4qwjNN3DgLi6NuTZtx/1cDEhgcCGhq5JoULKp5MrxpOvNZe4Vl1p1MSFdOQOc6HkESUu6U3mfB2y6tiT/Hu5k4VISHYjNpDcJA0P88k2Axa2o9mnq3fjlD16F3ahIa/YkLGdF/Xu40ltdDik7fwORVUqu0HdqUEx/NLRvw9ZmbSjXoMHUVdbXeKZ9qJPTyuGh9Q+Oi6m3aN0SFC14bUGvlh+g34Isich35DsvXuSTzsTMnbrTI58pWG+BvXXNL+j0su0LsCaBEy8du49gAb07kxWIg7xbSfQ3mz5RTWHGMpv7aIJTiISmHekfgH9ycPKhNz8fclauzIGNIiTBob5Si+vowBrAaOzztR7wADq3dmKRBw+2U7YSzKxZENoQnJycyELZ1/q7eVFb4XVyh518JSiplgT32IKRSlMoIomcVBKl9cFkLWAsUfn3jRgQG/qbCUiDt+WJuzNlucPmYw8su7UmSwMrMmjR3dqz+QcvllfWnH2qfQMFT08OLmCxvtaE5drRV1HTaSFR+4wJ2hwH8mfFPWhFxlydcjaozf5d3MkQ56InCcfoCyZqlWHp+qPXyma+JIGfl12hdYOak18Qwfq6j+Q0aEt6XFbkdfCJMV9atNg+9FUP28wfmr7YE1keuRZUicPazJico2/vzfZ6XFI2G4qhVcnx3pzTb5aGzesS82G+cop5RN34huPod0PJVT60wfkxDeloL11begvRUL3vhtC+gIv+lS1gaV3bJn89/E5pc2ulShLoS2L1tDx359Recbn1F3QquFhPg1soFE+r4UGvtgCw3wt+86U5A9a31+XdAduJGn7KDuUt5NGGepQnzWZjJCFFPOuPfGtR9OWtCL5CUziSvmsLxnpdKOVV9WY5elZWuprSDrus+gk4wC1kVDerlFkxPegJRcrry+UJUNhXTuYF8bQu/Z8sh69harFSKHP+hqRDtPpk4khS2Ic4tqMo9DfS+XnPGauc+KR7tCtlCc/UgPNO1Mcrg2NC/2dSYVSHjN6cSKe7lDaqrbgMkr6wJEELrPpVKU/Fp6lBV6m5PzeUSpidJCzazSZ8qxo5HfpiqTC6CV+LnnpCsl9QTLzXVU2Sc4uGm3KI6uR31G6wp8kefE010uXhO4LKFlRZVUqZbem0T/cYqSS8pR+mtWe+HqBtE0quySHdo02JZ7VSPquumCKn+tFukJ3WiArOJ+2BghJ0H9D1TtThTHvkj2fKXdLGlMfOU9TPqO+RjrUbeVV5ltDnSkx3fjClwStxtBepUwsCz4Ol2zGhVK1Gd8lJ54uDZUpWxPdqaHSPyyH06Y0hVHyk2mJrz4JPZeQzBU16Uw16IsSur9zFBnz29L43Qqdi+9R9Ax30tbiV3WmGtZfU/yO6OHuMUxsudDMuOqOyNPTc8iNr02DNuXIvqskckku7R5jSnyH/6PDd+TBJ7kfQx900iYtfkt1ph4y9zAivstMqhbrKZ2e40Z87UG0KYdxKllHhen0dQyms5UK0ZD8n4LJQySg9h8lVelSFQ3i4OFuGmPEJ5eZcdU/AJ+epjlufNIetImkIlbKyLUIoLWX5E4ryY2jOUwMansvl7+PVUMP+VsDSCjoTxsqA0eD+zw9OpVsmEbzlW+uMJqXUkY3NwcyjZY9zUwolcdIZWdKo/jVwJc0yLFlSR+Qo8CFZlcnNTq7wItMnd+jo2oVr0n70TQ/bzh+avpgbSpzjfXoH+iW4vfc059mUXu+HgXKk6NGuaaWjTXQpUadqWc/0QdOfLJ8I5xkP/fKU+iTjnzSG7CB/lDcSh2SvF00ivExjyUXqzpOhVFTyFroRcvUNrCqiDXsTGlig4bzuRo0ae9funemODZ49TV/8M4cRvhd6TvxFciLPIQESS+MH9sW3NIkHIrIhkWfwXB9ehW//PIL80mDuHt/eCAVkVGZ8nIqkdzG7rfG4/PM7vjf/v9hoIk6cTkwG/YaBhumIfzQJchecSiIxcHox/AMGgfFk3sVSpMOISLbAn0Gu+LpVakMzCdNjO79PYDUSERlShRncmEd+BaC7BX7xhn1gr+nLp7n5uBB5SlNhGsdiLeC7GWP2ZmC0cvfE7rPc5GjtmAODI0MQFlH8fWqHYi9mosyPV98fv4BbmwcCl0UIDY8DgUdJmPRlA6KR6KMXvotxNwAHWT8eER2RJmC2HDEFXTA5EVT0EHxqJNj1g8L5wZAJ+NHHEmteySdYzUM0yc4Qv5kWB/d+nij1fMcZOcy2md0Hx5XgA6TF2FKdcHot3AuAnQy8OORVPkxFUqRdCgC2RZ9MNj1Ka7K/OIXpIm7Q26SKMV59VGO6+m3QG2c4FDzkTXXGoFvBaHajP7w1H2O3JwHzLfG664aLpxf/wRTXBXDyIbdMXvmIIiuRiPiumYv2zTsi08QH5mAQtfXMX+cQudcKwxeNAN9qoYONNdf4/wOMBi6GknJkVjmXzmUWAEtC2tY8iQoyC9QHFOiOAE/xjP2n/A+RtjIg4/TeiA+eb9f7aGAJmOAoauTkBy5DNViacHC2hI8SQHyCyrfz+CgTd8AxtaKrw1SgfwzKzE66GtkeS3G9k9717v5dr1xYDAUq5OSEbnMn9GynAotC1hb8iApyEeViFIfemMx3u0sH8rhmPfHxzP7g385ClG/aZBkGrxPGc5ExOC+5RjMeccdck8VwGnqFiQmH8eiboqgqKQR8VufL2mSYzmGRjCgLBz9ehV2xF5FbpkefD8/jwc3NmKoOsU3ov1onJ+3RP5RwLHCsOkT4KjIQfrd+sC71XPkZOcy35qWazRvr+qnKG4XjmRZYcSkQUwEMfC6YOL4Lnh+ajt2MuXVBcdsGF4bbIi08EO4JG9gEXswGo89gzBOXQPbJBphg3rzeW1aSn8N0bKdKaY4i5ETMEj0K8LC/oCkIgc/HkqCVv/XMNqSg4onWch6VI67e9+Gn68vfCs//RYjsaQCudn3FOVIKcDppeMwI1IP07bvxHTXmi2kEoZDMGGYOW4wxr7A9AHyYw7geFE3jB3bTs1LyBV4kpWFR+V3sfdtv2oZmE+/xYkoqchF9r1Kx9KCiZmpUhkcCIQ8aJEEkma+T6dlYgZTJeE4AiF4WgSJ2oJ56DhrHVYO4SHxsykY1LkNzOx8MGLmN4i/w1RYkou7956B6+AMFxXf1oNTO2vgfrbieyUS5N69h2dcBzirXgA9p3awxn0lHdSGY2oOM2XF8viMhGKImUskuXdx7xkXDs4uqu896DlBLoqyjRVUPEFW1iOU392Lt/2U/MK3HxYnlqAit6b86ijD48dPmexlAMOaRtcygZmqsiHkaYEkTBA1WnfK8ODYvr2iMZWjY2cHc/yJu3fq1l81GvjinXu4c6+E+Z1iD3sl+ThG7eBorgjfRuivcX7H1NDQAvpP4vDV22PwSi9PuFgbwdh1PpLKAKqoPYlY8iAbOcUcWNm2VbI/B0bOTrCoaZcmw4OhhT6exH2Ft8e8gl6eLrA2Mobr/CTGCwjVYnFgrBK/9fEct498gIGBnyLdfRkiIz5B9wY2xqsvDhjFwUL/CeK+ehtjXukFTxdrGBm7Yr5ccYzlK+GibTsXFR/St2/L+NB9xi818KEG71OC7OyHgI0jHJRfV+FZwtXLBa1rvE7amPit25ckGuVYXsdZWLdyCHiJn2HKoM5oY2YHnxEz8U38HcYatWlM+9EoP2+R/KOAYwpzVacAn1GkWJ4cm5BrGtNe1cdjHA2NRE5FMRKXDETPnj2ZT29MO3APnPLL2L3tLBM7dWGIIROGwfxGOA7JG1gcOF6EbmPHop1mwdUwjbFBffm8Fi2lv4Zp4c4Ug0kgJgw1wLmwMNzKYpR/RhuDXxsOad7nCLUh5PDhsyIdYvkQo9JHjNsb+ykKESNz+xS89r/b6PrZfqwJMG9AUD0MmDgC1pkROHz+Po4dPIkyv3EIslNnaQ6E2kJw+D5YkS6uIQPzEd/Gxn7Vv9a0tBr5c1p6PpPNlUO2rLSsdueLOa8xJXOMeiI4LB05WSmI+n45pvnpIW3XHAQOD8G5chFE2lqoKC5CkUr7JkHR02JAW6T4XokWRCJtaDGBVaR6ASRFT1HM/GYSadej8Xpk1xKJoK1VgeKiIqUGg0FSBLkoil+7ynCE0BZywPdZgXRxDXswH/HtjYoT64MLLpeRSnqN4kg1jLx1C9xI3SlDKH32TKWeVFjI6E8Xeq3k+pO7g4o3oLRMopBRA1/sbwgdEZMoaslXirLninIbo79G+V0F7oROgt+QBQi7ZwLvwLeweHM0rtzagkA1ZpTC1WsFPS6hmNGDil6eMfIqq0GumIbjRB0VdxA6yQ9DFoThnok38yt1MTZHX8GtLYFVL6pWosXhaFDfQpxfOwa9J2xHUeAWJEQthJ+xBqmxHl1W3AnFJL8hWBB2DybegXhr8WZEX7mFLbUUV9uHKoqKmS6QLlpVvgxeDw3fR8D4N9NyPytBibJuK/KReekqsvJVG5JGxW+d9dcwx3KM0DM4DOk5WUiJ+h7Lp/lBL20X5gQOR8i52t0pzdsPhsb4eYvkn0paOtc0rr2qi4qcMOyOeYI2/mMxok8v9Ool//QOeA3DOwnx+8FtOKbmQXMlegMmYoR1JiIOn8f9YwdxsswP44LsNPyhogGNskE9Oq5Fy+hPEzTIGI1FH4OYXqxZahS2bT6MXw2YzlWA4gG0vie82gPXoiOQoRTDkswdeHdYEJYekz6mq0B+4icI+iAaum9uQ+gH7opHtfWj7TcRo+3/QMyBjQj7ieA/bhQs66idvqcX2uMaoiMy5MOCMiTI3PEuhgUtxbEmLwzIgTZjOHryEA+rOskluHgxgym9GVQ8QEzIRIxdFotyKy8ETv0Ya/bEIXKeJyQZKbhUaAlvTzvQhRhE5yjJXpqK44nZ4Lt6Kg5UwoGltyfs6AJionOUkmYpUo8nIpvvCs9O9TwJrAeOpTc87QgXYqKZX0GKgwylqceRmM2Hq2cn5psWmDZOCX14yh0DEaqOgR3vDkPQ0mOKA/XBh6WFKfMDLA95jVE2p7G6U0aMy4kJeFh1WQnOnTyFPAMf9HRn9MfRZhIE4cnDh9X2L7mIixnVAjboi4/M0M3HEXQpDieUFgMsvZiE5KoV91pCf2qoyEP0rijkuc3GgagtWDl/OiYN84P9vXTcYNq6CjVPpmDcDd1dgSsnYyAb6ZdRhkuJZ5FbVe3mxUlFXjR2ReXBbfYBRG1ZifnTJ2GYnz3upd/Ac8ab1YlVN2VI2zgOw4LPwnZOBJJ2vonKUdumU4G86F2IynPD7ANR2LJyPqZPGgY/+3tIlytOKebEuHb6JyUfKsYvJ0/joaEXunWsHYPSzmE1mtxHG1283KD122kkZVdrV5K1C2/19MVb+6TDT9VoFr8N03COFeNBTAgmjl2G2HIreAVOxcdr9iAuch48JRlIuaSmZdeo/WgKLyh+aqJhrlG1sSa6bMjhJfhj/24kPHPF61+sxaovvsAXVZ8v8e28ITDMi8T2I8ptQQ20/TBxtD3+iDmAjWE/gfzHYVRdDWyTeHE2eHHtvSotqY0qdPpOwug2v2L9ul9gNnwC+lc+Lud1wrTg0TBOWY6Rry7BjqMJiDu0BtNenYVtKeWwczWG5LdteHPi17jlMh3LJ1viTsqv8jFO5vNrym94VFe9BV0xMag9bmz7Bic5AzB+ROs6K8frNA3Bo42RsnwkXl2yA0cT4nBozTS8OmsbUsrt4KrJr1K1CNCluydEmaH45JOdiPkpBqFLJ2D6wUcQNEfTzC84C9xE9KoZeHPlPsT+fAYJR75GyO40aHftz/yKFqDHjLkYxD+O4BHvYG1YAk7FhGJJ0ESszXTE5OAJioKqEfSYgbmD+DgePALvrA1DwilG1iVBmLg2E46TgzHBtokCC3pgxtxB4B8Pxoh31iIs4RRiQpcgaOJaZDpORvAEW+YkIfT1RajIiMH3u4/jaj4HnaYFY7RxCpaPfBVLdhxFQtwhrJn2KmZtS0G5HdM6Nwgf7h6u4GVfR3p+Y4Kj8bqrpgIPf/wQo2Z9i4gTR7H9kzGY+O2f6PL+RxhuyPxZ0AXdPUXIDP0En+yMwU9MuUsnTMfBR4Iq32zYF7XhPT0YQ4XHMGe4VL4TOBa6FOMmrkP1a1m8FtCfGjj6sLE1BWVGY+v+n3Hl2nnEMfce+8YmxhuZbkjZM/l5yvDc8c6CcTBMWIARU1fjcMwx7Pl0PCauS1dKZM2LE46+DWxNCZnRW7H/5yu4dj6OuX4s3tgkkwplzzR5vCVHcn09pi84gaJOYzGx4wMkHNiHffsUn4OJ+K1EcWKj4EDfxhamlInorfvx85VrOB/H2H7sG5CLWIZqEZnO9tH5GD//BxxLiMb2j0dj0ub78J41G4H6ilOUEOrrQ1SRgZjvd+P41QIN7sNF+8kfYYzhKSwZOwMbIxKRGLkJH05cgTOtx2PmOEt5wZVoFL8N07Bf82BkAdyMXoUZb67EvtifcSbhCL4O2Y007a7o72esKEkJDdqPpvGC4qcWmuUaVRvnN7+9El/Hnr3JEHcag3GdVcYXZZgMm4TA1oWI274bt+r8NSNA14lBaH9jG745ycGA8SPQujltWi1enA1eXHtfA3ohlNO5jzsSn+dMH/1cPU1dTjGl759HIz1tyFDII76eBbkNnEFbU+XTyWUzGaQZRs1HS2cU7a5nQoA4bSV1FXCo9aQj8tkK9VGcTvvnjSRPG0MS8vikZ+FGA2dsJYUY0mkDKrNo5Dyj8NdNSFDXLEEpZbfocHAAubXWIb7IlFwGfkih+z4iV5HqbL6aqyc/C3+dTAT1zI4oy6TwhaPIy1Yur8jEiXq8FkLH71TPPXh6eSfNCnAnK30BCXTNyaXvZFoVm62QX80MqqeXaeesAHK30ieBQJfMXfrS5FWxlF1X3eqSPXIytRZ0psVVsymf0uWdsyjA3Yr0BQLSNXehvpNXUWxVwRJ6GDOPeliKiMu1pKnR8nktxen7ad5IT7IxFBKPr0cWbgNpxtZUhS0bms3H2D9zDfXRMaUJhxTTyhlUZipV8iycXjcRkNeyK4oDDelODTL/4FOnqSH0fj9HxpdFZOToR//3VaJ8ppaCsluHKTjAjVrrMDYzdaGBH4bSvo9cSVS1NAJDQ77I8CR1G80c2IHMdQUkMutAQ+ctoNHW2lWz+aTUr7+m+Z0kJ5aWj/IgKz0+8bWNyL5bEC0+GE9f9BWRwbBtsnNqzyR6Rtf3z6EhruYkEuiRtc8b9NX8Qcz/K2OAoaE4qXc2n4RyYpfTKA8r0uPzSdvInroFLaaD8V9QX5EBDdt2n7leOlOugdXFmb+khfgQX02ukX0E/rROsfyDKhrEgSSHYpePIg8rPeLztcnIvhsFLT5I8V/0JZHBMNomnSovk1GbBi3ZRrP8pT4kJAPbbjTpqyTKrbxtDT1IHsbQvB6WJOJyyXJqtGb3YShO20tzAjuRNePffB1z6vDKbNqjmIVaO0Yail8NfalBvy6jzPCFNMrLVt4WiEzIqcdrFHL8Tj02q7/90Fg2NdQfPzV9sDbqc00kTW4toM6LLyoONJxratlYSgO6rE+2sl/mkytfQN0/u16HXp9R3Hv2xOW70YJfa7bXSojTaGVXAXFaT6IjVTZsGE1n80lpyAaa5vNaNOSLLTCbT0v6D5M4/hVIfvsf+nhsQIcj1/H9EI2n8LD8W6j4Ez+MdMfCVluQsXuMfMbKi6I0Av9nOxbX3kvBry96le5/ASV7RsNsykMsz0jEHPsWe9OChYXlr0LyG/7XxwMbOhzB9e+H1DvT9b9Iiz6o+3spwq/b9iDVJghv9mPN/J+EY4Xxc9+AYcw2HKh+YYeFhYWFpZkU/boNe1JtEPRmP7YjpYZ/QWdKgtubguDq6IgBXz9EwMJZ8G2Zl/NZ/oHo+H2MFQE3sH7tWTTpdRcWFhYWlioktzchyNURjgO+xsOAhZjFNrBq+VcM8z2/Ho5vDqZB32cs3ghwZnvN/3EqHiRhy7Zc9P5oLOpbnqxZVOTh6k8XUWjXEz0cG1iQiAUVORcRf+U52vXphrZ1LKvAwsLyEvL8OsK/OYg0fR+MfSMAzmwDq5Z/1TtTLCwsLCwsLCx/Nf+id6ZYWFhYWFhYWP562M4UCwsLCwsLC0szYDtTLCwsLCwsLCzNgLuMQfH/FqAC92K+waqtEYiNi0Mc84mPT0DS2YvIzBeijZMV9Cq7b5IMbJk6E/EWQ9CzzYt6S5hFc8RIP7gSa+PFcPVxgAbbgrE0B3E6Dq5ci3ixK3wc9DTfR6wxiK9i76frcZrjDq+2ui14DzEuhS7DhmQeunjagX/9IFaujYfY1QcOL5Pj1NCx5Np+hKz7CdTRG/a66uSsEQMSVf1J0huqp6peRE1WRdPKEV8KxbINyeB18YRdk24uxtW9n2L9aQ7cvdpCrYoapIXyiPga9oesw0/UEd72dfiu2hgqQv4TTv17izaGeuK04vEpfLdyM45mG8G7sxVeylbsheSA+uOkZe7xD0T6AnrLoVj5nNOK2nRwIzc35uPanpysDUmgxSWTnkvpdNXKqRLK/mEkWXstol/lC2Cz/K2oXzmY5QWhdoX9FqYFVvVVTzHtHqVDAsUq7mpXJX4ZqKHjZ4cnkJHAm0LS6tJGjRioob+G66mql6bTtHKKd48iHeVV5htNw7sMNEwL5RFNVrCvGUPPztBn/g40dOOfTOvSQtQZp+V0bWU3Ehn2os9TX+IG7IXkgPrj5L/Kixnm4/th2dlruHaN+aRdx83s+7ixbwJa/fo/fPL9b5Bv/8OB9YT5mFT2LRb9cFtxjOXvQxsjduah7MIydGKX837xaI/AzrwyXPgXrJ6uPWIn8souYNnL5jiN1nH9MfDS1vO/Sk37ll7Hz2ezUdqS89Pr8iFxBhKvtcIb63cguMt/ba0Ptq1QR4sP8/0Z/x1+SDZA4NyJ8KzyMR4MnQS4unUfUkwG4/1hTnLH5FnCKj8ci77PRb+3BsG2pmGeX8HekHWIKXRAdxej6he8nl9ljq/Haa3O8Glbxxbvkge4HLUHuw5EIv7CbZQaO8DJVMnpxbm4GHUA+w9H4GRyBh5wLeBoY1Bn0hVLH/GvT0UrX0vcj9iJHQeP4ezNYhg7OsFMW+nBZkP3lSLOwyXmnNCDzDnns1Bu6ggHE6WF0JotewUKfkvEkX0HEBZ1AkkXMlHYqi2cWuvIdSh7hL4Rl/UdUBCzCTtPZKDUwgnP476s9Xj+ec45hIeG4uDRRKT+UQojByfUrE4tijMRv3c79kQkIaPYFI6Cc/h2dQIksuEHidqhBHVDFJIHlxG1ZxcORMbjwu1SGDd4bzFyL0bhwP7DiDiZjIwHXFg42sBA2aia2EcJsXRoaONl6DsUIGbTTpzIKIVFeycYC+qTrxi//hCCTckcdFIZLinCL9tCsDlVBJ9OhYioMXwgzr2IqAP7cTjiJJIzHoBr4QgbVeHx4HIU9uw6gMj4C7hdagwHJ1MmtdVBeRoOrw5HQa/pmOJnKrd9RQF+SzyCfQfCEHUiCRcyC9GqrRNa69T/u6roViz2bN+LyFO/odTcASVxaxFZ4o+Zb/aAfkbN4a/67CAfIlh3XhddTX7Hga078OOpNDwW2aGdla7KS5z1+p5s+GU9Ulv5wvJ+BHbuOIhjZ2+i2NgRTmba8qGGmsN818Ow+sgj+E4bAl7cNmwPS0TaIx3YOle+flBj+EKsqr8KNcN89enFSK7w+mNRQcPlqKHoFmL3bMfeyFP4rdQcDiVxWBtZAv+Zb6KH4qLGxVA50g6vRnhBL0yf4gfTRshfjRg3fvwah/J8MG2UIZJ3/YADx5Jxs8iI8VUzlSHLioLfkHhkHw6EReFE0gVkFrZCW6fWkLmi+DrCVh/BI99pGMKLw7btYUhMewQdW2dYVb4romxfs6vYtmIropJv4rGkDHn5QvTvas+cpJn84rxLjJ4YX2P0dD6rHKaODpClZHXDfM9zcC7iBG5IjKArLkCZkXIOkfvQ+tRW8LW8j4idO3Dw2FncLDaGI1N/5aaiFk2KzQbqpy4HMPkpM34vtu+JQFJGMVNXAc59uxoJki7wtuNrkJ8l9caJ9B712pbR0bX9Idh4WR8OBTHYtPMEMkot0N7J+OUcKtUUxROqFkIxzCcMoK35ikMyJJQX+z65Cc0paG+uyiPY8ouLqbPQjqbHliqOKCG5R98N0SeB16cqGwsXx7xDtoKO9PE59c+RJY8SaUlvc+LrWFHHnv7Uy92CRMw9Rmy4TLIHsmVXaO2g1sQ3dKCu/gPJ39uW9LityGthEhXKSqiN7BG/sAsNecWGjO28qHcfT2qjwyFt53coKk9eowbvKz3nzyj60MuQuDrW5NHbn7o5GhJP5EyTD2TJHpE2X/ZSurwugKwFOmTVuTcNGNCbOluJiMO3pQl7s+W6lz1CF5KTmwtZOPtSby8veivsT1J9PC+mrCPTycOAS7o2ntS3Xw9yMRGQwGYorUmpS0uMPW/toglOIhKYd6R+Af3Jw8qE3Px9yVq7cvhB/VCC6hCFhB4lLqHe5nzSsepIPf17kbuFiIR2I2jD5boeqZfRlbWDqDXfkBy6+tNAf2+y1eNSK6+FlKQQVxP71EQ2NCR0IjcXC3L27U1eXm9R2OOG5BPTjVU9SVt/MG2+p+Ttj/bSq8ZC6rYyncQ1hg/KrqylQa35ZOjQlfwH+pO3rR5xW3nRwmrhKXFJbzLnM3bt2JP8e7mThUhIdiM2UJ0qqfn4vfQyrQuwJgFT/869B9CA3p3JSsQhvu0E2qt2Q18p5XTjhyCyFzKy2XtTT592ZGLsRp0d+XUM8zVkB8UQQUd/6sP4Rrteg2lQV1vS5ZlSr09PKzY01cD3ZPoTUpchr5CNsR159e5Dnm10iKPtTO9E5Sn8XFXHMlvyrKlTZwsysPagHt3bMzHNJ7O+K+isbG/sxgzzNawXjWJRo3JqU37jBwqyFzJ5wJ68e/pQOxNjcuvsSPxmxVDN2NRE/prIdciz7EQe1kZk5+XP5Cg70uMIqd3UcFLsu8y44joKsBYwsnWm3gMGUO/OViTi8Ml2wl6SuaIsR/HIulNnsjBgcmWP7tSesTffrC+tkBtLapBq++afpBXjmTzD5ZJV11E0ceER5gRN5JfQn1Efkpchl3QYn+jt340cDXkkcp5MB7IYJdTwIXHWEZruYUBcXRvy7NuPeriYkEBgQ0PXpCjyr7z+wi5D6BUbY6b+vamPZxvS4WiT8ztRpGgqatOk2NSgfjVzQPkt2jXBiUQCc+rYL4D6e1iRiZs/+VZtmq5Jfq4/Thq0LXP94QlGJHRyIxcLZ/Lt7UVeb4XRY+mf/sG8oHemjMm5Ww/q0UP68SVvd1sy4BuQ99yYqmCq4lk0TbUUkPsnKTJnVYXphO0aRUZ8D1oi3YldRiFFTbEmodcylQ5WNYUU86498a1H05a0IsWxp5TyWV8y0ulGK6+WU1nSB+QocKHZpyp3sS6kswu8yNT5PTpaeUkNZImUwyWbcaH0u6Lf9zjmXXLi6dLQrXnMt4bvK/1+dKoN8U1foW+uKO5ddpM2BzINvP1MSihtAdkf7qYxRnxymRlX7ZxPT9McNz5pD9pEOVL9yxIVE6gdg+lsVX1VA0SSs4tGm/LIauR3lK7IvZK8eJrrpUtC9wWUrKbvS5Jc2j3GlPgO/0eH78iNI7kfQx900iYtfiM6U4Ux9K49n6xHb6FqNaTQZ32NSKfbSpKpsiZlSfSBo4BcZp9i7iCn8OwC8jJ1pvdkitHEPrWRNcBMIugYfJaqVKWBfJI/1lN/XV0auPFOVdLO2zmKDHX60JpMpo4qSbqMkj5wJIHLbKo261la4GVKzu8dld23kPE1e741jd6SViXH05TPqK+RDtM5u6o4UoMaSe7h7jFMLLnQzLjqtPX09Bxy42vToE05iiOqSO7vpFHGfGo7fjfdkm0oL6Z70TPIXVuL+Oo6Uw3aQe5nHK4lDd+Upjgnn5KX+JK+0FMW5xr5nkx/HOLajKPQ6oCkd514pDt0K0kjsmZDKLcllywC1tIlWcsnody4OeSlq03eyy9Lz6i3kVCupyZ60SQWNSqnJpL7tHOUMfHbjqfd8otIfC+aZrgrxVlTYqhmbGqSS2pRaV/GV3+4xXi2lKf006z2xNcLpG0ywzxk8oQR8V1mUrUrPqXTc9yIrz2INkkLVuQorkUArZUbi0kvcTSH8QFt7+Vy+9SwL+VvpQChgPpvULwzpYn8T4/SVBs+mb7yDVWn5M0UyHRC7WcmUKnyPSQ5tGu0KfGsRtJ31Y5J8XO9SFfoTgvkjqmovw2NC/2d6e5IeczkHifi6Q4lWVOhhqbEpkb1U/Fhxt+Z+5jyHej/Dt+R64zxpZgPOpG2Fr+FOlMa2Ja5XtqZ4vA7UnB1A/SPp77nh02H0wptOrrD3V3+6dzZC53sCJe+n4+lYXdU34/iO8GJ+dvv1zNQqjhUDQdmw17DYMM0hB+6BLH0UEEsDkY/hmfQOLiqG5MrTcKhiGxY9BkM16dX8csvvzCfNIi794cHUhEZlQmOoREMKAtHv16FHbFXkVumB9/Pz+PBjY0YWt9S+VxrBL4VBHvFiJxRL3946j5Hbs4Dje6LsjOIiLkPyzFz8I67YnhS4ISpWxKRfHwRulELyG4wFKuTkhG5zB9G8jugQssC1pY8SAryUVD1PgEHbfoGMPIrvtagIDYccQUdMHnRFHRQPMHmmPXDwrkB0Mn4EUdSn8sPKlOcgB/jC9BhwvsYYSM3Dqf1QHzyfj/o1Pd4uwalSYcQkW2BPoNd8fSqVAfMJ02M7v09gNRIRGWqecOOYwgjA0LW0a+xakcsruaWQc/3c5x/cAMbpYrRxD51wWmDvgGeVdsUaSIfx+ZVvObPw5nD4ZDtuVyRh8hDCZD0Go+xbbnygqrgwNDIAJR1FF+v2oHYq7ko0/PF5+cf4MbGocx9S5F0KALZFn0w2PUprspk/wVp4u6Q3zJKUU79GAxdjaTkSCzzr/IMaFlYw5InQUF+geKYKoXxkUgodMXr88fBUfYMngurwYswo49I/aydhuyggOv8Oj6Z4gp5FBii++yZGCS6iuiI643wPS6sA99CUHVAwp9x6Oe5OXhQ10uYXGe8sfhddJbtAMSBef+PMbM/H5ejNNNhJRrpRYNYbLR+pRTGIzKhEK6vz8c4+UXgWg3Gohl9qobRmhRDNdE4l9SGYzUM0yc4KoZt9NGtjzdaPc9Bdq40ixtg6OokJEcuQ7UrasHC2hI8SQHyqwrmwvmNxXhXbixwzPvj45n9wb8chajfWkb+sjMRiLlviTFz3kF1Sp6KLYnJOL6oG1R2oWPanvA4Jr9NXoQp1Y6JfgvnIkAnAz8eSZUfY+BaB+KtIHvF9Ubo5c/kj+e5yKnDMZsSm423TzESfoxHQYcJeH+Ejfy1EE5rDPzkffRrTIKuF01ty9y6TV8E1NUA/QN5MZ0prismfLUZmzdLP99ha2gYTl09hWVut7D1gyU4Wqg4TwrXBMaGHJQ/eYx8dRv9Gw7BhGHmuBF+CBeYHJofcwDHi7ph7Nh2TKjVpuJJFrIelePu3rfh5+sL38pPv8VILKlAbvY98DrOwrqVQ8BL/AxTBnVGGzM7+IyYiW/i70BNF6EaLROYmSrdlSOAkKcFkkg0ui9KspH9ELBxdABfUYQUnqUrvFxaQ7slZOcZwkL/CeK+ehtjXukFTxdrGBm7Yn5SGUAVTIhWwoGxmalaHUrfzcm9ew/PuA5wdlHtseo5tYM17iP7nqxrq4LkQTZyijmwsm2r9P4WB0bOTrBQfyM1VOBJVhYeld/F3rf9qnXAfPotTkRJRa7aezOKwax1KzGEl4jPpgxC5zZmsPMZgZnfxOMOoxiN7FMXHGMlu2soH8cCIycMgujXMIT9wfhHzo84lKSF/q+NhmWtqOOh46x1WDmEh8TPpmBQ5zYws/PBiJnfIF4uPLKyHqH87l687acku28/LE4sQUVutqKc+uEZWkD/SRy+ensMXunlCRdrIxi7zofcNdQFnwT379xDCccG9vZKfsAxQjtHc/XJowE7VMJzbI/28pZWjo4d7MyBP+/eboTvacFExYc5EAh50CIJJHU19Ny2aOeifGN92Ldlbnz/ruK7JmiolwZjsQn6ZZDcv4N7JRzY2Nurxlk7R5jLLmpiDNVE41xSG46pOcyUY57HZ2QVQyy7LQ+GFvp4EvcV3h7zCnp5usDayBiu85NQBkK1K3LRtp2Lyns0+vZtYc74wN0Wkr8kOxsPYQNHB5WMDEtXL7i0Vn0fV5J7F/eeceHg7KKkdwY9J7SzZlxIKYdomZhBtakQgqdFkNThmI2PTYbG2kfyANk5xUxH1xZtVdzNGU6aJ+gG0NS2zH2NVXX0T6eueG15tDtidIArOA8vI/V3pUCoEEMiZhyMw1V10Cr0MGDiCFhnRuDw+fs4dvAkyvzGIchOvRU4Qm0IOXz4rEiHWD6MqfQR4/bGflLvQc/gMKTnZCEl6nssn+YHvbRdmBM4HCHn6utOaUGrjg68RvcViKDNVPJZSQnjVtVU5Gfi0tUsFHCbL3vFnVBM8huCBWH3YOLN/DpavBnRV25hS2Dtt061OJw6fv1qQSTShlZFMYqKVENSUvSU+X2jrXYdF65eK+hxCcWFhSqBTM9KUaZcYakSmahSPlRWWqZoADkQagvB4ftgRbq4hg6Yj/g2NvZT+b2ogGlMegYjLD0HWSlR+H75NPjppWHXnEAMDzkHsSb2qRMtcDiVmtJcPpPACRhqcA5hYbeQxfwYOKM9GK8NV99Icox6IjgsHTlZKYj6fjmm+ekhbdccBA4PwTmxENpCDvg+K5DOxErNe4pvb1SUUh8VuBM6CX5DFiDsngm8A9/C4s3RuHJrC9S4hgIt6OiImM5JbT8oLXuuYr9q6rdDZXRR6TM8U3GSQhQWA7p6Bo3yPa26ArIuqBTPVG5cgaLiEubGrRTfNUEzvTQci03RL3OVjg5ETMNcXFSk2mAyMfS8WTGkSmNySS0Yu9RpmYo7CJ3khyELwnDPxBuBby3G5ugruLUlsMZkCkLps2cqdawoKkYJdNFKgwWsNJFfwPgaD89QUqKs7QrkZ17C1ax8+WiIAi0Rk7+1KmrrXVKEp4zvajNlVVFf/WvRlNjUrH4qcPUYvXFBxUysKVeAnjGuo1T/evNzA2hsWwYtDqrS6r+Av64zhQKkZ2Sjgm8Bq9ZKt2V+Jd1/RNCzsIRBHdJo+03EaPs/EHNgI8J+IviPG6Xm170CfU94tQeuRUcgQykSJJk78O6wICw9losHMSGYOHYZYsut4BU4FR+v2YO4yHnwlGQg5VIdj1QbosH7PmAq0gVeblr47XQSsque9kqQtest9PR9C/tKPJopez7yonchKs8Nsw9EYcvK+Zg+aRj87O8h/Yb0CUf9vyar4cDS2xN2dAEx0TlK15Qi9Xgisvmu8Oyk/HtRgXE3dHcFrpyMkQ9tySjDpcSzyK2qLwfaTKKnJw/xsOpYCS5ezGA0IUff0wvtcQ3RERlKyUyCzB3vYljQUhx7ULsWFQ9iEDJxLJbFlsPKKxBTP16DPXGRmOcpQUbKJRRoYh8N0Vg+/UGYMMwMqVHbsPnwrzBgOlcBlY++lal4gJiQiRi7LBblVl4InPox1uyJQ+Q8T0gyUnCpQB+ecuERoSo8drw7DEFLjykO1ENFHqJ3RSHPbTYORG3ByvnTMWmYH+zvpUPuGuo8g4PW3XzgSJcQd+J+tR+UXkRScp5aX2rQDorzxJcTkfCwuoSScydxKs8APj07N833NEV8Dad/elhdbvEvOHn6IQy9uikOaIImeqnQIBYbr18pnNbd4ONIuBR3AverL8LFpGTkKb43JYZU0UT+plGRF41dUXlwm30AUVtWYv70SRjmZ4976TeYzjZTblXBYlw7/ROq3aQYv5w8jYeGXujWUY0PSBtnxX81lV+7ixfctH7D6aTsqvwDSRZ2vdUTvm/tQ65SJTmW3vC0I1yIiUaO0vHS1ONIzObD1bOT4kgjaVJsNsU+xugmT9CIqU7QKLuUiLNVCbrh/Fwfmtv238eL6UwxHaTU8H3Yt0/+2bvzW4RMC8SM/Q9h+9p7eFX+LFrOs3Rcv82BaxcP1fFpZQRdMTGoPW5s+wYnOQMwfkTrugXndcK04NEwTlmOka8uwY6jCYg7tAbTXp2FbSnlsHM1hZEFcDN6FWa8uRL7Yn/GmYQj+DpkN9K0u6K/n7GioEbS4H2ZcrntMfmjMTA8tQRjZ2xERGIiIjd9iIkrzqD1+JkYZ+PRTNlNoW9jC1PKRPTW/fj5yjWcjwvF0rFvYNNNRsayMjzT5NcFg6DHDMwdxMfx4BF4Z20YEk7FIHRJECauzYTj5GBMsFVjAZ473lkwDoYJCzBi6mocjjmGPZ+Ox8R16UoJXYAu3T0hygzFJ5/sRMxPTLlLJ2D6wUcQKIrkdZqG4NHGSFk+Eq8u2YGjCXE4tGYaXp21DSnldnA1rn1vjlwxWDXjTazcF4ufzyTgyNch2J2mja79/WCsiX00RHP5dNB30mi0+XU91v1ihuET+kP+9kcNOEawwE1Er5qBN1fuQ+zPZ5Bw5GuE7E6Ddtf+8DPmodO0YIw2TsHyka9iyY6jSIg7hDXTXsWsbSkot2MSZENw9GFjawrKjMbW/T/jyrXziAtdirFvbGLuLHWNZ/LzaiDwno7goUIcmzNc5gcnjjH+NG4i1l1X6tQp0aAdFOdVPPwRH46ahW8jTuDo9k8wZuK3+LPL+/houGHTfE9T6AmOzh+P+T8cQ0L0dnw8ehI23/fGrNmBihM0o2G9cDSKxcbqV4bAG9ODh0J4bA6Gv7MWYSeOMTE0jomz61Vx1pQYUkUz+ZsCR98GtqaEzOit2P/zFVw7H8fIPxZvyAtGWVXBhCdH52P8/B9wLCEa2z8ejUmb78N71mwE6itOUUaoD31RBTJivsfu42kayc9tPxkfjTHEqSVjMWNjBBITI7Hpw4lYcaY1xs8cp/qjXdADM+YOAv94MEZI9Z5wCjGhSxA0cS0yHScjeIKt4sRG0qTYbIp9eHB/ZwHGGSZgwYipWH04Bsf2fIrxE9chvcrdGs7P9aG5bf+FUIuimM0njYKqjxZx+Lpk5tSdXv3kIF2vnOKjoDR2Otlpe9PyOmZTVSJOW0ldBRxqPemIYvp0fRRT+v55NNLThgyFPOLrWZDbwBm0NbXyyjLKDF9Io7xs5X8XmZBTj9co5Pgdks5VUIfqtGgFz8LpdRMBeS27ojjQ0H2lFFPa3jkU2Mma9AV80jHvQK/M3kNpVXpppuySHIpdPoo8rPSIz9cmI/tuFLT4IMV/0ZdEBsNom3Q6pdrVhWvM0JDy9DLtnBVA7lb6JBDokrlLX5q8Kpay6zXVM7q+fw4NcTUnkUCPrH3eoK/mD2L+XzkThKHsFh0ODiC31jqM/KbkMvBDCt33EbmKlM4pTqf980aSp40hCXl80rNwo4EztpKKKmtQlhlOC0d5ka2hkHh8EZk49aDXQo7TnapKamIfVepcNVtT+crP0ccd+cRz/oh+lk9tklNzJlJZJoUvHEVetvLyRCZO1OO1EDpeLTxzy/00b6Qn2cjqp0cWbgNpxtbUuuOhxmw0SU4sLR/lQVZ6fOJrG5F9tyBafDCevugrIoNh2+TXqONJKm2bOZA6mOuSQGRGHYbOowWjrUlb3Ww+hvrtIPczfqepFPJ+P3JkzhEZOZLf/31FicrTwxryvZr6k/GMwl83IUHlTF91s/m0B9GSbbPI35HRs9CAbLtNoq+SKpdrqW+WkrS4GjmgAb1oFIualKOWJ5S6bSYN7GBOugIRmXUYSvMWjFZagoSh0TFUYyaXpvKroCaPMDyLnEytBZ1psWxWtoRyYpfTKA8r0uPzSdvInroFLaaD8V9QX5EBDdt2X2osJkdp06Al22iWvyMTr0IysO1Gk75KotzK29b0AclDipnXgyxFXOJaTtVc/uI02jsnkDpZM77G1yHzDq/Q7D2Kmaa1/OwpXd45iwLcrZj8LSBdcxfqO3kVxVY7pvr6h79OJgIvWqZ+CnrTYlOT+tXwYSnPru+nOUNcyVwkID1rH3rjq/k0iPm/fDYfQ4P5ub440cC2zPXS2XwC7xCqczOCfyBa0n9kvaq/hRLEveeGMRmzcTH2AzjU8zKa5Lf/oY/HBnQ4ch3fD/n3zAD4L1CyZzTMpjzE8oxEzLH/F71xyNIEShHxf7YYe+09pPzKrqDMwvK3U7IHo82m4OHyDJyaI13olKUpNON5efOpeBCJ78O1MHbu/9XbkQKK8Ou2PUi1CcKb/diOFAsLCwsLC8vLw9/YmXqOKxtXI9l3CRYPNlAcq4kEtzcFwdXREQO+foiAhbPg2/AkFBYWFhYWFhaWv4y/b5hP8jsi1kRBOOF9DLauu0/3/Ho4vjmYBn2fsXgjwLlq4USWfw4VORcRf+U52vXphrb1TPVl+S9QgbyrP+FioR169nBU/0I+CwvLX0dFDi7GX8Hzdn3QjU3QTeZvfmeKhYWFhYWFheWfzd/6zhQLCwsLCwsLyz8dtjPFwsLCwsLCwtIM2M4UCwsLCwsLC0szeKk7U0X5T5RWzv6rEONS6BIs2nxa/cbLmiBOx8GQRVgXr7RFxMuE+Cr2Ll2Eb5MevJzy/W2IkX4wBIvWxStt0/F3+aEGvOx+1oKIL4ViyaLNON3koGT5R9JCPi6+th+fLtqAxMr9dtQgTj+IkEXrEK8a/HjSgsGv9h4yKvD41GYs+ngZdl0oUhz7JyLG1b1LsejbJDS4Y9G/jJe0M1WKs5/3Q+fX9/4NBnmOtPDV+HLvOTxp6qv54puIXv8ldp6ue3+tv5Xn1xHxzZcITX6sspklixg3o9fjy52nFXuc/Z1+qAEvu5+1IM/TwrH6y7041+SgZPlH0kI+Lr4RhbVf7sSZh3X7j/hmNNYz55xWdLhKz36Ofp1fx94WDP6a96hCfB2b532EjWe04e72T57j+hzXI77Bl6HJePwfC9WXtjN1/eezyC5lEyfLX4k2RuzMQ9mFypW5X3I/1B6BnXlluLCsE9iFxFlYmof2iJ3IK7uAZYpl+Uuv/4yz2aUt+oOz5j0qEWck4lqrN7B+RzC6sKsT/CPhLmNQ/L/FqCj4DYlH9uFAWBROJF1AZmErtHVqDR1Z1006lLIS61NbwdfyPiJ27sDBY2dxs9gYjk5m0NYqRPLWFdgalYybjyUoy8uHsKM37PW0mGsleHA5Cnt2HUBk/AXcLjWGg5Mp0wRWIkbuxSgc2H8YESeTkfGACwtHGxg00NIU3YrFnu17EXnqN5SaO6Akbi0iS/wx880eMJLJ3NB9ayC+gR+/PoQ8n2kYZZiMXT8cwLHkmygycoCTmQjSmsipQMFviTiy7wDCok4g6UImClu1hVNrHZVerjjvEqL2hOJgZDzOZ5XD1NEBJkqLl0oeXGb+vgsHmL9fuF0KYwcnmCqEkz7eDtl4GfoOBYjZtBMnMkoZnZQhYV04CnpNxxQ/U8W9niPnXDhCQw/iaGIq/ig1aqCO6Ti4ch3O63aFye8HsHXHjziV9hgiu3aw0lWWvv46qpWvvROMBZrppjZ126r41x8QsikZnE5eaKtbbYWiX7YhZHMqRD6dUBixEmvjxXD1McPVber9sCH/vrY/BBsv68OhIAabdp5ARqkF2jsZo/Y+9xrUUZyLi1EHsP9wBE4mZ+AB1wKONgbyzpPMBmsRL3aFj4Oewq+K8XvCfuzY8yMSrz2BQdtWTD3+h4h8F/g66TQQe7ICZPyldVRH0S3E7tmOvZGn8FupORxK4rA2sgT+M99ED3lQMi6bg3PhoQg9eBSJqX+gVBpflY4vpT7dqUE6BLNy3XnodjXB7we2YsePp5D2WAS7dlZQcWnJA1yO2oNdByIRf+E2So2V71u3bji5FxF1YD8OR5xEcsYDcC0cYaOSnOqPQZl861PRytcS9yN2YsfBYzh7sxjGjk4wUzJe/baT0sg8KX0t4NP1OM1xh1dbXYWfSV+HWIYNyTx08bQD/7pmsjHC4bfEI9h3IAxRJ5JwIbMQrdo6oXW1cKq0UC4VXw/D6iOP4DttCHhx27A9LBFpj3Rg62wFPcWtZfpdGw+xqw/Mrm7Diq1RSL75GJKyPOQLO6KrvZ6G8ouRd4nJQYwdI+PPI6vcFI4OJrKN/JXv4SBr06RufA4RJ25AYqQLcUEZjJTytzzG1yO1lS8s70dg546DOHb2JoqNHZn6ayvVXw0N+KmmuaA29bWH5Ug7vBrhBb0wfYofTOsw678S6TpTLUnp5XUUYC0gHavO1HvAAOrd2YpEHD7ZTthL2bJ9JeWbJAq7DKFXbIzJzqs39fFsQzocbXJ+J4ryJPl0csV48rXmEteqK42auJCO3GEulDyixCW9yZyvQ1Yde5J/L3eyEAnJbsQGuvxMWm4ZXVk7iFrzDcmhqz8N9PcmWz0utfJaSEmF0r+ro5xu/BBE9kI+Gdp7U0+fdmRi7EadHfkkqNqstKH7qkG2OSaPLDt5kLWRHXn5+5O3nR5xhO1oavh9xaaqpXR5XQBZC5hyO/emAQN6U2crEXH4tjRhb7biHAn9GfUheRlyScfag3r7dyNHQx6JnCfTgSyZcPQocQn1Nucz+u5IPf17kbuFiIR2I2iDQjjZ5q5CJ3JzsSBn397k5fUWhWXX2PxSnEVHpnuQAVeXbDz7Ur8eLmQiEJDN0DWUUpfuFBuAdvTvQ1Ym7ajX4EHU1VaXeKa96NPTlTupNlxHtfI91kQ3amjAVuIbq6intj4N3nxPqYxHtPdVYxJ2W0npYuUNPNX7oSb+Ld3EU+jkRi4WzuTb24u83gqjx7J7KaNBHcuu0NpBrYlv6EBd/QeSv7ct6XFbkdfCJJKZpeYmrOJM2v26M4l4rZi46kldnU2plX0P8mnD2Onjc9ILGog9aSGaxXCL1VEN5Td+oCB7IVNve/Lu6UPtTIzJrbMj8ZU2yxZnHaHpHgbE1bUhz779qIeLCQkENjR0TYpcNw3pTg3yjYw7kn8fKzJp14sGD+pKtro8Mu31KVW6tORRIi3pbU58HSvq2NOferlbkEhoRyM2XGa0IkW9bu5fWUuDWjN5xqEr+Q9k8oGtHnFbedHCyuSkQQzK5BN2oSGv2JCxnRf17uNJbXQ4pO38DkUpjNew7ZqQJ9VslivdFHn3KJ2qPKmJbIxwtC7AmgSM7jr3HkADencmKxGH+LYTaK9cuNq0UC6V5RmeNXXqbEEGTC7t0b09Iy+fzPquoLNPZYUo7C/fyDr/5Aoa72tNXK4VdR01kRYeuaOZ/JI/KepDLzLk6pC1R2/y7+ZIhjwROU8+QNKUrbpZtpiyjkwnDwMu6dp4Ut9+PcjFREACm6G0ptroTP2F1GXIK2RjzNS/dx/ybKNDHG1neicqr84Y0sRPNckFtWiwPayxWfZ/iBbuTD2k3WOMiO8yk+KqMutTOj3Hjfjag2iTbFd4uRE5XBsaF/o7EwZSHlPMu07E0x1KW/Ok3/Npa4CQBP030J8KoxbGvEv2fGsavSWNiuSH6GnKZ9TXSIe6rbzK5Igk+sBRQC6zT8l3+2YoPLuAvEyd6b2jlVeoIrm/k0YZ86nt+N10S7ajv5juRc8gd20t4iuSRIP3VYcsADjEtR5NP8gLZi76iWa155Ne4DaSVfHhbhpjxCeXmXHVjdDT0zTHjU/agzaRTFVPj9JUGz6ZvvINXVFUquzmZgpkOk/2MxOotDCG3rXnk/XoLZRWLRx91teIdJjOwVUmXmVJhEmmHYPPVslfa5fvXaPJlGdFI79LVwSahPLi55KXrpDcFyTLjtSiso6Ww2lTmkK4/GRa4qtPQs8lJNscXoM6qpVPE92ooUFbSf6g9f11SXfgRpL2z6VI8hgfMNShPmsyGV0od6akf63ph5r5t7Qx5fA7UvDZqhrVRoM6liV9QI4CF5p9qsqj6ewCLzJ1fo9kLq3SmZLQ/dAxZMq3o3E7b8jjSpxDMR96ko4Wo1+lzlT9sffX1rEWkvu0c5Qx8duOp92K2BHfi6YZ7tqkxVd0piQ5tGu0KfGsRtJ36XKPZQxJ8XO9SFfoTguSSxvWnRpkDR2HS5bDN1G1Sy8hX30heS65yHwrZHRlT3wmrrdUBxylfNaXjHS60UppwKnVTRklfeBIApfZVC3OWVrgZUrO7x1lfFWzGKyUz2ZcKP0uNx49ZnzeiadLQ2XG08B2TciTGnem6pVN6g5jyIjvQjOrhWPcYQ658bVp0KYcxZEatFAulecZLlkErKVLsn6KhHLj5jD61Sbv5Zdll6h2dBjbbw0goaA/bVA0QprI//ToVLLhm9Ir31xR6LeMbm4OZDof9jQzoVTlHpKcXTTalEdWI7+jajeOp7leuiR0X0CMG1fX32YchVYrlt514pHu0K3y+tdCMz9tOBfUpuH28L/bmWrhh3AGGLo6CcmRy+BvpDhUoQULa0vwJAXIL6gefeZaB+KtIHvZo0/ACL38PaH7PBc5DySyI6qUIulQBLIt+mCw61Nc/eUX/MJ80sTd0d8DSI2MAjiGMDIgZB39Gqt2xOJqbhn0fD/H+Qc3sHGo+k1oCuMjkVDoitfnj4OjbHyCC6vBizCjT+XjYw3uWyccWA2bjgnyggH9bujj3QrPc7KRK50dYjAUq5OSEbnMn6m9nAotC1hb8iApyIdUVWVnIhBz3xJj5rwDdx35OQKnqdiSmIzji7qBkg4hItsCfQa74ulVuWy/pInRXS4cojIVuuS0Qd8ARr/ybzUoQGx4HAo6TMaiKR0Uj2o5MOu3EHMDdJDx4xHZEfVw4fz6J5jiqhDOsDtmzxwE0dVoRFxnKqlBHWXUlE/T61TQxEds8Opr/uCdOYzwu9IXQCuQF3kICZJeGD+2LVObhtDcvzlt+iLAs57NjzSoI8fQCAaUhaNfr8KO2KvILdOD7+fn8eDGRtR26QKcOHISBZ2mYvEEZ3lccS3wypKPUHPry/pj76+tYy0K4xGZUAjX1+djnCJ2uFaDsWhGH4gqhx4KYhEeV4AOkxdhSgfFsAXHDP0WzkWATgZ+PJLaSN0pwXXG659MQbVLz8bMQSJcjY5gXCwJhyKyYdFnMFyfXpXH2y9pEHfvDw+kIjIqU34Rg6puODA0MgBlHcXXq3Yg9mouyvR88fn5B7ixcSjj942IQa41At8Kgr1imN+olz88dZ8jN+cB800D2zUhT2pMvbJJ3WE1kpIjsaxaOGhZWMOSJ0FBfoHimDqan0tlMLZ9Y/G76Cx7v5sD8/4fY2Z/Pi5H1ZfHq2lY/jKciYjBfcsxmPOOO+QuJIDT1C1ITD6ORd0UilFQEBuOuIIOmLxoCqrduB8Wzg2ATsaPOJL6XH6QyUzWgW8hqFqx8Gd863luDtQ3l5r7aYu3w/9hWrgzxYOhhT6exH2Ft8e8gl6eLrA2Mobr/CTGzQgVShMYtEzMYKrUenEEQvC0CBKJmgxb8QRZWY9Qfncv3vbzha9v5acfFieWoCI3m7l1R8xatxJDeIn4bMogdG5jBjufEZj5TTzuVPqkChLcv3MPJUwDa2+v9LIAxwjtHM3litHkvnXCgam5mUoDzeMz9xGLIZtpyzOEhf4TxH31Nsa80gueLtYwMnbF/KQygCqYMAVKsrPxEDZwdOBLr1DAg6WrF1xaa+NJVhYeld/F3rf9lGTzRb/FiSipyEX2PcWcXo4xzJSVrYwkF3fvPQPXwRkuKu9M6MGpnTVwv7468uDYvr3KezI6dnYwx5+4e4e5twZ1lFFTPk2vU0YjW3FgMXICBol+RVjYH5BU5ODHQ0nQ6v8aRltqEgqa+zfHWNW/a6FBHXkdZ2HdyiHgJX6GKYM6o42ZHXxGzMQ38XdQy6XF2bh9pxQCO0couzN0ndDOSrVu9cfeX1vHmkju38G9Eg5s7O0ZSSrhwKidI8wV1ZDk3sW9Z1w4OLsoncOgx9RV5rL3Gqc7ZXiOaN9exaNhZ2cO/HmXcbEsZD0qx929b8NPKd58+y1GYkkFcpn7VqKqGx46zlqHlUN4SPxsCgZ1bgMzOx+MmPkN4qXJqTExqGWiGiscAYQ8LZBE2vhpYLtG58lGUK9sUnewgP6TOHz19hi80ssTLtZGMHadD7k7qPOGSpqfS2Vw26Kdi7Jt9WHflrHt/buK7/XTsPwlyM5+CNg4QjVlW8LVywWtFR10ORLk3r2HZ1wHOKsanXHjdrDG/er8zfy0NzEzVao/BwIhD1okgfrmUnM/bfF2+D9My3amKu4gdJIfhiwIwz0Tb+ZXymJsjr6CW1sCq16irEJLq/6X55ThCKEt5IDvswLpYtnQpMpHfHuj9CQY9QxGWHoOslKi8P3yafDTS8OuOYEYHnJOTQLVgo6OiHHIYhQVqQZyadlz+QwOje5bN1pMHeui4k4oJvkNwYKwezDxZn4dLN6M6Cu3sCWwWlMCkTaTHp+hpETZsSuQn3kJV7MKwNUWgsP3wYp0cS3ZSHwbG/sJFddogcOpQxYtEUTaWqgoLoKqGiQoeloMaIsU39VBKH32TKVRpMJCFDO/tfVacTSqoxxV+TS/TglNbWUSiAlDDXAuLAy3ssJx6Iw2Br82vKqhrpdG+TcHdalcikZ1ZDr2PYPDkJ6ThZSo77F8mh/00nZhTuBwhJyr4dFaOmDcGeKSYsZjlKBnKH5WIzHWF3t/dR1roKWjAxGTzIuLilQ7W6VleK6ohpZIBG2titrnSIogd1mm/MboThkqxbNnKh6NwkKmUF09xsW0IeTw4bMiHeIa/kUkxu2N/RTXMNTQDceoJ4LD0pGTlYKo75djmp8e0nbNQeDwEJwrb0wMMrarS+ca2a6xeVKO9J4VFcp+VMaYRCLPk1XUIxtjqTuhk+A3ZAHC7pnAO/AtLN4cjSu3tqC+sK6kublURi3bVqCouISxbSvF9/rQRH4BY0emY/SsBKopOx+Zl64iK7+ycyRFCyLGT7Uqarc/kqKnTA7VZsqqTkr11b8mjfPTlm6H/7u0aGeqIi8au6Ly4Db7AKK2rMT86ZMwzM8e99JvMEHK/EJQ9Zl6kDauiv/K0IenV3vgWjQiMpQcUpKJHe8OQ9DSY6h4EIOQiWOxLLYcVl6BmPrxGuyJi8Q8TwkyUi6h9kNkDlp384EjXULcCaUF4UovIim5ck2Thu/bNCqQF70LUXlumH0gCltWzsf0ScPgZ38P6TeYdMYoSnp/7S5ecNP6DaeTspm0qkCShV1v9YTvW/tQ4uGF9riG6IgM+S80GRJk7ngXw4KW4pgm66NwLOHtaQe6EIPoHKXzS1NxPDEbfFdPxQF1iHE5MQEPqy4rwbmTp5Bn4IOe7jyN6lgbzXRTG01tpY9BE4bBLDUK2zYfxq8GTOcqoPKxfU1U/bDl/FuTOuJD+pUAABZMSURBVFbgQUwIJo5dhthyK3gFTsXHa/YgLnIePCUZSLlUw6O5Nuju0xYVlxKR8EhxjOF5egLOZNfoTNXDX1vH2nBad4OPI+FS3AmlhVNLcTEpWbH2l9RlveFpR7gQEw1Vlz2OxGw+XD07Nk53yogvIzHhYbVsJedw8lQeDHx6Mq7jCbmLRUDVxXbg3WFBWHpMPpxVi4oHiAmZiLHLYlFu5YXAqR9jzZ44RM7zhCQjBZcKmxOD1Whiu8bnSQaONtOIEp48fFidh0ou4mKGuqGgOqjIQ/SuKOS5zcaBqC1YOX86Jg3zg/29dMjdQanejaIRfia+htM/Kdm2+BecPP0Qhl7dFAdU0VINfg3k10YXLzdo/XYaSdnVupFk7cJbPX3x1r5cxREpHFh6e8KOLiAmOqdaJsbXU48nIpvvCs9Oyk/RGkFT/bRBXlR7+O+gRTtTHH0b2JoSMqO3Yv/PV3DtfBxCl47FG5tuMn8tQ1nNX8h1IoS+vggVGTH4fvdxXM3noNO0YIw2TsHyka9iyY6jSIg7hDXTXsWsbSkot3NlfvlZADejsWrGm1i5LxY/n0nAka9DsDtNG137+8FYUbIyAu/pCB4qxLE5w/HO2jCcOBaKpeMmYp30fR8ZvAbv2zQ40LexhSllInrrfvx85RrOxzH3HvsG5Koqg1RV3PaT8dEYQ5xaMhYzNkYgMTESmz6ciBVnWmP8zHGw8ZiG4NHGSFk+Eq8u2YGjCXE4tGYaXp21DSnldnA11sS8AvSYMReD+McRPOIdrA1LwKmYUCwJmoi1mY6YHDxBcZ46KvDwxw8xata3iDhxFNs/GYOJ3/6JLu9/hOGGmtWxNk29TnNb6fSdhNFtfsX6db/AbPgE9K9zjTxVP0wTW7eQf2tSRw7kLr0KM95ciX2xP+NMwhF8HbIbadpd0d+vpkdL7Tgb/csP4/1Rs7ApIhbHdn+K8eNW47LUnTX8ZdtyMdxEOwq8MT14KITH5mD4O2sRduIYc/9xmLjuevUPBkEPzJg7CPzjwRghPSfhFGJClyBo4lpkOk5G8IS2jdSdEhUP8eOHozDr2wicOLodn4yZiG//7IL3PxrOuFgnTAseDeOU5Rj56hLsOJqAuENrMO3VWdiWUg471zrK5RjBAjcRvWoG3ly5D7E/n0HCka8RsjsN2l37w8+4OTFYjSa2a0qehKALunuKkBn6CT7ZGYOfGNmWTpiOg48EmjcgHH3Y2JqCMqOxdf/PuHLtPOJCl2LsG5sYzUjdQeV5aiNohJ/RExydPx7zfziGhOjt+Hj0JGy+741ZswMVJ6gi1NeHqCIDMd/vxvE0sQbyc9F+8kcYY3gKS8bOwMaIRCRGbsKHE1fgTOvxmDnOUlZuJYIeMzB3EB/Hg0fI2p+EUzEIXRKEiWsz4Tg5GBNsm9g8N9VPG+RFtYf/EqhFkVBO7HIa5WFFenw+aRvZU7egxXQw/gvqKzKgYdvuM+fUnDEl51n462Qi8KJlV6QHJfQwZh71sBQRl2tJU6PlUx2K0/fTvJGeZGMoJB5fjyzcBtKMralUORG/LDOcFo7yIlvZ30Vk4tSDXgs5Tnfqm1XwJJW2zRxIHcx1SSAyow5D59GC0dakXbk0AkND962FyiyrSp5R5OTWJOi8WD7TTZJDsctHkYeVHvH52mRk342CFh+k+C/6kshgGG27r5jqVJxGe+cEUidrfRLwdci8wys0e09a1UwcRjjaP28kedoYkpDHJz0LNxo4YyulKoSTzWIReFNImpIS1MzOeXp5J80KcCcrfQEJdM3Jpe9kWhWbrSR/DWR15FOnqSH0fj9HMhSKyMjRj/7vq8TqWVoa1FGtfJrqRg2a2aqczn3ckfg8Z/roZ8UMIRk1fbOmHxZr5N/S2VwC7xBSrlItNKpjGWWGL6RRXraMfnnEF5mQU4/XKOT4HbndavmZhPJOr6HXfdsy5wtIz9qbJv5vCY0y4ZPHkkvSCzSKvb+2jup4QqnbZtLADuakKxCRWYehNG/BaLLWrl4aQTo76fLOWRTgbkX6AgHpmrtQ38mrKDa7smIN6E4NsplW/E40NeR96ufIxJPIiBz9/o++SsxhtFJJMaXvn0cjPW3k5epZkNvAGbS1MuDq0k1ZJoUvHEVetvI4FZk4UY/XQui4UnJqKAZrzjaT8SycXjcRkNeyK8wXTWzXtDxZduswBQe4UWsdRnZTFxr4YSjt+8iVRMqz+eqVTeoOsbR8lAdZ6fGJr21E9t2CaPHBePqir4gMhm2TnVOLFsqlsjyjPYiWbJtF/lLbCg3Ittsk+iopt8q2NesgeRhD83pYkojLJcup0RrLX5y2l+YEdiJrxo58HXPq8Mps2qOYHlpLT08v085ZAeRuxeR3gS6Zu/SlyatiqcqN66h/+OsmJPBaRrKQVUvDftpwLlBP/Tn2vzubT0v6j6JfxcKiOaUR+D/bsbj2Xgp+ZVfgfgmowJPbafhT0BYu1vrVL6vmb8fwNu+i6IvfkfC+teIgizpKI/4PtmOv4b2UX2utUM3CwsJSHy06zMfCwvJ3Qbi/bxq6uI7Bpt8rB8RKce2H3Thd7ozu3VorjrGwsLCwtDRsZ4qF5V8BF87/NxeTLM7gI29X+A4YhH7ezvD9+BJc5nyNOd7skxYWFhaWFwU7zMfSNCrycPWniyi064kejv/kXc7/ZRRlIiE8CmduPoRYxxqdB4zGcO/W7DCsBlTkXcVPFwth17MHWJdmYWFpDGxnioWFhYWFhYWlGbDDfCwsLCwsLCwszYDtTLGwsLCwsLCwNIOXojMlTj+IkEXrEF+95PG/H3E6DoYswrp4pdXXm4D4UiiWLNqM0/ktrDvxJYQuWYTNp/MVB5pOUf4TxYKLYqQfDMGidfFKq1uzsLCwsLD8s3k5OlM3o7H+y504XblfxH8B8U1Er/8SO09Xbl3TNJ6nhWP1l3tx7kkLv/r2PA3hq7/E3nNPFAeaQinOft4PnV/fC/nONmLcjF6PL3eertoahIWFhYWF5Z/OS9GZ0h6xE3llF/5bC+Vpj8DOvDJc+FcveFmK6z+fRXZpZUdPGyN25qHswjKwayKysLCwsPxb4C5jUPy/BZAO46zEhkuG6Nb6LsK3b8ehk6nIEdqhQxt9lN85jX3bdiIs/iryWznBxUIk27FaOsy3cm08xK4+cNBjjohzcTHqAPYfjsDJ5Aw84FrA0cZA3umQDo+t3IBLht3Q+m44tm8/hJOpORDadUAb/XLcOb0P23aGIf5qPlo5ucBCpLQn2fMcnAsPRejBo0hM/QOlRg5wMq1ny3LZvdbhvG5XmPx+AFt3/IhTaY8hsmsHK13lfqgEDy5HYc+uA4iMv4DbpcZwcDKt2qldfG0/QjZehr5DAWI27cSJjFJYOD1H3JdrES92hY+DnmLn7ufIOReO0NCDOJqYij9KjVTKkVF0C7F7tmNv5Cn8VmoOh5I4rI0sgf/MN9HDSCFTY+spowi3Yvdg+95InPqtFOYOJYhbG4kS/5mY3KNyI+D666lKIZK3rsDWqGTcfCxBWV4+hB098OzYZ1gbL4arjwOkppYieXAZUXt24UBkPC7cLoWxgxMqxZX5xoZLMOzWGnfDt2P7oZNIzRHCrkMb6Jffwel927AzLB5X81vBycUCMnNrbDepqs4hPDQUB48mIvWPUhgp3ZuFhYWFhUUjpEsjtBzy/X50ugyifm3MqJ2vP/V0NiIe347GLwmm3taW5NqzD3nZ6BJHx4M+PiPfc09lv6KyK7R2UGviGzpQV/+B5O9tS3rcVuS1MIkK5SfTG2Y61GVQP2pj1o58/XuSsxGP+HbjaUlwb7K2dKWefbzIRpdDOh4fk+IWJM46QtM9DIira0OefftRDxcTEghsaOiaFHm56lDsi9TRvw9ZmbSjXoMHUVdbXeKZ9qJPTyv2OJI8osQlvcmcr0NWHXuSfy93shAJyW7EBrqsuLdsXyihE7m5WJCzb2/y8nqLwv6sseeSOIuOTPcgA64u2Xj2pX49XMhEICCboWsoRSFg+Y0fKMheyOjGnrx7+lA7E2Ny6+xIfEH1nmVNqmf5DfohyJ6EfEOy9+5JPu1MyNitMznyBdTrq9/l52hQT1Xy6eSK8eRrzSWuVVcaNXEhHblTXGvvu0eJS6i3OZ90rDpST/9e5G4hIqHdCNqgKFTmGzpdaFC/NmTWzpf8ezqTEY9PduOXUHBva7J07Ul9vGxIl6NDHh+fkV2jkd1ITFlHppOHAZd0bTypb78e5GIiIIHNUFpTqXAWFhYWFhYNeCGdKQ63DY3d/Ye8k1AYRzMceaQl9KA5iQ9lm0pK8vbTuNZ8sp+RID1DpTNVlvQBOQpcaPapyq18C+nsAi8ydX6PjhYxX2UNJYe4bcbS7j/kmzEWxs0gR54WCT3mUOJD2R0ob/84as23pxkJpczXHNo12pR4ViPpu3RFyy/Jo/i5XqQrdKcFycw56qi8l+Vw2qTYqJLyk2mJrz4JPZfINtksjHmX7PnWNHpLGknFk/I05TPqa6RD3VZelX2XdaY4fOoYfLbqnMoGX96ZklDOrtFkyrOikd+lM1qUwtQhfi556QrJfUEy8/U+7RxlTPy242n3LfnmvOJ70TTDXZu0+IrOVJPqKaH7O0eRMb8tjd99i2Qli+9R9Ax30tbiV3WmNKlnbfJpa4CQBP030J+y3URrbK5ZGEPv2vPJevQWSqsulD7ra0Q63VbSVeYcmW9wuNRm7G6Sm7uQ4mY4Ek9LSB5zEklu7jzaP47pgNvPkJ6gkd0kObtotCmPrEZ+R9Wqiqe5XrokdF9AdbkECwsLCwtLTV7IO1MciyGY/KqdfFhOzxMezlzwOo3BlF4mspe0OMYe6GyvhfxHj6RnqMAxNIIBZeHo16uwI/Yqcsv04Pv5eTy4sRFDdRUnMaVYDJmMV+3kL97oeXrAmctDpzFT0MtEdgcYe3SGvVY+Hj2SAAWxCI8rQIfJizClg2IMh2OGfgvnIkAnAz8eSZUfUwsXzq9/gimuOvKvht0xe+YgiK5GI+J6EZIORSDbog8Guz7F1V9+wS/MJ03cHf09gNTIKPk1Ujht0DfAE1VVUKEAseFxKOgwGYumdFAMm3Fg1m8h5gboIOPHI0BhPCITCuH6+nyMcxTIzuBaDcaiGX3kQ1tSmlTPQsRHJqDQ9XXMH+cIWclcKwxeNAN9qgou1byejaA06RAisi3QZ7Arnl6Vl/lLmhjd5YUiKpOxnRSOBYZMfhVyc+vB08MZXF4njJnSC3JzG8Ojsz208pX9qT67iRlVhSOuoAMmL5qCalX1w8K5AdDJ+BFHUp/LD7KwsLCwsDTAC+lMaZlawKJq23oOuMz/tfQNYVjZNjPdLJ7072oWX+d1nIV1K4eAl/gZpgzqjDZmdvAZMRPfxN9BdfOmBVMLi+qd8Tlc5v9a0Dc0VLx7xMDjyf4uvYUk9y7uPePCwdlF9WVvPSe0swbuZ99THFAHD47t28s7GQp07Oxgjj9x94+HyMp6hPK7e/G2ny98fSs//bA4sQQVudmKKxiYBt/MtEpiVSS5uHvvGbgOznBRFRBOcgEhuX8H90o4sLG3V6oDB0btHGGusGKT6im5jzv3SsCxsYe90kUco3ZwrCy44onm9dSYCjzJysKj8rvY+7afUpm+6Lc4ESUVuci+p9iwV8sUFtUOxZib+b+WPgyrHYoxt8za8i8y6rHbnTLk3r2HZ1wHOKsqnFFVO1jjfvW9WVhYWFhYGuDFdKa4nKYXzDFCz+AwpOdkISXqeyyf5ge9tF2YEzgcIecqu1Na4HI0v4OWSARtrQoUFxWpLkMgKcLTYkBbVN8bx4TSZ89UrqPCQhRDF3qGTLlCDvg+K5Aulg2ZqnzEtzcqrpCiBQ6nuvFXQUsEkbYWKoqLUKQqIIrkAkJLRwciLapdh9IyPFf0IZpUTy0d6Ii0QLXuXYqyyoI5wkbUU1M4EGoLweH7YEW6uFaZJL6Njf2E8lO1uIzu5P/VnHrs1ooLEaMLrYpiFKlWmlHVU+YcbcYeLyQ0WFhYWFj+hbxkLUYFHsSEYOLYZYgtt4JX4FR8vGYP4iLnwVOSgZRLBYrzGgfH0huedoQLMdHIUWo7S1OPIzGbD1fPTooj6hDjcmICHlZdV4JzJ08hz8AHPd1N4OnVHrgWjYgMpScZkkzseHcYgpYeUxxoAI4lvD3tQBdiEK0qII4nZoPv6glO627wcSRcijuhtOBlKS4mJVet2dSkenJao5uPI+hSHE4oraRZejEJyVWLQek3sZ7SDqTiv2rQ9/RCe1xDdESGYlFPKRJk7ngXw4KW4ph8caomUp/dtGHp7Qk7uoCY6BylDlcpUo8nIpvvCs9Oys+0WFhYWFhY6uYl60xxYGQB3IxehRlvrsS+2J9xJuEIvg7ZjTTtrujvZ6w4r5EIemDG3EHgHw/GiHfWIizhFGJClyBo4lpkOk5G8ARbxYnqqMDDHz/EqFnfIuLEUWz/ZAwmfvsnurz/EYYb8tBpWjBGG6dg+chXsWTHUSTEHcKaaa9i1rYUlNu5KspoCAF6zJiLQfzjCB7xDtaGJeBUTCiWBE3E2kxHTA6ewJzijenBQyE8NgfDpXU4cQyhS8dh4rrr1R2RJtVTAO/pwRgqPIY5w6X3PoFjoUsxbuI6XK8quKn1FEJfX4SKjBh8v/s4rtZYpZ3XaRqCRxsjZflIvLpkB44mxOHQmml4ddY2pJTbwdW4Oe5Zn92kqpqBuYP4OB48Au+sDUPCqRiELgnCxLWZcJwcjAm20ntL8HvEKnyy6HucbVo/noWFhYXlvwC1KDVma8l4Qj8ECknQbz3dk83oYhDfov/1FJDhuIOyrypLI1AZZYYvpFFetmQo5BFfZEJOPV6jkON3SDb5X2UWnIInP1CgUED91t+TzRaUIr71P+opMKRxBytnBT6lyztnUYC7FekLBKRr7kJ9J6+i2OyqUmojuxefOk0Noff7OTLyiMjI0Y/+76tEyqm8EUNx+n6aN9KTbAyFxOPrkYXbQJqxNZWpuRzZbD6BN4WkyZcvkKGmHk8v76RZAe5kpS8gga45ufSdTKtis6vryZSYum0mDexgTroCEZl1GErzFowma+3qpRGaVE+GJ6nbaObADmSuKyCRWQcaOm8BjbbWrl4agaGhetZGQg9j5lEPSxFxuZY0NTq/tn8Up9P+eSPJ08aQhDw+6Vm40cAZWylVUaiqb8h58kMgCQX9aH21Q9Gt//UkgeE4+VcN7cYonHbOCiB3K30SCHTJ3KUvTV4VS9WqKqWEmfbEFfjTumzlC1lYWFhYWKrRkv6j6Fex1KQ0Av9nOxbX3kvBr//qlcr/ZbB2Y2FhYWH5C3nJhvlYWFhYWFhYWP5ZsJ0pFhYWFhYWFpZmwA7z1UdFHq7+dBGFdj3Rw1FPcZDlpYe1GwsLCwvLXwjbmWJhYWFhYWFhaQbsMB8LCwsLCwsLSzNgO1MsLCwsLCwsLM2A7UyxsLCwsLCwsDQDtjPFwsLCwsLCwtIM2M4UCwsLCwsLC0szYDtTLCwsLCwsLCzNgO1MsbCwsLCwsLA0A7YzxcLCwsLCwsLSDNjOFAsLCwsLCwtLM2A7UywsLCwsLCwszYDtTLGwsLCwsLCwNBng/wF9pVMjMTOO3QAAAABJRU5ErkJggg==;" parent="WIyWlLk6GJQsqaUBKTNV-1" vertex="1">
          <mxGeometry x="150" y="-140" width="595" height="233" as="geometry" />
        </mxCell>
        <mxCell id="wNyPwy1pUIzYK94MHPBu-0" value="Reserva" style="swimlane;fontStyle=0;align=center;verticalAlign=top;childLayout=stackLayout;horizontal=1;startSize=26;horizontalStack=0;resizeParent=1;resizeLast=0;collapsible=1;marginBottom=0;rounded=0;shadow=0;strokeWidth=1;" vertex="1" parent="WIyWlLk6GJQsqaUBKTNV-1">
          <mxGeometry x="508" y="390" width="180" height="268" as="geometry">
            <mxRectangle x="550" y="140" width="160" height="26" as="alternateBounds" />
          </mxGeometry>
        </mxCell>
        <mxCell id="wNyPwy1pUIzYK94MHPBu-1" value="- hotel: Hotel" style="text;align=left;verticalAlign=top;spacingLeft=4;spacingRight=4;overflow=hidden;rotatable=0;points=[[0,0.5],[1,0.5]];portConstraint=eastwest;" vertex="1" parent="wNyPwy1pUIzYK94MHPBu-0">
          <mxGeometry y="26" width="180" height="26" as="geometry" />
        </mxCell>
        <mxCell id="wNyPwy1pUIzYK94MHPBu-2" value="- temporada:Temporada" style="text;align=left;verticalAlign=top;spacingLeft=4;spacingRight=4;overflow=hidden;rotatable=0;points=[[0,0.5],[1,0.5]];portConstraint=eastwest;rounded=0;shadow=0;html=0;" vertex="1" parent="wNyPwy1pUIzYK94MHPBu-0">
          <mxGeometry y="52" width="180" height="26" as="geometry" />
        </mxCell>
        <mxCell id="wNyPwy1pUIzYK94MHPBu-3" value="- cliente:Cliente" style="text;align=left;verticalAlign=top;spacingLeft=4;spacingRight=4;overflow=hidden;rotatable=0;points=[[0,0.5],[1,0.5]];portConstraint=eastwest;rounded=0;shadow=0;html=0;" vertex="1" parent="wNyPwy1pUIzYK94MHPBu-0">
          <mxGeometry y="78" width="180" height="26" as="geometry" />
        </mxCell>
        <mxCell id="wNyPwy1pUIzYK94MHPBu-4" value="- tipoHabitacion:Habitacion" style="text;align=left;verticalAlign=top;spacingLeft=4;spacingRight=4;overflow=hidden;rotatable=0;points=[[0,0.5],[1,0.5]];portConstraint=eastwest;rounded=0;shadow=0;html=0;" vertex="1" parent="wNyPwy1pUIzYK94MHPBu-0">
          <mxGeometry y="104" width="180" height="26" as="geometry" />
        </mxCell>
        <mxCell id="wNyPwy1pUIzYK94MHPBu-5" value="- periodoDias:int " style="text;align=left;verticalAlign=top;spacingLeft=4;spacingRight=4;overflow=hidden;rotatable=0;points=[[0,0.5],[1,0.5]];portConstraint=eastwest;rounded=0;shadow=0;html=0;" vertex="1" parent="wNyPwy1pUIzYK94MHPBu-0">
          <mxGeometry y="130" width="180" height="26" as="geometry" />
        </mxCell>
        <mxCell id="wNyPwy1pUIzYK94MHPBu-37" value="- total: float" style="text;align=left;verticalAlign=top;spacingLeft=4;spacingRight=4;overflow=hidden;rotatable=0;points=[[0,0.5],[1,0.5]];portConstraint=eastwest;rounded=0;shadow=0;html=0;" vertex="1" parent="wNyPwy1pUIzYK94MHPBu-0">
          <mxGeometry y="156" width="180" height="26" as="geometry" />
        </mxCell>
        <mxCell id="wNyPwy1pUIzYK94MHPBu-6" value="" style="line;html=1;strokeWidth=1;align=left;verticalAlign=middle;spacingTop=-1;spacingLeft=3;spacingRight=3;rotatable=0;labelPosition=right;points=[];portConstraint=eastwest;" vertex="1" parent="wNyPwy1pUIzYK94MHPBu-0">
          <mxGeometry y="182" width="180" height="8" as="geometry" />
        </mxCell>
        <mxCell id="wNyPwy1pUIzYK94MHPBu-38" value="+ validarReservasCliente()" style="text;align=left;verticalAlign=top;spacingLeft=4;spacingRight=4;overflow=hidden;rotatable=0;points=[[0,0.5],[1,0.5]];portConstraint=eastwest;" vertex="1" parent="wNyPwy1pUIzYK94MHPBu-0">
          <mxGeometry y="190" width="180" height="26" as="geometry" />
        </mxCell>
        <mxCell id="wNyPwy1pUIzYK94MHPBu-7" value="+ confitrmarReserva()" style="text;align=left;verticalAlign=top;spacingLeft=4;spacingRight=4;overflow=hidden;rotatable=0;points=[[0,0.5],[1,0.5]];portConstraint=eastwest;" vertex="1" parent="wNyPwy1pUIzYK94MHPBu-0">
          <mxGeometry y="216" width="180" height="26" as="geometry" />
        </mxCell>
        <mxCell id="wNyPwy1pUIzYK94MHPBu-8" value="+ calcularTotal()" style="text;align=left;verticalAlign=top;spacingLeft=4;spacingRight=4;overflow=hidden;rotatable=0;points=[[0,0.5],[1,0.5]];portConstraint=eastwest;" vertex="1" parent="wNyPwy1pUIzYK94MHPBu-0">
          <mxGeometry y="242" width="180" height="26" as="geometry" />
        </mxCell>
        <mxCell id="wNyPwy1pUIzYK94MHPBu-9" value="Cliente" style="swimlane;fontStyle=0;align=center;verticalAlign=top;childLayout=stackLayout;horizontal=1;startSize=26;horizontalStack=0;resizeParent=1;resizeLast=0;collapsible=1;marginBottom=0;rounded=0;shadow=0;strokeWidth=1;" vertex="1" parent="WIyWlLk6GJQsqaUBKTNV-1">
          <mxGeometry x="765" y="376" width="160" height="140" as="geometry">
            <mxRectangle x="550" y="140" width="160" height="26" as="alternateBounds" />
          </mxGeometry>
        </mxCell>
        <mxCell id="wNyPwy1pUIzYK94MHPBu-10" value="- nombre: string" style="text;align=left;verticalAlign=top;spacingLeft=4;spacingRight=4;overflow=hidden;rotatable=0;points=[[0,0.5],[1,0.5]];portConstraint=eastwest;" vertex="1" parent="wNyPwy1pUIzYK94MHPBu-9">
          <mxGeometry y="26" width="160" height="26" as="geometry" />
        </mxCell>
        <mxCell id="wNyPwy1pUIzYK94MHPBu-11" value="- apellido:string" style="text;align=left;verticalAlign=top;spacingLeft=4;spacingRight=4;overflow=hidden;rotatable=0;points=[[0,0.5],[1,0.5]];portConstraint=eastwest;rounded=0;shadow=0;html=0;" vertex="1" parent="wNyPwy1pUIzYK94MHPBu-9">
          <mxGeometry y="52" width="160" height="26" as="geometry" />
        </mxCell>
        <mxCell id="wNyPwy1pUIzYK94MHPBu-12" value="- dni:string" style="text;align=left;verticalAlign=top;spacingLeft=4;spacingRight=4;overflow=hidden;rotatable=0;points=[[0,0.5],[1,0.5]];portConstraint=eastwest;rounded=0;shadow=0;html=0;" vertex="1" parent="wNyPwy1pUIzYK94MHPBu-9">
          <mxGeometry y="78" width="160" height="26" as="geometry" />
        </mxCell>
        <mxCell id="wNyPwy1pUIzYK94MHPBu-15" value="" style="line;html=1;strokeWidth=1;align=left;verticalAlign=middle;spacingTop=-1;spacingLeft=3;spacingRight=3;rotatable=0;labelPosition=right;points=[];portConstraint=eastwest;" vertex="1" parent="wNyPwy1pUIzYK94MHPBu-9">
          <mxGeometry y="104" width="160" height="8" as="geometry" />
        </mxCell>
        <mxCell id="wNyPwy1pUIzYK94MHPBu-16" value="+ reservar()" style="text;align=left;verticalAlign=top;spacingLeft=4;spacingRight=4;overflow=hidden;rotatable=0;points=[[0,0.5],[1,0.5]];portConstraint=eastwest;" vertex="1" parent="wNyPwy1pUIzYK94MHPBu-9">
          <mxGeometry y="112" width="160" height="26" as="geometry" />
        </mxCell>
        <mxCell id="wNyPwy1pUIzYK94MHPBu-18" value="Temporada&#xa;&lt;&lt;enum&gt;&gt;" style="swimlane;fontStyle=0;align=center;verticalAlign=top;childLayout=stackLayout;horizontal=1;startSize=40;horizontalStack=0;resizeParent=1;resizeLast=0;collapsible=1;marginBottom=0;rounded=0;shadow=0;strokeWidth=1;" vertex="1" parent="WIyWlLk6GJQsqaUBKTNV-1">
          <mxGeometry x="240" y="419" width="160" height="126" as="geometry">
            <mxRectangle x="550" y="140" width="160" height="26" as="alternateBounds" />
          </mxGeometry>
        </mxCell>
        <mxCell id="wNyPwy1pUIzYK94MHPBu-19" value="- baja: string" style="text;align=left;verticalAlign=top;spacingLeft=4;spacingRight=4;overflow=hidden;rotatable=0;points=[[0,0.5],[1,0.5]];portConstraint=eastwest;" vertex="1" parent="wNyPwy1pUIzYK94MHPBu-18">
          <mxGeometry y="40" width="160" height="26" as="geometry" />
        </mxCell>
        <mxCell id="wNyPwy1pUIzYK94MHPBu-20" value="- media: string" style="text;align=left;verticalAlign=top;spacingLeft=4;spacingRight=4;overflow=hidden;rotatable=0;points=[[0,0.5],[1,0.5]];portConstraint=eastwest;rounded=0;shadow=0;html=0;" vertex="1" parent="wNyPwy1pUIzYK94MHPBu-18">
          <mxGeometry y="66" width="160" height="26" as="geometry" />
        </mxCell>
        <mxCell id="wNyPwy1pUIzYK94MHPBu-21" value="- alta: string" style="text;align=left;verticalAlign=top;spacingLeft=4;spacingRight=4;overflow=hidden;rotatable=0;points=[[0,0.5],[1,0.5]];portConstraint=eastwest;rounded=0;shadow=0;html=0;" vertex="1" parent="wNyPwy1pUIzYK94MHPBu-18">
          <mxGeometry y="92" width="160" height="26" as="geometry" />
        </mxCell>
        <mxCell id="wNyPwy1pUIzYK94MHPBu-24" value="" style="line;html=1;strokeWidth=1;align=left;verticalAlign=middle;spacingTop=-1;spacingLeft=3;spacingRight=3;rotatable=0;labelPosition=right;points=[];portConstraint=eastwest;" vertex="1" parent="wNyPwy1pUIzYK94MHPBu-18">
          <mxGeometry y="118" width="160" height="8" as="geometry" />
        </mxCell>
        <mxCell id="wNyPwy1pUIzYK94MHPBu-27" value="Habitacion" style="swimlane;fontStyle=0;align=center;verticalAlign=top;childLayout=stackLayout;horizontal=1;startSize=26;horizontalStack=0;resizeParent=1;resizeLast=0;collapsible=1;marginBottom=0;rounded=0;shadow=0;strokeWidth=1;" vertex="1" parent="WIyWlLk6GJQsqaUBKTNV-1">
          <mxGeometry x="230" y="120" width="160" height="190" as="geometry">
            <mxRectangle x="550" y="140" width="160" height="26" as="alternateBounds" />
          </mxGeometry>
        </mxCell>
        <mxCell id="wNyPwy1pUIzYK94MHPBu-28" value="- capacidad:int" style="text;align=left;verticalAlign=top;spacingLeft=4;spacingRight=4;overflow=hidden;rotatable=0;points=[[0,0.5],[1,0.5]];portConstraint=eastwest;" vertex="1" parent="wNyPwy1pUIzYK94MHPBu-27">
          <mxGeometry y="26" width="160" height="26" as="geometry" />
        </mxCell>
        <mxCell id="wNyPwy1pUIzYK94MHPBu-29" value="- frigobar: bool" style="text;align=left;verticalAlign=top;spacingLeft=4;spacingRight=4;overflow=hidden;rotatable=0;points=[[0,0.5],[1,0.5]];portConstraint=eastwest;rounded=0;shadow=0;html=0;" vertex="1" parent="wNyPwy1pUIzYK94MHPBu-27">
          <mxGeometry y="52" width="160" height="26" as="geometry" />
        </mxCell>
        <mxCell id="wNyPwy1pUIzYK94MHPBu-30" value="- wifi:bool" style="text;align=left;verticalAlign=top;spacingLeft=4;spacingRight=4;overflow=hidden;rotatable=0;points=[[0,0.5],[1,0.5]];portConstraint=eastwest;rounded=0;shadow=0;html=0;" vertex="1" parent="wNyPwy1pUIzYK94MHPBu-27">
          <mxGeometry y="78" width="160" height="26" as="geometry" />
        </mxCell>
        <mxCell id="wNyPwy1pUIzYK94MHPBu-31" value="- climatizado:bool" style="text;align=left;verticalAlign=top;spacingLeft=4;spacingRight=4;overflow=hidden;rotatable=0;points=[[0,0.5],[1,0.5]];portConstraint=eastwest;rounded=0;shadow=0;html=0;" vertex="1" parent="wNyPwy1pUIzYK94MHPBu-27">
          <mxGeometry y="104" width="160" height="26" as="geometry" />
        </mxCell>
        <mxCell id="wNyPwy1pUIzYK94MHPBu-32" value="- tipoCamas: string" style="text;align=left;verticalAlign=top;spacingLeft=4;spacingRight=4;overflow=hidden;rotatable=0;points=[[0,0.5],[1,0.5]];portConstraint=eastwest;rounded=0;shadow=0;html=0;" vertex="1" parent="wNyPwy1pUIzYK94MHPBu-27">
          <mxGeometry y="130" width="160" height="26" as="geometry" />
        </mxCell>
        <mxCell id="wNyPwy1pUIzYK94MHPBu-33" value="" style="line;html=1;strokeWidth=1;align=left;verticalAlign=middle;spacingTop=-1;spacingLeft=3;spacingRight=3;rotatable=0;labelPosition=right;points=[];portConstraint=eastwest;" vertex="1" parent="wNyPwy1pUIzYK94MHPBu-27">
          <mxGeometry y="156" width="160" height="8" as="geometry" />
        </mxCell>
        <mxCell id="wNyPwy1pUIzYK94MHPBu-34" value="+ llenarFrigobar()" style="text;align=left;verticalAlign=top;spacingLeft=4;spacingRight=4;overflow=hidden;rotatable=0;points=[[0,0.5],[1,0.5]];portConstraint=eastwest;" vertex="1" parent="wNyPwy1pUIzYK94MHPBu-27">
          <mxGeometry y="164" width="160" height="26" as="geometry" />
        </mxCell>
        <mxCell id="wNyPwy1pUIzYK94MHPBu-36" value="" style="endArrow=diamondThin;endFill=1;endSize=24;html=1;rounded=0;exitX=1;exitY=0.5;exitDx=0;exitDy=0;entryX=0;entryY=0.5;entryDx=0;entryDy=0;" edge="1" parent="WIyWlLk6GJQsqaUBKTNV-1" source="wNyPwy1pUIzYK94MHPBu-31" target="zkfFHV4jXpPFQw0GAbJ--21">
          <mxGeometry width="160" relative="1" as="geometry">
            <mxPoint x="530" y="190" as="sourcePoint" />
            <mxPoint x="690" y="190" as="targetPoint" />
          </mxGeometry>
        </mxCell>
        <mxCell id="wNyPwy1pUIzYK94MHPBu-39" value="aca se validaria que el cliente no tenga&amp;nbsp;&lt;div&gt;reservas en otra sucursal del hotel&lt;/div&gt;" style="text;html=1;align=center;verticalAlign=middle;resizable=0;points=[];autosize=1;strokeColor=none;fillColor=none;labelBorderColor=default;" vertex="1" parent="WIyWlLk6GJQsqaUBKTNV-1">
          <mxGeometry x="730" y="545" width="230" height="40" as="geometry" />
        </mxCell>
        <mxCell id="wNyPwy1pUIzYK94MHPBu-40" value="" style="edgeStyle=none;orthogonalLoop=1;jettySize=auto;html=1;rounded=0;entryX=1;entryY=0.5;entryDx=0;entryDy=0;" edge="1" parent="WIyWlLk6GJQsqaUBKTNV-1" target="wNyPwy1pUIzYK94MHPBu-38">
          <mxGeometry width="100" relative="1" as="geometry">
            <mxPoint x="740" y="570" as="sourcePoint" />
            <mxPoint x="740" y="560" as="targetPoint" />
            <Array as="points" />
          </mxGeometry>
        </mxCell>
        <mxCell id="wNyPwy1pUIzYK94MHPBu-41" value="Reservable&#xa;&lt;&lt;interface&gt;&gt;" style="swimlane;fontStyle=0;align=center;verticalAlign=top;childLayout=stackLayout;horizontal=1;startSize=40;horizontalStack=0;resizeParent=1;resizeLast=0;collapsible=1;marginBottom=0;rounded=0;shadow=0;strokeWidth=1;" vertex="1" parent="WIyWlLk6GJQsqaUBKTNV-1">
          <mxGeometry x="780" y="220" width="160" height="90" as="geometry">
            <mxRectangle x="550" y="140" width="160" height="26" as="alternateBounds" />
          </mxGeometry>
        </mxCell>
        <mxCell id="wNyPwy1pUIzYK94MHPBu-45" value="" style="line;html=1;strokeWidth=1;align=left;verticalAlign=middle;spacingTop=-1;spacingLeft=3;spacingRight=3;rotatable=0;labelPosition=right;points=[];portConstraint=eastwest;" vertex="1" parent="wNyPwy1pUIzYK94MHPBu-41">
          <mxGeometry y="40" width="160" height="8" as="geometry" />
        </mxCell>
        <mxCell id="wNyPwy1pUIzYK94MHPBu-42" value="+ reservar()" style="text;align=left;verticalAlign=top;spacingLeft=4;spacingRight=4;overflow=hidden;rotatable=0;points=[[0,0.5],[1,0.5]];portConstraint=eastwest;" vertex="1" parent="wNyPwy1pUIzYK94MHPBu-41">
          <mxGeometry y="48" width="160" height="26" as="geometry" />
        </mxCell>
        <mxCell id="wNyPwy1pUIzYK94MHPBu-46" value="" style="endArrow=diamondThin;endFill=0;endSize=24;html=1;rounded=0;exitX=0.521;exitY=1.077;exitDx=0;exitDy=0;exitPerimeter=0;entryX=0.544;entryY=0;entryDx=0;entryDy=0;entryPerimeter=0;" edge="1" parent="WIyWlLk6GJQsqaUBKTNV-1" source="zkfFHV4jXpPFQw0GAbJ--25" target="wNyPwy1pUIzYK94MHPBu-0">
          <mxGeometry width="160" relative="1" as="geometry">
            <mxPoint x="470" y="370" as="sourcePoint" />
            <mxPoint x="608" y="370" as="targetPoint" />
          </mxGeometry>
        </mxCell>
        <mxCell id="wNyPwy1pUIzYK94MHPBu-47" value="" style="endArrow=diamondThin;endFill=0;endSize=24;html=1;rounded=0;exitX=1;exitY=0.5;exitDx=0;exitDy=0;entryX=0;entryY=0;entryDx=0;entryDy=0;" edge="1" parent="WIyWlLk6GJQsqaUBKTNV-1" source="wNyPwy1pUIzYK94MHPBu-34" target="wNyPwy1pUIzYK94MHPBu-0">
          <mxGeometry width="160" relative="1" as="geometry">
            <mxPoint x="460" y="410" as="sourcePoint" />
            <mxPoint x="620" y="410" as="targetPoint" />
          </mxGeometry>
        </mxCell>
        <mxCell id="wNyPwy1pUIzYK94MHPBu-48" value="" style="endArrow=diamondThin;endFill=0;endSize=24;html=1;rounded=0;exitX=0;exitY=0.5;exitDx=0;exitDy=0;" edge="1" parent="WIyWlLk6GJQsqaUBKTNV-1" source="wNyPwy1pUIzYK94MHPBu-11">
          <mxGeometry width="160" relative="1" as="geometry">
            <mxPoint x="460" y="440" as="sourcePoint" />
            <mxPoint x="690" y="440" as="targetPoint" />
          </mxGeometry>
        </mxCell>
        <mxCell id="wNyPwy1pUIzYK94MHPBu-49" value="" style="endArrow=block;dashed=1;endFill=0;endSize=12;html=1;rounded=0;exitX=0.5;exitY=0;exitDx=0;exitDy=0;" edge="1" parent="WIyWlLk6GJQsqaUBKTNV-1" source="wNyPwy1pUIzYK94MHPBu-9">
          <mxGeometry width="160" relative="1" as="geometry">
            <mxPoint x="500" y="360" as="sourcePoint" />
            <mxPoint x="845" y="310" as="targetPoint" />
          </mxGeometry>
        </mxCell>
        <mxCell id="wNyPwy1pUIzYK94MHPBu-50" value="" style="endArrow=block;dashed=1;endFill=0;endSize=12;html=1;rounded=0;entryX=-0.012;entryY=0.038;entryDx=0;entryDy=0;entryPerimeter=0;" edge="1" parent="WIyWlLk6GJQsqaUBKTNV-1" target="wNyPwy1pUIzYK94MHPBu-42">
          <mxGeometry width="160" relative="1" as="geometry">
            <mxPoint x="700" y="269" as="sourcePoint" />
            <mxPoint x="660" y="360" as="targetPoint" />
          </mxGeometry>
        </mxCell>
        <mxCell id="wNyPwy1pUIzYK94MHPBu-51" value="" style="endArrow=open;endFill=1;endSize=12;html=1;rounded=0;exitX=0;exitY=0.5;exitDx=0;exitDy=0;entryX=0.994;entryY=-0.154;entryDx=0;entryDy=0;entryPerimeter=0;" edge="1" parent="WIyWlLk6GJQsqaUBKTNV-1" source="wNyPwy1pUIzYK94MHPBu-2" target="wNyPwy1pUIzYK94MHPBu-20">
          <mxGeometry width="160" relative="1" as="geometry">
            <mxPoint x="500" y="300" as="sourcePoint" />
            <mxPoint x="660" y="300" as="targetPoint" />
          </mxGeometry>
        </mxCell>
      </root>
    </mxGraphModel>
  </diagram>
</mxfile>
